<?xml version="1.0" standalone="no"?><!DOCTYPE svg PUBLIC "-//W3C//DTD SVG 1.1//EN" "http://www.w3.org/Graphics/SVG/1.1/DTD/svg11.dtd"><svg t="1774094706283" class="icon" viewBox="0 0 1024 1024" version="1.1" xmlns="http://www.w3.org/2000/svg" p-id="83526" xmlns:xlink="http://www.w3.org/1999/xlink" width="256" height="256"><path d="M501.933559 425.04678l0.17356-0.242983a31.240678 31.240678 0 0 1-0.451255-2.533966c-0.069424 0.902508 0.208271 1.839729 0.277695 2.776949z m196.642712 214.727593z m5.033221 0.624813c-1.214915-0.208271-3.957153 0-5.033221-0.624813-0.659525 2.325695 0.347119 3.15878 5.033221 0.624813zM512-0.069424a512 512 0 1 0 512 512 512 512 0 0 0-512-512z m327.020475 200.009763a71.645288 71.645288 0 0 0-44.084068 10.413559 56.198508 56.198508 0 0 1-16.835254 11.211933c-6.491119 1.839729-13.502915 0.208271-19.959322 2.395118-23.256949 7.879593-19.577492 57.725831-50.228068 50.193356-14.405424-3.471186-24.541288-20.549424-31.796068-31.65722-6.386983-9.788746-18.015458-17.87661-10.170576-30.095187-3.471186 0.902508-7.393627 0-10.934238 0.55539 4.894373-10.79539 21.382508-9.823458 24.124746-15.342644 6.942373-13.884746-18.779119-15.238508-26.033898-17.182373 8.74739-9.30278 13.155797 3.124068 21.799051 1.006644s-4.373695-12.947525-9.337492-14.197152c-1.770305-0.451254-30.962983 8.053153-14.093017-6.942373l-62.481356-39.849221c-3.471186 14.752542 27.769492 23.152814 37.905356 28.394306-1.596746 6.109288-11.073085 14.995525-18.362576 12.392135s-4.061288-13.884746-14.405424-12.66983c-7.393627 17.182373 15.620339 12.149153 17.772475 22.701559 2.429831 12.010305-8.712678 6.942373-12.982238 6.69939-1.006644 0-8.990373-8.296136-9.441627-2.048-0.520678 7.428339 12.704542 4.512542 13.641763 12.010305a53.595119 53.595119 0 0 1-35.857356-13.294644 57.031593 57.031593 0 0 0-40.126915-8.851526 77.095051 77.095051 0 0 0 17.355932-7.393627 80.114983 80.114983 0 0 0 12.982237-13.641762c2.776949-9.198644 0-8.504407-8.955661-14.544272a88.515254 88.515254 0 0 0-26.832271-16.869966c-34.399458-6.942373-10.621831 31.067119-36.725152 36.30861-6.039864-0.208271-17.355932-1.700881-21.243661 1.492611-2.742237 2.256271-2.98522 11.246644-6.039865 14.509559-5.449763 5.831593-13.607051 6.942373-20.132881 11.17722a88.515254 88.515254 0 0 0-24.298305 21.799051c-13.884746 26.346305 31.067119 34.503593 48.04122 42.209627 7.671322 3.471186 30.129898 8.226712 34.295322 13.884746 5.623322 7.810169-4.824949 15.134373 6.942373 20.618847a14.474847 14.474847 0 0 0 14.683119-1.527322c5.241492-5.901017-2.117424-7.220068-3.471187-13.884745-2.429831-13.121085 1.562034-7.914305 8.157288-12.773966 13.433492-9.927593 10.413559-10.413559 5.588611-26.346306-2.256271-7.358915-10.725966-27.769492-3.262916-33.358101 9.719322-6.942373 30.442305 3.853017 37.905356 4.755525 8.677966 1.076068 13.607051 13.086373 18.327865 17.980746 3.124068 3.262915 8.74739 10.170576 14.231864 9.441627 8.712678-1.180203 5.067932-8.816814 10.101153-12.322712 13.537627-9.406915 17.112949 3.471186 22.493288 16.141017a55.538983 55.538983 0 0 0 18.917966 24.124746c4.200136 3.471186 22.597424 16.349288 20.827118 24.298305-1.180203 5.310915-22.180881 13.364068-27.769491 15.134373-20.549424 6.491119-59.010169-10.656542-63.210305 21.903186 7.983729-2.950508 30.615864-21.486644 37.41939-12.704542 3.089356 3.991864-2.464542 9.788746-1.145492 13.884746 3.887729 11.871458 13.016949 7.740746 22.597424 5.796881a16.731119 16.731119 0 0 1-2.048 1.076068c13.086373-6.734102 11.73261-5.345627 17.737763-16.245153a78.309966 78.309966 0 0 1 7.63661-14.752542c9.511051-8.74739 11.003661-2.742237 16.904678 4.026576 1.562034 1.770305 16.141017 22.770983 10.934237 21.729627a61.092881 61.092881 0 0 0-47.312271 6.31756 128.433898 128.433898 0 0 1-25.443797 16.141017c-2.325695 0.833085-19.508068 2.464542-17.355932-0.451255 2.950508-4.269559 13.155797-6.942373 17.355932-11.697898-11.17722-4.581966-20.48 5.553898-29.22739 11.489627-9.30278 4.408407-11.454915 12.600407-19.403932 19.785763-3.471186 3.124068-9.997017 3.679458-13.398779 7.810169s-3.714169 10.413559-6.942373 14.093017c-2.186847 2.672814-7.810169 1.041356-10.101153 5.067933-2.98522 5.241492 2.742237 10.101153 1.49261 13.884745-2.290983 6.942373-15.342644 12.669831-20.375864 17.633627l2.082712-2.256271a114.549153 114.549153 0 0 0-15.307932 15.273221 147.039458 147.039458 0 0 1 5.901016 33.913491c-5.241492 15.550915-15.412068-8.469695-19.508067-14.683119-14.162441-21.347797-42.45261-6.942373-61.787119-5.276203a43.008 43.008 0 0 0-33.70522 60.398644 29.886915 29.886915 0 0 0 33.774644 14.440136c12.565695-2.568678 16.349288-20.167593 28.186034-20.48 21.764339-0.590102 0.485966 21.313085-1.388475 29.366237-1.735593 7.463051 2.707525 8.122576 10.413559 9.997017 5.658034 1.353763 13.676475-2.429831 18.570848 0.798373 3.089356 2.048 2.950508 13.22522 7.185356 9.68461a20.167593 20.167593 0 0 0 2.152135 29.331525c9.511051 6.595254 20.827119 0.485966 30.685289 3.019933 18.813831 4.790237 9.823458-1.423186 26.346305-11.420204 11.142508-6.734102 12.982237 1.249627 20.584135 1.284339 5.172068 0 8.469695-7.463051 17.147661-5.276203 6.942373 1.770305 9.858169 7.220068 18.293153 8.504407 3.471186 0.520678 6.942373-1.284339 10.413559-0.937221a85.668881 85.668881 0 0 1 39.84922 20.827119c10.135864 7.428339 16.835254 5.901017 28.672 9.30278 8.643254 2.464542 24.610712 14.995525 23.777628 25.964474 0 1.978576-7.706034 11.836746-8.990373 16.279865a101.393356 101.393356 0 0 0 22.111457-2.22156c-1.49261 1.735593-11.975593 9.094508-11.975593 5.172068 0 2.013288 7.428339 6.109288 9.233356 7.393627 5.484475-17.737763 14.440136-6.317559 25.235525-1.943864a212.644881 212.644881 0 0 0 30.303458 6.282847 82.162983 82.162983 0 0 1 32.837424 14.405424c7.428339 8.192 2.290983 21.486644-3.193492 29.60922-7.185356 10.656542-18.015458 14.787254-22.493288 27.318238a201.328814 201.328814 0 0 0-2.915797 31.032406c-2.742237 14.926102-4.929085 9.68461-14.544271 18.813831-8.087864 7.671322 0 6.352271-11.142508 11.246644s-20.827119 3.471186-28.463729 15.585627a20.306441 20.306441 0 0 0 0.763661-2.325695 100.90739 100.90739 0 0 0-6.386983 16.835254 78.344678 78.344678 0 0 1-15.307932 19.091526c-2.325695 2.464542-23.881763 31.865492-25.096678 29.505085-1.596746-3.089356-18.570847 3.089356-19.369221-1.284339 0.659525 3.679458 0 2.464542 4.061289 4.581966-3.887729 24.298305-14.127729 27.769492-37.870644 28.012474 2.048 11.628475-8.608542 9.30278-13.537628 15.550916a108.856407 108.856407 0 0 0-6.282847 18.605559 180.848814 180.848814 0 0 0-10.413559 17.355932c0 2.186847 3.124068 5.345627 6.039864 8.400271a452.017898 452.017898 0 0 1-51.130576 6.942373c3.228203-4.096 4.026576-7.671322-6.31756-8.157288 2.776949-7.497763 9.268068-11.802034 12.010306-19.056814 1.319051-3.471186 0.208271-4.790237 1.31905-8.192 3.783593-11.73261 2.152136-7.324203 0-16.418711-4.998508-21.382508 1.770305-27.214102 7.601899-46.791594a668.515797 668.515797 0 0 0 9.268067-67.861695 108.613424 108.613424 0 0 0 1.180204-41.654237c-4.061288-11.038373-21.903186-19.716339-30.060475-27.144678a165.367322 165.367322 0 0 1-26.311593-34.954847 171.303051 171.303051 0 0 1-12.739254-20.306441c-7.289492-15.377356 0-6.213424 1.214915-15.307932a99.657763 99.657763 0 0 1 2.429831-25.825627c3.853017-10.170576 13.468203-16.522847 16.626983-26.79756a18.154305 18.154305 0 0 0-8.712678-23.673491c-5.241492-1.700881-11.003661 2.221559-16.245153 1.353763a54.914169 54.914169 0 0 1-21.382508-11.038373c-8.018441-6.109288-11.038373-16.071593-19.577492-21.868475-7.150644-4.824949-12.253288-1.943864-19.92461-4.200135s-12.912814-12.218576-19.36922-15.307933c-9.68461-4.616678-15.134373 2.013288-25.339661 0.659526a148.358508 148.358508 0 0 1-30.025763-14.405424 54.948881 54.948881 0 0 1-33.115119-32.282034 118.020339 118.020339 0 0 0-23.569356-33.010983c-9.823458-12.114441-12.912814-22.423864-28.047186-25.652068-1.770305-0.381831 3.714169 12.704542 4.269559 13.884746a307.75539 307.75539 0 0 0 20.063458 28.498441c9.615186 13.884746 5.519186 16.314576-4.269559 3.019932-11.17722-15.203797-24.298305-30.303458-33.87878-46.409763-3.679458-6.074576-2.950508-10.031729-9.025085-15.793898s-13.502915-8.296136-19.36922-13.607051A80.080271 80.080271 0 0 1 215.282983 323.896407a94.173288 94.173288 0 0 0 2.568678-24.298305 33.844068 33.844068 0 0 0-10.413559-18.119594l-6.144-9.68461a81.815864 81.815864 0 0 0-16.175729-22.389152 387.557966 387.557966 0 0 0-26.381017-19.994034 455.384949 455.384949 0 0 1 182.723254-136.66061 26.866983 26.866983 0 0 0 4.443119 10.691254c5.935729 8.782102 11.559051 8.087864 23.118102 10.413559-1.249627 13.39878-16.904678 13.502915-27.526509 12.079729-12.669831-1.735593-25.999186-5.935729-36.968136 5.137356 6.074576 3.471186 22.701559 17.841898 20.48 3.019932a206.882712 206.882712 0 0 1 35.718509 0.485966c4.755525 0.590102 20.827119 5.935729 25.027254 3.471187 1.805017-1.041356 3.748881-9.962305 5.658034-12.704543-3.471186 0-6.942373-1.700881-10.413559-1.353762 7.844881-10.066441 15.689763-2.186847 25.686779 2.464542-11.003661 6.69939-4.477831 22.736271 6.282848 9.68461 8.851525-10.725966-2.152136-18.501424-13.39878-24.714847 11.316068-14.162441 18.293153-15.44678 28.949695 0.55539 1.770305-9.858169 9.719322-5.901017 18.015458-5.172068v-2.742238c-3.644746 0-7.567186-2.013288-11.177221-1.631457 8.469695-13.502915 3.054644-16.592271 15.169085-21.03539 9.649898-3.471186 37.176407-0.242983 40.543458-9.30278a237.810983 237.810983 0 0 0-59.912678 13.39878c-7.497763 3.783593-16.418712 15.689763-23.916475 7.949017s5.484475-20.827119 12.218576-24.610712h-1.596745a448.893831 448.893831 0 0 1 156.20339-5.658034c-6.942373 3.679458-1.805017 6.144-6.942373 9.892882a189.978034 189.978034 0 0 1-38.53017 17.633627c14.683119 0 50.26278 13.884746 57.101017-6.942373l-14.231864-2.186848a124.580881 124.580881 0 0 1 29.088542-14.093017 452.955119 452.955119 0 0 1 240.136678 132.599322h-1.353763z m82.85722 179.772746c0.833085-1.805017 2.811661-2.395119 3.471186-3.887729 1.700881-3.124068 1.319051-5.241492 3.471187-7.914305s5.310915-3.471186 7.810169-5.866305a9.163932 9.163932 0 0 0 2.048-2.60339 448.928542 448.928542 0 0 1 17.946034 65.258305s-0.208271 0.416542-0.38183 0.520678a37.80122 37.80122 0 0 1-9.754034 1.978576 19.056814 19.056814 0 0 1-12.773966-6.491118 60.225085 60.225085 0 0 1-10.968949-11.975594c-2.881085-4.547254-1.11078-9.233356-0.902509-14.440135 0-4.373695-1.943864-10.621831 0-14.578983z m5.866305 234.756339a139.715254 139.715254 0 0 1-25.409085-27.769492c-6.664678-10.413559-2.568678-21.41722-2.082712-33.496949 0.416542-10.170576-4.547254-24.610712-0.242983-33.774644 1.978576-4.165424 6.525831-5.553898 8.400272-8.990373 3.991864-7.25478 3.089356-12.149153 7.983728-18.397288s12.288-8.330847 18.119594-13.572339 5.935729-9.858169 9.823457-16.904678a63.904542 63.904542 0 0 1 15.793898-18.258441 453.71878 453.71878 0 0 1-10.101152 185.326644 57.968814 57.968814 0 0 1-22.215593-14.127728z" fill="#D21D27" p-id="83527"></path></svg>