<?xml version="1.0" standalone="no"?><!DOCTYPE svg PUBLIC "-//W3C//DTD SVG 1.1//EN" "http://www.w3.org/Graphics/SVG/1.1/DTD/svg11.dtd"><svg t="1733208727580" class="icon" viewBox="0 0 1024 1024" version="1.1" xmlns="http://www.w3.org/2000/svg" p-id="2654" xmlns:xlink="http://www.w3.org/1999/xlink" width="256" height="256"><path d="M398.882133 525.4144L30.446933 338.158933a55.842133 55.842133 0 0 1 0-99.464533l368.776534-187.562667a156.194133 156.194133 0 0 1 141.243733-0.238933l358.4 180.906667c44.8512 22.6304 45.090133 87.04 0.341333 109.943466l-358.5024 183.432534a156.194133 156.194133 0 0 1-141.892266 0.238933h0.068266z" fill="#046FD7" p-id="2655"></path><path d="M468.7872 749.124267a236.9536 236.9536 0 0 1-105.642667-24.8832l-333.960533-167.594667a52.565333 52.565333 0 0 1-23.278933-69.5296 50.517333 50.517333 0 0 1 68.130133-23.688533l333.9264 167.697066a136.3968 136.3968 0 0 0 122.197333-0.341333l328.157867-167.0144a50.3808 50.3808 0 0 1 68.266667 23.210667c12.526933 25.770667 2.389333 56.866133-22.8352 69.700266l-328.0896 166.912c-33.109333 16.7936-69.7344 25.565867-106.871467 25.531734z" fill="#046FD7" p-id="2656"></path><path d="M468.7872 966.8608a231.867733 231.867733 0 0 1-105.642667-25.4976L29.184 769.911467c-25.122133-12.970667-35.5328-44.714667-23.278933-71.099734a50.107733 50.107733 0 0 1 68.130133-24.302933l333.9264 171.451733a133.461333 133.461333 0 0 0 122.197333-0.341333l328.157867-170.939733a49.834667 49.834667 0 0 1 68.266667 23.893333c12.526933 26.282667 2.389333 58.1632-22.8352 71.202133l-328.0896 170.871467a231.492267 231.492267 0 0 1-106.871467 26.2144z" fill="#046FD7" p-id="2657"></path><path d="M1024 748.2368A216.644267 216.644267 0 1 1 590.677333 748.2368a216.6784 216.6784 0 0 1 433.322667 0" fill="#FFFFFF" p-id="2658"></path><path d="M999.424 748.202667a192.1024 192.1024 0 1 1-384.170667 0 192.1024 192.1024 0 0 1 384.170667 0" fill="#046FD7" p-id="2659"></path><path d="M788.138667 740.420267h-68.539734a11.4688 11.4688 0 0 1-11.434666-11.434667V660.48c0-6.280533 5.12-11.400533 11.434666-11.400533h68.539734c6.280533 0 11.400533 5.12 11.400533 11.400533v68.539733c0 6.280533-5.12 11.434667-11.400533 11.434667z m0.546133 113.664h-67.925333a11.4688 11.4688 0 0 1-11.4688-11.434667v-67.959467c0-6.280533 5.154133-11.434667 11.434666-11.434666h67.959467c6.280533 0 11.434667 5.12 11.434667 11.434666v67.925334c0 6.314667-5.12 11.4688-11.434667 11.4688z m113.664 0.546133h-68.539733a11.4688 11.4688 0 0 1-11.434667-11.400533v-68.539734c0-6.280533 5.154133-11.434667 11.434667-11.434666h68.539733c6.280533 0 11.434667 5.12 11.434667 11.434666v68.539734c0 6.280533-5.154133 11.400533-11.434667 11.400533z m11.434667-171.895467c0-2.8672-2.8672-5.12-5.7344-5.12-2.833067 0-5.12 2.2528-5.700267 5.12v34.269867c0 6.280533-5.12 11.9808-11.9808 11.9808h-45.124267a12.049067 12.049067 0 0 1-12.014933-11.9808v-45.124267a12.4928 12.4928 0 0 1 12.561067-11.434666h33.723733c3.413333 0 5.700267-2.286933 5.700267-5.700267s-2.286933-5.700267-5.700267-5.700267h-45.704533a11.4688 11.4688 0 0 0-11.434667 11.400534v68.539733c0 6.280533 5.154133 11.434667 11.434667 11.434667h68.539733c6.280533 0 11.434667-5.12 11.434667-11.434667v-46.250667z" fill="#FFFFFF" p-id="2660"></path></svg>