<?xml version="1.0" standalone="no"?><!DOCTYPE svg PUBLIC "-//W3C//DTD SVG 1.1//EN" "http://www.w3.org/Graphics/SVG/1.1/DTD/svg11.dtd"><svg t="1733208733234" class="icon" viewBox="0 0 1059 1024" version="1.1" xmlns="http://www.w3.org/2000/svg" p-id="2821" xmlns:xlink="http://www.w3.org/1999/xlink" width="264.75" height="256"><path d="M1051.17131 820.171034L922.394483 82.696828A97.412414 97.412414 0 0 0 829.775448 0H229.605517c-48.004414 1.915586-87.128276 38.073379-93.086896 84.877241L8.077241 820.241655C3.239724 835.001379 0 850.493793 0 866.85131c0 83.279448 67.795862 150.74869 151.278345 150.74869h756.683034c83.482483 0 151.348966-67.469241 151.348966-150.757517 0-16.41931-3.310345-31.841103-8.139035-46.671449z m-635.056551-443.383172c0-62.375724 50.846897-113.081379 113.540413-113.081379 62.702345 0 113.478621 50.705655 113.478621 113.081379 41.842759 0 75.670069 33.765517 75.670069 75.475862 0 41.710345-33.82731 75.475862-75.670069 75.475862H416.105931c-41.701517 0-75.608276-33.765517-75.608276-75.475862 0-41.710345 33.897931-75.475862 75.617104-75.475862z m491.84662 565.46869H151.278345c-41.639724 0-75.608276-33.765517-75.608276-75.405242 0-41.516138 33.968552-75.343448 75.617103-75.343448h756.674207c41.710345 0 75.670069 33.82731 75.670069 75.343448 0 41.639724-33.959724 75.405241-75.670069 75.405242z m-37.799724-113.010759c-20.921379 0-37.808552 16.878345-37.808552 37.605517a37.720276 37.720276 0 0 0 37.799725 37.667311 37.720276 37.720276 0 0 0 37.808551-37.667311c0-20.727172-16.948966-37.605517-37.799724-37.605517z" fill="#378EFB" fill-opacity=".656" p-id="2822"></path></svg>