<?xml version="1.0" standalone="no"?><!DOCTYPE svg PUBLIC "-//W3C//DTD SVG 1.1//EN" "http://www.w3.org/Graphics/SVG/1.1/DTD/svg11.dtd"><svg t="1774095172187" class="icon" viewBox="0 0 1024 1024" version="1.1" xmlns="http://www.w3.org/2000/svg" p-id="91403" xmlns:xlink="http://www.w3.org/1999/xlink" width="256" height="256"><path d="M512 0C228.8 0 0 228.8 0 512s228.8 512 512 512 512-228.8 512-512S795.2 0 512 0z m0 816c-168 0-304-136-304-304s136-304 304-304 304 136 304 304-136 304-304 304z" fill="#C8010B" p-id="91404"></path><path d="M640 328c-59.2-40-137.6-27.2-177.6 30.4-32 46.4-27.2 107.2 6.4 150.4l-104 150.4c-11.2 17.6-8 40 9.6 52.8l1.6 1.6c12.8 9.6 30.4 8 43.2 0l65.6-11.2-11.2-62.4 8-12.8 62.4-11.2-11.2-60.8c51.2 16 110.4-1.6 140.8-48 41.6-60.8 25.6-139.2-33.6-179.2z m-35.2 128c-16 22.4-46.4 28.8-70.4 12.8-24-16-28.8-48-14.4-70.4 16-22.4 46.4-28.8 70.4-12.8 24 16 30.4 48 14.4 70.4z" fill="#C8010B" p-id="91405"></path></svg>