<?xml version="1.0" standalone="no"?><!DOCTYPE svg PUBLIC "-//W3C//DTD SVG 1.1//EN" "http://www.w3.org/Graphics/SVG/1.1/DTD/svg11.dtd"><svg t="1756371804055" class="icon" viewBox="0 0 3339 1024" version="1.1" xmlns="http://www.w3.org/2000/svg" p-id="29150" xmlns:xlink="http://www.w3.org/1999/xlink" width="834.75" height="256"><path d="M1176.585 1009.284l169.06-992.044h270.403l-169.177 992.044zM2427.584 41.666C2374.009 21.568 2290.069 0 2185.236 0c-267.184 0-455.395 134.55-456.997 327.387-1.505 142.547 134.363 222.068 236.931 269.52 105.25 48.624 140.636 79.638 140.134 123.057-0.668 66.497-84.05 96.878-161.773 96.878-108.228 0-165.725-15.036-254.525-52.075l-34.845-15.77-37.951 222.082c63.157 27.69 179.945 51.685 301.208 52.926 284.237 0 468.758-133.01 470.856-338.931 1.019-112.85-71.022-198.736-227.023-269.536-94.516-45.892-152.398-76.515-151.785-122.985 0-41.235 48.994-85.329 154.85-85.329 88.425-1.373 152.475 17.91 202.38 38.007l24.234 11.448 36.654-215.013m693.384-23.478h-208.942c-64.728 0-113.165 17.665-141.594 82.267l-401.582 909.143h283.943s46.43-122.24 56.93-149.079c31.028 0 306.863 0.426 346.299 0.426 8.088 34.728 32.899 148.653 32.899 148.653h250.907l-218.86-991.41m-333.433 639.42c22.364-57.158 107.732-277.315 107.732-277.315-1.596 2.64 22.197-57.436 35.854-94.683l18.279 85.531s51.775 236.804 62.595 286.461h-224.46zM949.795 17.964L685.064 694.464l-28.207-137.479C607.575 398.501 454.027 226.8 282.367 140.84l242.064 867.588 286.091-0.33 425.699-990.132H949.795" fill="#0057A0" p-id="29151"></path><path d="M439.472 17.351H3.451L0 37.991c339.22 82.116 563.68 280.558 656.852 518.994l-94.81-455.881c-16.368-62.818-63.841-81.563-122.57-83.753" fill="#FAA61A" p-id="29152"></path></svg>