<?xml version="1.0" standalone="no"?><!DOCTYPE svg PUBLIC "-//W3C//DTD SVG 1.1//EN" "http://www.w3.org/Graphics/SVG/1.1/DTD/svg11.dtd"><svg t="1756362803604" class="icon" viewBox="0 0 1024 1024" version="1.1" xmlns="http://www.w3.org/2000/svg" p-id="15548" xmlns:xlink="http://www.w3.org/1999/xlink" width="256" height="256"><path d="M561.92 551.962a32.256 32.256 0 1 0 64.512 0 32.256 32.256 0 0 0-64.512 0zM474.7 374.144a39.475 39.475 0 1 0 78.951 0 39.475 39.475 0 0 0-78.95 0z m-170.982 0a39.475 39.475 0 1 0 78.95 0 39.475 39.475 0 0 0-78.95 0zM723.38 551.962a32.256 32.256 0 1 0 64.512 0 32.256 32.256 0 0 0-64.512 0z" fill="#52BD33" p-id="15549"></path><path d="M868.096 0H155.904A155.878 155.878 0 0 0 0 155.904v712.192A155.878 155.878 0 0 0 155.878 1024h712.218A155.904 155.904 0 0 0 1024 868.096V155.904A155.904 155.904 0 0 0 868.096 0zM422.605 672.947c-32.615 0-58.855-6.656-91.52-13.107l-91.392 45.824 26.163-78.643C200.448 581.299 161.28 522.394 161.28 450.61c0-124.339 117.683-222.285 261.325-222.285 128.46 0 241.05 78.234 263.68 183.527a226.227 226.227 0 0 0-25.165-1.536c-124.16 0-222.208 92.672-222.208 206.899a195.209 195.209 0 0 0 8.115 54.707c-8.09 0.64-16.23 1.024-24.422 1.024z m385.485 91.546l19.635 65.254-71.68-39.245c-26.112 6.554-52.378 13.108-78.413 13.108-124.34 0-222.26-84.992-222.26-189.645 0-104.5 97.92-189.645 222.26-189.645 117.427 0 221.952 85.171 221.952 189.645 0.026 58.982-39.04 111.18-91.494 150.528z" fill="#52BD33" p-id="15550"></path></svg>