<svg id="ai" data-name="ai" xmlns="http://www.w3.org/2000/svg" viewBox="0 0 256 256"><defs><style>.cls-1{fill:#ff860d;}.cls-2{fill:#261402;}.cls-3{fill:#f9f9f9;}</style></defs><title>ai</title><path class="cls-1" d="M43.32015.84846a32.6999,32.6999,0,0,1,9.306-.82838Q111.2643.04653,169.90247.0289A26.241,26.241,0,0,1,187.91516,7.731q18.17573,17.951,36.44838,35.81387a25.67018,25.67018,0,0,1,7.72854,18.33875q0,84.5865-.00882,169.19062c-.03525,13.30683-12.02021,24.83354-25.22129,24.89523q-74.89718.01322-149.80318,0c-5.67523-.02644-11.59721.48468-16.94638-1.833a25.73,25.73,0,0,1-16.19732-23.8201q-.03964-102.28635,0-204.56387C23.66834,14.26985,32.18119,3.48338,43.32015.84846ZM45.84933,9.282a17.13908,17.13908,0,0,0-11.7294,9.56153c-1.63912,3.26061-1.42762,6.97948-1.41,10.51328q.05288,100.87194.03525,201.73506C32.895,240.00127,41.24041,247.3685,50,247.20106q78.42658-.03966,156.85316-.02644c8.43353-.23793,16.36476-7.376,16.41763-16.01226q.03966-84.62614.01763-169.2523c.2115-4.78517-2.15906-9.3324-5.58711-12.55777q-18.13607-17.5941-36.03419-35.4085a17.68128,17.68128,0,0,0-11.8704-5.12886q-59.89395-.01322-119.77028-.00881A15.515,15.515,0,0,0,45.84933,9.282Z"/><path class="cls-1" d="M158.71945,50.07491c2.82-.68737,6.1511-.62568,8.48641,1.32188,4.07136,3.41042,3.72767,11.14777-1.20731,13.61526-3.7453,1.974-9.27953,1.18087-11.40334-2.77593C152.207,57.98851,153.8814,51.69641,158.71945,50.07491Z"/><path class="cls-1" d="M103.571,52.00485c5.95723-.09694,11.91446-.07932,17.87169-.00882q11.7382,39.80152,23.44117,79.62067a64.08749,64.08749,0,0,1,2.00043,7.5611c-4.935.09694-9.87.03525-14.81376.03525-2.582-8.14272-4.49436-16.47932-6.87373-24.68373-8.33659.03525-16.67319-.00881-25.00979.02644-2.1943,8.222-4.24761,16.47932-6.5741,24.65729-4.5208-.00881-9.05041.0705-13.5712-.05287a27.02672,27.02672,0,0,1,.67856-3.23418c7.35841-25.57379,14.61988-51.18283,21.96067-76.76543A35.48628,35.48628,0,0,0,103.571,52.00485Zm-.00881,49.6847h18.40044c-3.11962-12.10833-6.43311-24.18142-9.27072-36.36025Q108.67344,83.6372,103.5622,101.68955Z"/><path class="cls-1" d="M154.54234,74.82914c4.72348-.25556,9.46459-.03525,14.19689-.13218a24.56362,24.56362,0,0,1,.3525,4.89092c-.17625,19.87212.24675,39.76186-.2115,59.61636-4.8028-.09694-9.62322.29962-14.40839-.2115C154.45421,117.60487,154.31321,96.217,154.54234,74.82914Z"/><path class="cls-2" d="M45.84933,9.282a15.515,15.515,0,0,1,4.17711-.47587q59.88073.03965,119.77028.00881a17.68128,17.68128,0,0,1,11.8704,5.12886q17.93778,17.77916,36.03419,35.4085c3.428,3.22537,5.79861,7.7726,5.58711,12.55777q-.03966,84.62616-.01763,169.2523c-.05287,8.63622-7.9841,15.77433-16.41763,16.01226q-78.42657.07932-156.85316.02644c-8.75959.16744-17.105-7.19979-17.25481-16.1092q-.09253-100.87194-.03525-201.73506c-.01763-3.5338-.22913-7.25267,1.41-10.51328A17.13908,17.13908,0,0,1,45.84933,9.282ZM158.71945,50.07491c-4.838,1.6215-6.51242,7.9136-4.12424,12.16121,2.12381,3.9568,7.658,4.74992,11.40334,2.77593,4.935-2.46749,5.27867-10.20484,1.20731-13.61526C164.87055,49.44923,161.53944,49.38754,158.71945,50.07491ZM103.571,52.00485a35.48628,35.48628,0,0,1-.89006,7.15572c-7.34079,25.5826-14.60226,51.19164-21.96067,76.76543a27.02672,27.02672,0,0,0-.67856,3.23418c4.52079.12337,9.0504.04406,13.5712.05287,2.32649-8.178,4.3798-16.43526,6.5741-24.65729,8.3366-.03525,16.6732.00881,25.00979-.02644,2.37937,8.20441,4.29168,16.541,6.87373,24.68373,4.94379,0,9.87878.06169,14.81376-.03525a64.08749,64.08749,0,0,0-2.00043-7.5611Q133.15888,91.81518,121.4427,51.996C115.48547,51.92553,109.52824,51.90791,103.571,52.00485Zm50.97133,22.82429c-.22913,21.38787-.08813,42.77573-.0705,64.1636,4.78517.51112,9.60559.11456,14.40839.2115.45825-19.8545.03525-39.74424.2115-59.61636a24.56362,24.56362,0,0,0-.3525-4.89092C164.00693,74.79389,159.26582,74.57358,154.54234,74.82914ZM115.97016,181.34547c-.16744,3.73649-1.61269,7.2086-2.54681,10.78646-2.5468,9.0416-5.19936,18.05676-7.68447,27.116,2.06212.00882,4.11542.00882,6.17754,0,.9165-3.54261,1.88587-7.07641,2.79355-10.619,3.59549.0705,7.191.01762,10.78647.05287.86362,3.525,1.89468,7.00592,2.80236,10.52209,2.28243.07931,4.56486.08813,6.83848-.04406-3.85986-12.60183-7.42891-25.29179-11.26234-37.90243C121.24,181.23972,118.60508,181.20447,115.97016,181.34547Zm24.06685.00881c.12338,12.61065.04406,25.2301.04406,37.84956,2.13262.05288,4.26524.06169,6.40667.05288q.02644-18.99528-.00881-37.99937C144.32868,181.21328,142.17844,181.23091,140.037,181.35428Z"/><path class="cls-2" d="M103.5622,101.68955q5.076-18.04353,9.12972-36.36025c2.83761,12.17883,6.1511,24.25192,9.27072,36.36025Z"/><path class="cls-2" d="M116.2874,203.033c1.24256-5.37561,2.78475-10.68071,3.96562-16.07395.58162,5.44611,2.5468,10.60141,3.65717,15.94176A48.90247,48.90247,0,0,0,116.2874,203.033Z"/><path class="cls-3" d="M115.97016,181.34547c2.63492-.141,5.26985-.10575,7.90478-.08812,3.83343,12.61064,7.40248,25.3006,11.26234,37.90243-2.27362.13219-4.556.12337-6.83848.04406-.90768-3.51617-1.93874-6.9971-2.80236-10.52209-3.59549-.03525-7.191.01763-10.78647-.05287-.90768,3.54261-1.877,7.07641-2.79355,10.619-2.06212.00882-4.11542.00882-6.17754,0,2.48511-9.05921,5.13767-18.07437,7.68447-27.116C114.35747,188.55407,115.80272,185.082,115.97016,181.34547Zm.31724,21.68749a48.90247,48.90247,0,0,1,7.62279-.13219c-1.11037-5.34035-3.07555-10.49565-3.65717-15.94176C119.07215,192.35225,117.53,197.65735,116.2874,203.033Z"/><path class="cls-3" d="M140.037,181.35428c2.14143-.12337,4.29167-.141,6.44192-.09693q.06609,18.99528.00881,37.99937c-2.14143.00881-4.274,0-6.40667-.05288C140.08107,206.58438,140.16039,193.96493,140.037,181.35428Z"/></svg>