<svg id="eps" data-name="eps" xmlns="http://www.w3.org/2000/svg" viewBox="0 0 256 256"><defs><style>.cls-1{fill:#b3b3b3;}.cls-2{fill:#f5f5f5;}.cls-3{fill:#4b4b4b;}.cls-4{fill:#2c2c2c;}</style></defs><title>eps</title><path class="cls-1" d="M43.874.6291A26.46872,26.46872,0,0,1,49.93714,0q60.18162.06509,120.3741.02169a24.20041,24.20041,0,0,1,11.0417,2.83093c5.35815,2.76585,9.02426,7.71184,13.50385,11.584,8.25416,8.41686,16.86626,16.46494,25.13127,24.8601,3.56848,3.66611,7.75522,6.996,9.78351,11.8335A26.15143,26.15143,0,0,1,232.12525,64.005q-.06507,84.09809-.02169,168.19617c-.141,12.93984-12.1372,23.79715-24.87095,23.78631q-79.24971.01626-158.51027,0c-12.67952-.15185-24.48048-10.96578-24.86011-23.808q-.04881-103.62173-.02169-207.23261C23.67784,13.43877,32.78888,3.01532,43.874.6291ZM44.95861,9.469A17.81393,17.81393,0,0,0,32.52856,27.13786q-.01627,98.17138-.01085,196.33191c.03254,5.0653-.52063,10.54276,2.26692,15.06574,3.32986,6.09571,10.47768,9.06765,17.22419,8.7531,49.91544.08677,99.83088,0,149.74632.04338,3.883-.07592,7.93962-.05423,11.55149-1.71374a16.89184,16.89184,0,0,0,10.11976-15.60806q-.01628-84.11436-.0217-168.23956c.18439-8.406-7.42983-13.34115-12.51682-18.85116-8.02639-7.5166-15.58637-15.52129-23.60191-23.04874-3.72034-3.5251-6.94174-7.89623-11.866-9.816C171.42842,8.265,166.94883,8.74225,162.697,8.688q-52.61622.03253-105.22158.01085C53.31039,8.764,49.026,8.31924,44.95861,9.469Z"/><path class="cls-2" d="M44.95861,9.469c4.06743-1.14973,8.35178-.705,12.51683-.7701q52.61621,0,105.22158-.01085c4.25181.05423,8.7314-.423,12.7229,1.36666,4.9243,1.91982,8.1457,6.291,11.866,9.816,8.01554,7.52745,15.57552,15.53214,23.60191,23.04874,5.087,5.51,12.70121,10.44515,12.51682,18.85116q.08136,84.11436.0217,168.23956a16.89184,16.89184,0,0,1-10.11976,15.60806c-3.61187,1.65951-7.66845,1.63782-11.55149,1.71374-49.91544-.04338-99.83088.04339-149.74632-.04338-6.74651.31455-13.89433-2.65739-17.22419-8.7531-2.78755-4.523-2.23438-10.00044-2.26692-15.06574q.03255-98.15511.01085-196.33191A17.81393,17.81393,0,0,1,44.95861,9.469Zm66.43461,64.29785q-23.70495.03255-47.4099-.01084c-1.49682.10846-3.319-.19524-4.36028,1.16057-2.12591,2.21268-1.063,5.74863,1.09549,7.53829,12.33243-.01084,24.66487.0217,37.00815-.01084-10.879,7.01766-19.59957,17.53874-23.55853,29.94709-3.2214.705-6.497,1.64867-9.10019,3.78542-7.23459,5.369-8.85071,16.80118-3.30817,23.92731,7.137,8.92664,23.22229,8.66633,29.20954-1.43174,5.44492-8.50363,1.32327-20.81437-7.83115-24.81671C87.954,100.5576,99.15841,90.17753,112.28263,85.25323c2.88517,5.90048,8.905,10.42346,15.64061,10.27161,6.95259.39047,13.24354-4.18674,16.30224-10.21737a48.43744,48.43744,0,0,1,28.5479,28.5262,24.47871,24.47871,0,0,0-6.67057,5.62932c-4.96769,6.356-4.7833,16.64933,1.3558,22.181,6.80074,6.20418,18.48238,6.52957,25.1855-.01085,5.87879-5.45577,6.33434-15.261,1.81136-21.69293-2.80923-4.32774-7.76607-6.70312-12.7446-7.47322a55.32947,55.32947,0,0,0-22.90774-30.023c12.1372.03254,24.28524-.01085,36.43329.02169,3.0587-2.09337,3.10209-7.97215-1.063-8.60125-16.33478-.18439-32.69125-.08677-49.03688-.03254-2.06082-7.5166-9.17611-13.54723-17.15911-13.12422C120.22225,60.49075,113.35644,66.43461,111.39322,73.76682ZM91.09948,180.07305v39.04728c6.73566-.01084,13.47132.0217,20.207-.02169.3037-1.88729.58571-3.78542.86772-5.6727-4.946-.03254-9.90282-.0217-14.84881-.01085-.01085-3.5251-.01085-7.03936-.01085-10.56446h12.51682c0-1.909-.01084-3.80711-.01084-5.70524q-6.24758-.01628-12.506-.01085v-11.3454c4.63144,0,9.26288.02169,13.88348-.04339-.15185-1.89813-.3254-3.78541-.50979-5.6727Zm27.1921.19524c-.1627,12.95068-.03254,25.90136-.07593,38.852h5.933c0-4.31689,0-8.64463-.01085-12.96153,4.36028.01085,9.16527-.20608,12.69037-3.12378,5.09784-4.447,5.40154-12.95068,1.77882-18.37391C133.737,178.59793,125.10316,180.149,118.29158,180.26829Zm30.663,2.37537c-4.85922,3.76373-4.69652,11.77927-.282,15.825,3.15632,3.13463,7.91792,4.03489,10.85732,7.419a4.53661,4.53661,0,0,1-1.85475,7.0719c-4.20843,1.29073-8.70971.09762-12.35413-2.15845q.01628,3.23768-.01084,6.48619c5.18461,2.18014,11.49725,2.82008,16.5734.02169,5.54254-3.14547,6.45365-11.5081,2.26691-16.11785-3.13463-3.55764-7.983-4.7616-11.443-7.87453-2.05-1.64867-1.99575-5.34731.40132-6.64889,3.73118-2.25606,8.30839-.88941,12.03958.65079-.0217-2.0066-.04339-4.00235-.06508-6.00894C159.84439,179.80189,153.56429,179.1511,148.95454,182.64366Z"/><path class="cls-2" d="M126.06849,69.78617c5.5534-1.67036,11.64911,3.72034,10.44515,9.47981-.66163,6.64889-10.11975,10.033-14.70781,5.05446C116.90323,79.98185,119.604,70.88166,126.06849,69.78617Z"/><path class="cls-2" d="M73.051,122.01191c6.11741-2.50553,13.352,3.959,11.07425,10.27161-2.08253,6.4211-11.81181,7.343-15.43453,1.81136C65.46928,129.92983,68.25682,123.487,73.051,122.01191Z"/><path class="cls-2" d="M177.09028,122.077c6.03063-2.71162,13.48216,3.69865,11.28032,10.033-2.02829,6.88751-12.8856,7.61422-16.07446,1.31242C169.76891,129.23566,172.77338,123.60634,177.09028,122.077Z"/><path class="cls-2" d="M124.13782,185.47459c2.88516.09762,6.28011-.423,8.60125,1.71374a9.201,9.201,0,0,1,.47725,11.12848c-2.21268,2.71162-5.96556,2.32114-9.0785,2.40791Q124.15409,193.09424,124.13782,185.47459Z"/><path class="cls-3" d="M111.39322,73.76682c1.96322-7.33221,8.829-13.27607,16.58425-13.05914,7.983-.423,15.09829,5.60762,17.15911,13.12422,16.34563-.05423,32.7021-.15185,49.03688.03254,4.16505.6291,4.12166,6.50788,1.063,8.60125-12.14805-.03254-24.29609.01085-36.43329-.02169a55.32947,55.32947,0,0,1,22.90774,30.023c4.97853.7701,9.93537,3.14548,12.7446,7.47322,4.523,6.432,4.06743,16.23716-1.81136,21.69293-6.70312,6.54042-18.38476,6.215-25.1855.01085-6.1391-5.5317-6.32349-15.825-1.3558-22.181a24.47871,24.47871,0,0,1,6.67057-5.62932,48.43744,48.43744,0,0,0-28.5479-28.5262c-3.0587,6.03063-9.34965,10.60784-16.30224,10.21737-6.73566.15185-12.75544-4.37113-15.64061-10.27161C99.15841,90.17753,87.954,100.5576,83.13818,113.85537c9.15442,4.00234,13.27607,16.31308,7.83115,24.81671-5.98725,10.09807-22.07256,10.35838-29.20954,1.43174-5.54254-7.12613-3.92642-18.55831,3.30817-23.92731,2.60315-2.13675,5.87879-3.0804,9.10019-3.78542,3.959-12.40835,12.67952-22.92943,23.55853-29.94709-12.34328.03254-24.67572,0-37.00815.01084-2.15845-1.78966-3.2214-5.32561-1.09549-7.53829,1.04126-1.35581,2.86346-1.05211,4.36028-1.16057Q87.68827,73.80479,111.39322,73.76682Zm14.67527-3.98065c-6.46449,1.09549-9.16526,10.19568-4.26266,14.53427,4.58806,4.97853,14.04618,1.59443,14.70781-5.05446C137.7176,73.50651,131.62189,68.11581,126.06849,69.78617ZM73.051,122.01191c-4.79414,1.47512-7.58168,7.91792-4.36028,12.083,3.62272,5.53169,13.352,4.60974,15.43453-1.81136C86.403,125.97087,79.16837,119.50638,73.051,122.01191Zm104.03932.06508c-4.3169,1.52935-7.32137,7.15867-4.79414,11.3454,3.18886,6.3018,14.04617,5.57509,16.07446-1.31242C190.57244,125.77564,183.12091,119.36537,177.09028,122.077Z"/><path class="cls-4" d="M91.09948,180.07305H110.6882c.18439,1.88729.35794,3.77457.50979,5.6727-4.6206.06508-9.252.04339-13.88348.04339v11.3454q6.26383,0,12.506.01085c0,1.89813.01084,3.79626.01084,5.70524H97.31451c0,3.5251,0,7.03936.01085,10.56446,4.946-.01085,9.90282-.02169,14.84881.01085-.282,1.88728-.564,3.78541-.86772,5.6727-6.73565.04339-13.47131.01085-20.207.02169Z"/><path class="cls-4" d="M118.29158,180.26829c6.81158-.11931,15.44537-1.67036,20.31543,4.39282,3.62272,5.42323,3.319,13.92686-1.77882,18.37391-3.5251,2.9177-8.33009,3.13463-12.69037,3.12378.01085,4.3169.01085,8.64464.01085,12.96153h-5.933C118.259,206.16965,118.12888,193.219,118.29158,180.26829Zm5.84624,5.2063q.01627,7.61422,0,15.25013c3.11294-.08677,6.86582.30371,9.0785-2.40791a9.201,9.201,0,0,0-.47725-11.12848C130.41793,185.05158,127.023,185.57221,124.13782,185.47459Z"/><path class="cls-4" d="M148.95454,182.64366c4.60975-3.49256,10.88985-2.84177,16.1287-1.33411.02169,2.00659.04338,4.00234.06508,6.00894-3.73119-1.5402-8.3084-2.90685-12.03958-.65079-2.39707,1.30158-2.4513,5.00022-.40132,6.64889,3.46,3.11293,8.30839,4.31689,11.443,7.87453,4.18674,4.60975,3.27563,12.97238-2.26691,16.11785-5.07615,2.79839-11.38879,2.15845-16.5734-.02169q.03254-3.25394.01084-6.48619c3.64442,2.25607,8.1457,3.44918,12.35413,2.15845a4.53661,4.53661,0,0,0,1.85475-7.0719c-2.9394-3.38409-7.701-4.28435-10.85732-7.419C144.258,194.42293,144.09532,186.40739,148.95454,182.64366Z"/></svg>