<svg id="psd" data-name="psd" xmlns="http://www.w3.org/2000/svg" viewBox="0 0 256 256"><defs><style>.cls-1{fill:#31a8ff;}.cls-2{fill:#001e36;}.cls-3{fill:#fff;}</style></defs><title>psd</title><path id="_31A8FF" data-name="31A8FF" class="cls-1" d="M50.33912.10119A26.50249,26.50249,0,0,0,23.92061,26.5197V229.5815A26.50248,26.50248,0,0,0,50.33912,256h155.294a26.50249,26.50249,0,0,0,26.41851-26.41851V62.58924a22.00439,22.00439,0,0,0-1.75474-9.651,25.7243,25.7243,0,0,0-5.2642-7.60385h0L186.526,7.60756l-.09749-.09749a31.95973,31.95973,0,0,0-8.18876-5.2642A31.07143,31.07143,0,0,0,166.54155.00371h.09749Z"/><path id="_001E36" data-name="001E36" class="cls-2" d="M50.33912,8.77738H166.834a24.32557,24.32557,0,0,1,8.09128,1.46228,23.46525,23.46525,0,0,1,5.65415,3.50947h0l38.40918,37.7268a19.68546,19.68546,0,0,1,3.412,4.97174,20.127,20.127,0,0,1,.97485,5.75164V229.484a17.56032,17.56032,0,0,1-17.74231,17.74231H50.33912A17.56032,17.56032,0,0,1,32.5968,229.484V26.5197A17.62088,17.62088,0,0,1,50.33912,8.77738Z"/><g id="PS"><path id="P" class="cls-1" d="M72.76073,135.6057V54.59546c0-.58491.195-.87737.77988-.87737,1.36479,0,2.6321,0,4.38684-.09749,1.85222-.09748,3.89941-.09748,5.94659-.195,2.14468-.09748,4.38685-.09748,6.824-.195s4.77678-.09748,7.11642-.09748c6.434,0,11.79572.77988,16.18256,2.43713a28.71088,28.71088,0,0,1,10.52841,6.434A24.8529,24.8529,0,0,1,130.277,70.973a30.63821,30.63821,0,0,1,1.85222,10.23595c0,6.72648-1.55976,12.38062-4.6793,16.76746A26.39356,26.39356,0,0,1,114.77688,107.53c-5.36169,1.9497-11.2108,2.6321-17.74232,2.6321-1.85222,0-3.11953,0-3.89941-.09749a31.52093,31.52093,0,0,0-3.412-.09748v25.24867a.92115.92115,0,0,1-.87736,1.07235H73.6381C73.05319,136.67805,72.76073,136.2881,72.76073,135.6057Zm17.1574-66.67991v26.4185c1.07234.09748,2.14467.195,3.022.195H97.132a28.92794,28.92794,0,0,0,9.06613-1.46228,13.49252,13.49252,0,0,0,6.434-4.19187c1.65725-1.94971,2.43713-4.6793,2.43713-8.09128a12.85938,12.85938,0,0,0-1.85222-7.01894,11.44761,11.44761,0,0,0-5.55666-4.48432,22.88824,22.88824,0,0,0-9.2611-1.55976c-2.04719,0-3.89941,0-5.36169.09748-1.46227,0-2.6321.0975-3.11953.0975Z"/><path id="S" class="cls-1" d="M181.35931,90.56752a25.48413,25.48413,0,0,0-7.50636-2.6321,44.79109,44.79109,0,0,0-8.77368-.97485,15.04426,15.04426,0,0,0-4.67929.58491,4.10237,4.10237,0,0,0-2.43713,1.55976,4.17449,4.17449,0,0,0-.58492,2.14467,3.35292,3.35292,0,0,0,.77988,2.04719,9.41515,9.41515,0,0,0,2.6321,2.14467q2.77833,1.46229,5.55666,2.6321a57.43324,57.43324,0,0,1,12.08817,5.75163,19.04285,19.04285,0,0,1,6.239,6.53151,19.1099,19.1099,0,0,1-1.16984,18.5222,20.56609,20.56609,0,0,1-8.77367,7.01894,36.09267,36.09267,0,0,1-14.23286,2.53462,56.99469,56.99469,0,0,1-10.72337-.97485,31.8632,31.8632,0,0,1-7.99379-2.53462,1.45358,1.45358,0,0,1-.87737-1.46228V119.81308c0-.195.09748-.58491.29246-.68239a.48165.48165,0,0,1,.68239.09748,35.19514,35.19514,0,0,0,9.74853,3.89941,37.103,37.103,0,0,0,9.2611,1.16982,15.539,15.539,0,0,0,6.53151-1.07233,3.66077,3.66077,0,0,0,2.14468-3.31451,4.01741,4.01741,0,0,0-1.85222-3.11952A35.283,35.283,0,0,0,160.01,113.0866a52.58761,52.58761,0,0,1-11.2108-5.65415,19.78351,19.78351,0,0,1-5.9466-6.72649,17.79164,17.79164,0,0,1-1.85222-7.99378,18.1003,18.1003,0,0,1,10.91834-16.76747c3.70445-1.85222,8.38374-2.72959,13.9404-2.72959a65.55857,65.55857,0,0,1,9.74852.68239,25.40607,25.40607,0,0,1,6.72648,1.85222,1.73408,1.73408,0,0,1,.77989.6824,2.884,2.884,0,0,1,.195.97485V89.78763a1.20347,1.20347,0,0,1-.38993.77989C182.0417,90.76249,181.65177,90.76249,181.35931,90.56752Z"/></g><g id="PSD"><path id="P-2" data-name="P" class="cls-3" d="M94.69491,203.358v13.453H88.45585V180.15648H98.78929c7.31139,0,11.40577,4.19187,11.40577,11.60074S106.00319,203.358,98.78929,203.358Zm0-17.93728v12.57559h4.48432c2.92456,0,4.77678-2.33964,4.77678-6.33654s-1.85222-6.33654-5.06923-6.33654H94.69491Z"/><path id="S-2" data-name="S" class="cls-3" d="M116.33664,215.15368V209.1096a17.89481,17.89481,0,0,0,8.77368,2.72959c3.50946,0,5.9466-1.55977,5.9466-4.38684,0-2.92455-1.85223-4.48433-6.23906-6.53151-5.55666-2.53462-8.77368-5.26419-8.77368-11.2108,0-6.53151,4.38684-10.236,11.21081-10.236a17.05128,17.05128,0,0,1,8.09128,1.9497v5.75163a15.78013,15.78013,0,0,0-7.60385-2.14468c-3.412,0-5.55666,1.75474-5.55666,4.58181,0,2.6321,1.65724,4.48433,6.14157,6.434,5.55666,2.53462,8.87116,5.2642,8.87116,11.11331,0,6.53151-4.19187,10.236-11.40577,10.236A19.89025,19.89025,0,0,1,116.33664,215.15368Z"/><path id="D" class="cls-3" d="M143.82748,216.71344V180.059h9.846c10.82087,0,16.96243,7.11643,16.96243,18.32723s-6.14157,18.32723-16.86495,18.32723h-9.9435Zm6.239-31.29276v26.02856H153.771c6.629,0,10.52841-5.06923,10.52841-13.063,0-7.89631-3.89941-13.063-10.72338-13.063h-3.50948Z"/></g></svg>