<svg id="pdf" data-name="pdf" xmlns="http://www.w3.org/2000/svg" viewBox="0 0 256 256"><defs><style>.cls-1{fill:#ff2116;}.cls-2{fill:#f5f5f5;}.cls-3{fill:#2c2c2c;}</style></defs><title>pdf</title><path class="cls-1" d="M50.32946.00088a26.48094,26.48094,0,0,0-26.439,26.447V229.553A26.48093,26.48093,0,0,0,50.32946,256H205.63759a26.48066,26.48066,0,0,0,26.439-26.447V62.544a21.89241,21.89241,0,0,0-1.707-9.64915,26.73759,26.73759,0,0,0-5.2333-7.56545l-.02421-.03281L186.57954,7.50143q-.03172-.03235-.06412-.064a30.48238,30.48238,0,0,0-8.16652-5.22529A29.84257,29.84257,0,0,0,166.68817.0082L166.77633,0Z"/><path class="cls-2" d="M50.32946,8.68829h116.447q.04409.00046.08816,0A24.81465,24.81465,0,0,1,174.927,10.195a22.09721,22.09721,0,0,1,5.618,3.55034l.01605.01641,38.43633,37.707a21.20908,21.20908,0,0,1,3.43811,4.96082,18.8328,18.8328,0,0,1,.96171,5.74621q-.00606.092-.00821.18427V229.55329a17.62024,17.62024,0,0,1-17.75156,17.75958H50.32946a17.62,17.62,0,0,1-17.75157-17.75958V26.44824A17.62,17.62,0,0,1,50.32946,8.68864Z"/><path class="cls-1" d="M75.8731,152.42072c-5.97723-5.97726.48969-14.1908,18.04006-22.91268l11.04295-5.48788,4.3021-9.41292c2.36617-5.17708,5.89763-13.62442,7.84772-18.77176l3.54566-9.35888-2.44335-6.92607c-3.00431-8.51627-4.07564-21.31408-2.16949-25.91595,2.58191-6.23327,11.03905-5.59376,14.38722,1.088,2.6149,5.2184,2.34757,14.66876-.7521,26.58714l-2.54117,9.771,2.23835,3.79982a131.88918,131.88918,0,0,0,7.99117,11.02729l5.94665,7.39709,7.39978-.96565c23.50779-3.06752,31.55946,2.146,31.55946,9.62123,0,9.43433-18.45864,10.213-33.95923-.67389a47.07533,47.07533,0,0,1-5.88274-4.88293s-9.71058,1.97689-14.49162,3.26556c-4.93506,1.33017-7.39717,2.16322-14.62623,4.6033,0,0-2.53641,3.68343-4.18922,6.36119-6.14912,9.9624-13.32886,18.21858-18.45633,21.22348C84.92182,155.22163,78.90335,155.451,75.8731,152.42072Zm9.38034-3.35109c3.3599-2.07656,10.16042-10.11974,14.86792-17.58476l1.90594-3.02244L93.349,132.82581c-13.40362,6.73924-19.5355,13.09084-16.347,16.9328,1.79121,2.15827,3.934,1.97933,8.25144-.689Zm87.06409-24.43832c3.28629-2.30185,2.80924-6.9404-.90609-8.8106-2.89143-1.45547-5.22188-1.75456-12.73317-1.64368-4.6158.31475-12.0381,1.245-13.29605,1.528,0,0,4.07751,2.81807,5.8878,3.85391a78.2409,78.2409,0,0,0,12.54179,5.24013c4.21757,1.29092,6.65719,1.15481,8.50572-.1678Zm-35.00734-14.55006a85.89918,85.89918,0,0,1-7.51527-9.69693,54.03105,54.03105,0,0,1-4.21117-6.2734s-2.05,6.59372-3.73187,10.56165l-5.24713,12.96956-1.5213,2.94186s8.08777-2.65184,12.20275-3.72669c4.35839-1.1384,13.20387-2.87781,13.20387-2.87781ZM126.02867,64.83944c.50729-4.2572.72259-8.508-.6452-10.65163-3.79391-4.1475-8.37307-.68885-7.59742,9.17156a67.25857,67.25857,0,0,0,2.18673,12.48257l2.0031,6.35448,1.40981-4.786a125.597,125.597,0,0,0,2.643-12.571Z"/><path class="cls-3" d="M86.03793,180.10005h9.70424a26.37838,26.37838,0,0,1,7.55094.89,8.86562,8.86562,0,0,1,4.88082,3.876,12.73837,12.73837,0,0,1,1.981,7.20643,13.10333,13.10333,0,0,1-1.6078,6.66091,9.44038,9.44038,0,0,1-4.33533,4.01952q-2.69881,1.23463-8.32612,1.23457H92.52657v15.3029H86.03794Zm6.48863,5.02437v13.66636h3.21561q4.30662,0,5.94313-1.60785,1.66523-1.60787,1.66522-5.22536a7.84249,7.84249,0,0,0-1.091-4.36407,4.47443,4.47443,0,0,0-2.4117-2.06717,15.08783,15.08783,0,0,0-4.10564-.40216Zm22.59537-5.02437h8.81421q6.40251,0,10.221,2.26816a14.10384,14.10384,0,0,1,5.79959,6.74706,24.29281,24.29281,0,0,1,1.981,9.93391,27.73107,27.73107,0,0,1-1.78007,10.24973,16.299,16.299,0,0,1-5.39762,7.23511q-3.61755,2.75628-10.33588,2.75627h-9.30229Zm6.48864,5.19662v28.79695h2.6988q5.656.00009,8.21129-3.90469,2.55525-3.93335,2.55526-10.47939,0-14.41278-10.76654-14.41281Zm26.55746-5.19662H169.9308v5.19662H154.65668v11.714h12.23078v5.19668H154.65668v17.08293H148.168Z"/></svg>