<svg id="android" data-name="android" xmlns="http://www.w3.org/2000/svg" viewBox="0 0 256 256"><defs><style>.cls-1,.cls-5{fill:#fff;}.cls-1{stroke:#797774;stroke-linejoin:round;stroke-width:4px;}.cls-2,.cls-3,.cls-4{fill:#77c159;}.cls-2,.cls-3,.cls-5{stroke:#fff;}.cls-2{stroke-width:6.83487px;}.cls-3,.cls-5{stroke-width:3.41744px;}</style></defs><title>apk</title><polygon class="cls-1" points="222.5 254 33.5 254 33.5 2 167.5 2 222.5 57 222.5 254"/><polygon class="cls-1" points="222.5 57 167.5 57 167.5 2 222.5 57"/><g id="b"><ellipse class="cls-2" cx="128" cy="108.83192" rx="43.19259" ry="39.87008"/><rect class="cls-2" x="84.80741" y="98.8644" width="86.38518" height="86.38518" rx="10.44216"/></g><g id="a"><path class="cls-3" d="M99.70015,58.38739h0a3.08518,3.08518,0,0,0-1.20263,4.19409l16.79817,30.3047a3.08518,3.08518,0,0,0,4.19409,1.20263h0a3.08518,3.08518,0,0,0,1.20263-4.19409L103.89424,59.59A3.08518,3.08518,0,0,0,99.70015,58.38739Z"/><path id="c" class="cls-3" d="M184.48262,108.83192h0a11.39144,11.39144,0,0,0-11.39145,11.39145V160.5681a11.39145,11.39145,0,0,0,11.39145,11.39145h0a11.39146,11.39146,0,0,0,11.39145-11.39145V120.22337A11.39145,11.39145,0,0,0,184.48262,108.83192Z"/><path class="cls-3" d="M144.13789,154.87237h0a11.39144,11.39144,0,0,0-11.39145,11.39145v40.34473A11.39145,11.39145,0,0,0,144.13789,218h0a11.39145,11.39145,0,0,0,11.39145-11.39145V166.26382A11.39144,11.39144,0,0,0,144.13789,154.87237Z"/></g><path class="cls-3" d="M156.29985,58.38739h0a3.08518,3.08518,0,0,1,1.20263,4.19409l-16.79817,30.3047a3.08518,3.08518,0,0,1-4.19409,1.20263h0a3.08518,3.08518,0,0,1-1.20263-4.19409L152.10576,59.59A3.08518,3.08518,0,0,1,156.29985,58.38739Z"/><path class="cls-3" d="M71.51738,108.83192h0a11.39144,11.39144,0,0,1,11.39145,11.39145V160.5681a11.39145,11.39145,0,0,1-11.39145,11.39145h0A11.39146,11.39146,0,0,1,60.12593,160.5681V120.22337A11.39145,11.39145,0,0,1,71.51738,108.83192Z"/><path class="cls-3" d="M111.86211,154.87237h0a11.39144,11.39144,0,0,1,11.39145,11.39145v40.34473A11.39145,11.39145,0,0,1,111.86211,218h0a11.39145,11.39145,0,0,1-11.39145-11.39145V166.26382A11.39144,11.39144,0,0,1,111.86211,154.87237Z"/><ellipse class="cls-4" cx="128" cy="108.83192" rx="43.19259" ry="39.87008"/><rect class="cls-4" x="84.80741" y="98.8644" width="86.38518" height="86.38518" rx="10.44216"/><path class="cls-5" d="M82.90883,110.49317h90.18234"/><circle class="cls-5" cx="108.06496" cy="89.37152" r="1.89858"/><circle class="cls-5" cx="147.93504" cy="89.37152" r="1.89858"/></svg>