<svg id="mac" data-name="mac" xmlns="http://www.w3.org/2000/svg" viewBox="0 0 256 256"><defs><style>.cls-1{fill:#fff;stroke:#797774;stroke-linejoin:round;stroke-width:4px;}.cls-2{fill:#272636;}</style></defs><title>apple_app</title><polygon class="cls-1" points="222.5 254 33.5 254 33.5 2 167.5 2 222.5 57 222.5 254"/><polygon class="cls-1" points="222.5 57 167.5 57 167.5 2 222.5 57"/><path class="cls-2" d="M168.94975,158.21747q5.27933,7.46888,12.1045,9.65763a81.42124,81.42124,0,0,1-9.40031,19.05841q-9.9152,14.93751-19.57368,14.93759-3.605,0-10.68788-2.44624a33.57611,33.57611,0,0,0-11.46095-2.447,27.42176,27.42176,0,0,0-10.81693,2.57529A29.06349,29.06349,0,0,1,108.94191,202q-11.58978,0-22.793-19.70243-11.20284-19.44439-11.20315-38.24524,0-17.38407,8.49881-28.45871,8.75651-11.0748,21.63369-11.0741a31.87263,31.87263,0,0,1,6.30989.70784,27.89365,27.89365,0,0,1,7.21124,2.63974,40.51258,40.51258,0,0,0,6.56769,3.026,14.015,14.015,0,0,0,3.99191.83768,26.47759,26.47759,0,0,0,5.15106-.77306,23.783,23.783,0,0,0,6.95344-2.83263,52.46549,52.46549,0,0,1,6.43879-3.091,15.44013,15.44013,0,0,1,5.53729-1.02977,28.233,28.233,0,0,1,16.2253,4.89326,35.75285,35.75285,0,0,1,7.85542,7.59747,53.53654,53.53654,0,0,0-8.62785,9.01407,26.92193,26.92193,0,0,0-5.02217,15.71,29.10269,29.10269,0,0,0,5.27949,16.99839ZM143.06617,98.08073a24.25,24.25,0,0,1-8.24085,5.53666,26.33207,26.33207,0,0,1-3.28392.70863q-1.996.32138-4.57149.57972a33.84951,33.84951,0,0,1,5.92367-19.57368Q138.68787,77.09048,151.952,74q.257,1.28766.38622,1.80286v1.41662A29.912,29.912,0,0,1,150.14914,87.65a31.71589,31.71589,0,0,1-7.083,10.4307Zm0,0"/></svg>