<svg id="linux" data-name="linux" xmlns="http://www.w3.org/2000/svg" xmlns:xlink="http://www.w3.org/1999/xlink" viewBox="0 0 256 256"><defs><style>.cls-1{fill:none;}.cls-2,.cls-3{fill:#fff;}.cls-2{stroke:#797774;stroke-linejoin:round;stroke-width:4px;}.cls-4{fill:#020204;}.cls-5{fill:#d99a03;}.cls-6{fill:#604405;}.cls-7{fill:#f5bd0c;}.cls-8{clip-path:url(#clip-path);}.cls-9{fill:#cd8907;}</style><clipPath id="clip-path"><rect class="cls-1" x="64" y="61.67465" width="128" height="152.65071"/></clipPath></defs><title>linux_app</title><polygon class="cls-2" points="222.5 254 33.5 254 33.5 2 167.5 2 222.5 57 222.5 254"/><polygon class="cls-2" points="222.5 57 167.5 57 167.5 2 222.5 57"/><path class="cls-3" d="M130.04274,84.56481a8.31262,8.31262,0,0,0-3.21552,3.98065,9.76648,9.76648,0,0,0,.25518,6.41361,10.78711,10.78711,0,0,0,3.77693,5.4101,6.76847,6.76847,0,0,0,3.096,1.19043,5.63724,5.63724,0,0,0,3.24955-.56077,6.39314,6.39314,0,0,0,2.70474-2.94375,10.65242,10.65242,0,0,0,.88463-3.96321,13.412,13.412,0,0,0-.64626-5.12112,8.509,8.509,0,0,0-3.3178-4.40594,6.62234,6.62234,0,0,0-2.61989-.98671,5.49833,5.49833,0,0,0-2.77277.30642,7.56241,7.56241,0,0,0-1.41223.76513"/><path class="cls-4" d="M178.52758,154.00851a71.815,71.815,0,0,0-4.0487-14.05168,40.28514,40.28514,0,0,0-5.01882-9.493c-2.10994-2.80681-4.78064-5.17172-6.83891-8.01277-1.089-1.48028-2.00787-3.13066-3.14748-4.57607-.45932-.9529-.90122-1.90558-1.344-2.85848-1.36075-2.97714-2.60265-6.02233-4.219-8.84656-.25518-.4419-.52759-.88465-.78256-1.31-.20436-2.72133-.49336-5.44348-.64626-8.16566a77.28135,77.28135,0,0,0-1.3782-16.31452,27.12782,27.12782,0,0,0-3.23211-7.28165,24.9422,24.9422,0,0,0-6.32877-6.82147,24.373,24.373,0,0,0-14.01764-4.49144A22.0045,22.0045,0,0,0,116.89249,64.235a19.26449,19.26449,0,0,0-7.99616,8.3192,27.95038,27.95038,0,0,0-2.55184,11.3129c-.13631,3.8452.221,7.65552.3747,11.50071.15268,3.98065.068,7.9785.39128,11.95916.10207,1.27592.255,2.55183.255,3.84519,0,.64625-.034,1.29251-.05146,1.92217l-.05082.13632a81.67,81.67,0,0,1-5.74992,8.48867q-2.19428,2.78118-4.4066,5.51238a32.845,32.845,0,0,0-4.84785,7.1445,51.398,51.398,0,0,0-2.10994,6.90718l-.05061.18692a53.63684,53.63684,0,0,1-3.06284,7.85987c-.11866.23837-.23753.49335-.3396.71429-.732,1.5143-1.49772,3.0286-2.29687,4.50887l-.91887,1.71781a29.00424,29.00424,0,0,0-1.53089,3.19809,9.73375,9.73375,0,0,0-.30643,6.44785c.08549.357.20436.7143.323,1.07156a22.5027,22.5027,0,0,0,1.34418,3.07921c.23838.45933.49335.90207.73174,1.36162l.221.323c.23838.4253.49335.85061.74853,1.25848l.034.05146c.289.47613.61223.93546.91866,1.39479l.05147.068c.32323.44274.64625.90207.98607,1.34418a35.42893,35.42893,0,0,0,6.75428,13.43944c-.49357.868-.93546,1.71866-1.42881,2.56927a39.34436,39.34436,0,0,0-4.2705,8.06338,9.71525,9.71525,0,0,0-.32323,4.52546,6.39045,6.39045,0,0,0,2.21137,3.91239,6.68242,6.68242,0,0,0,2.68815,1.24189,11.62434,11.62434,0,0,0,2.97714.25582,48.70813,48.70813,0,0,0,11.126-2.19458c2.178-.579,4.35514-1.089,6.56651-1.53173a38.65276,38.65276,0,0,1,6.97522-.952c.57885.01679,1.157-.01744,1.71867-.05146a32.43363,32.43363,0,0,0,4.81446.17033l.59479-.034c.40872.05062.834.06806,1.25932.10208q4.23636.22935,8.42063.8672c2.4504.37469,4.90016.85061,7.31569,1.44625a55.56021,55.56021,0,0,0,11.44922,2.19479,12.4117,12.4117,0,0,0,3.06178-.2386,6.9594,6.9594,0,0,0,2.77363-1.25847,6.4067,6.4067,0,0,0,2.228-3.89581,9.70381,9.70381,0,0,0-.32323-4.52546,38.2555,38.2555,0,0,0-4.33769-8.04678c-.61223-1.03754-1.19129-2.1091-1.80351-3.14748a55.80858,55.80858,0,0,0,6.92376-9.61169,9.43229,9.43229,0,0,0,3.50453-.4419,14.72733,14.72733,0,0,0,7.3665-5.529,8.26639,8.26639,0,0,0,1.22531-2.51781,16.24475,16.24475,0,0,0,2.34748-6.00574,30.38376,30.38376,0,0,0-.255-10.66666Zm0,0"/><path class="cls-3" d="M113.09877,105.81265a5.91077,5.91077,0,0,0-1.089,2.3143,12.91676,12.91676,0,0,0-.32324,2.55184,22.52613,22.52613,0,0,1-.4253,5.12026,15.87231,15.87231,0,0,1-2.65391,4.81467,29.09977,29.09977,0,0,0-4.62775,8.30175,14.81194,14.81194,0,0,0-.52674,5.73333,61.16355,61.16355,0,0,0-5.32547,9.64573,53.18959,53.18959,0,0,0-4.33769,16.05953,40.984,40.984,0,0,0,2.89166,20.04083A33.13039,33.13039,0,0,0,105.23891,192.32a29.30813,29.30813,0,0,0,6.24327,4.15076,28.0531,28.0531,0,0,0,25.11047-.23753,48.62525,48.62525,0,0,0,10.64923-8.42126,37.26183,37.26183,0,0,0,5.41031-6.1412,34.24771,34.24771,0,0,0,4.508-14.988,48.825,48.825,0,0,0-2.87507-27.08325,29.561,29.561,0,0,0-5.4101-7.7578,42.95309,42.95309,0,0,0-3.43648-11.56874c-1.22444-2.63646-2.70472-5.15427-3.84433-7.859-.45933-1.10644-.868-2.2286-1.37821-3.301a10.26251,10.26251,0,0,0-2.00765-2.9431,8.13689,8.13689,0,0,0-3.14747-1.8201,13.045,13.045,0,0,0-3.606-.61224c-2.45041-.1195-4.91675.18692-7.33228.10229a55.81772,55.81772,0,0,0-5.83561-.30665,9.00626,9.00626,0,0,0-2.84083.59565,5.6859,5.6859,0,0,0-2.34748,1.70122m.78235-21.28273a3.99754,3.99754,0,0,0-2.44955,1.089,5.41127,5.41127,0,0,0-1.42966,2.29688,13.97246,13.97246,0,0,0-.323,5.44348,15.81571,15.81571,0,0,0,.86805,4.86592,6.35,6.35,0,0,0,1.32653,2.07508,4.52023,4.52023,0,0,0,2.10994,1.24189,4.1998,4.1998,0,0,0,2.296-.08463,4.94148,4.94148,0,0,0,1.957-1.19128,6.59214,6.59214,0,0,0,1.66719-2.90909,11.7888,11.7888,0,0,0,.39128-3.36822,14.04435,14.04435,0,0,0-.6471-4.185,9.30975,9.30975,0,0,0-2.14333-3.64082,6.05923,6.05923,0,0,0-1.633-1.22447,4.275,4.275,0,0,0-1.99043-.40872m16.16162,0a8.31484,8.31484,0,0,0-3.21552,3.98151,9.76669,9.76669,0,0,0,.25518,6.41361,10.78132,10.78132,0,0,0,3.77693,5.40926,6.77188,6.77188,0,0,0,3.096,1.19126,5.63746,5.63746,0,0,0,3.24955-.56161,6.39523,6.39523,0,0,0,2.70474-2.9429,10.65673,10.65673,0,0,0,.88463-3.96406,13.40547,13.40547,0,0,0-.64626-5.12026,8.51107,8.51107,0,0,0-3.3178-4.40681,6.6249,6.6249,0,0,0-2.61989-.98606,5.50976,5.50976,0,0,0-2.77277.30578,7.577,7.577,0,0,0-1.41223.76578"/><path class="cls-4" d="M133.32567,88.86848a3.19386,3.19386,0,0,0-1.51345.49357,4.04061,4.04061,0,0,0-1.15725,1.123,5.81777,5.81777,0,0,0-.91867,3.04518,6.32032,6.32032,0,0,0,.32324,2.38171,4.35743,4.35743,0,0,0,1.344,1.95619,3.93612,3.93612,0,0,0,2.26263.88464,3.77054,3.77054,0,0,0,2.33089-.6637,4.16381,4.16381,0,0,0,1.29271-1.47941,5.58291,5.58291,0,0,0,.57884-1.87155,5.807,5.807,0,0,0-.54482-3.38586,4.71943,4.71943,0,0,0-2.5178-2.27943,3.66814,3.66814,0,0,0-1.48028-.23839"/><path class="cls-3" d="M113.88112,84.56481a3.99743,3.99743,0,0,0-2.44955,1.089,5.40834,5.40834,0,0,0-1.42966,2.296,13.9768,13.9768,0,0,0-.323,5.44434,15.8128,15.8128,0,0,0,.86805,4.86526,6.18434,6.18434,0,0,0,1.32653,2.07573,4.52739,4.52739,0,0,0,2.10994,1.24188,4.20771,4.20771,0,0,0,2.296-.08548,4.93926,4.93926,0,0,0,1.957-1.19043,6.59663,6.59663,0,0,0,1.66719-2.90909,11.79212,11.79212,0,0,0,.39128-3.36821,14.04,14.04,0,0,0-.6471-4.185,9.29918,9.29918,0,0,0-2.14333-3.64084,6.0533,6.0533,0,0,0-1.633-1.2253,4.27392,4.27392,0,0,0-1.99043-.40787"/><path class="cls-4" d="M111.68654,92.13483a6.92455,6.92455,0,0,0,.18693,3.43646,5.5903,5.5903,0,0,0,1.2253,1.957,3.92986,3.92986,0,0,0,1.19022.91868,2.04127,2.04127,0,0,0,2.62009-.57885,3.893,3.893,0,0,0,.62967-1.24189,6.90667,6.90667,0,0,0-.06826-4.06613,5.25363,5.25363,0,0,0-1.54833-2.51782,3.20433,3.20433,0,0,0-1.25847-.66284,2.17272,2.17272,0,0,0-1.42882.11867,2.48588,2.48588,0,0,0-1.10643,1.10578,4.75066,4.75066,0,0,0-.45933,1.51432"/><path class="cls-5" d="M109.526,106.44232a1.16527,1.16527,0,0,0,.17033.42531,1.86334,1.86334,0,0,0,.578.5782c.22117.15353.44211.28984.66391.4253a12.23646,12.23646,0,0,1,3.04519,2.94312,18.94421,18.94421,0,0,0,3.74226,4.25305,7.77639,7.77639,0,0,0,3.74291,1.344,12.395,12.395,0,0,0,4.66092-.54419,16.68543,16.68543,0,0,0,3.99808-1.75184,42.20222,42.20222,0,0,1,6.9244-4.5429c.57821-.2035,1.15641-.35726,1.70123-.61221a2.6664,2.6664,0,0,0,1.32673-1.19045,5.79106,5.79106,0,0,0,.323-1.70121c.08484-.61309.2892-1.20851.39128-1.82073a3.22531,3.22531,0,0,0-.13631-1.83755,2.50376,2.50376,0,0,0-1.07156-1.07154,3.7256,3.7256,0,0,0-1.48028-.37386,22.72779,22.72779,0,0,0-3.06177.30581c-1.36141.1195-2.72217-.05083-4.08273,0-1.68463.05146-3.36842.42529-5.06963.49335-1.93961.10228-3.86179-.20436-5.80139-.289a11.37443,11.37443,0,0,0-2.5178.11865,5.52008,5.52008,0,0,0-2.3309.90208,20.75591,20.75591,0,0,0-1.82009,1.63317,5.05,5.05,0,0,1-1.00415.6977,2.39839,2.39839,0,0,1-1.19043.27179,1.95454,1.95454,0,0,0-.62966,0,1.05861,1.05861,0,0,0-.32324.20436l-.255.30642a5.28468,5.28468,0,0,0-.44274.79917"/><path class="cls-6" d="M113.79563,102.15524c-.68027.40871-1.344.85059-2.0068,1.31a2.64181,2.64181,0,0,0-.86805.868,1.83777,1.83777,0,0,0-.1529.8506,7.56133,7.56133,0,0,1,0,.8672c-.01744.18693-.08485.39129-.08485.59565a.8078.8078,0,0,0,.03339.289.61353.61353,0,0,0,.1361.25518.7374.7374,0,0,0,.34067.18755c.11866.03339.255.05082.39128.08485a3.81084,3.81084,0,0,1,1.58235.91867c.45933.40786.8672.88463,1.36055,1.27591a7.68005,7.68005,0,0,0,4.69517,1.53089,21.21237,21.21237,0,0,0,4.9682-.69772,31.39353,31.39353,0,0,0,3.7597-1.03753,16.4865,16.4865,0,0,0,5.17172-3.09579,17.118,17.118,0,0,1,2.10909-1.75291c.68028-.42529,1.48028-.71429,2.16055-1.12216.06806-.034.11887-.0855.18692-.11953a.6589.6589,0,0,0,.13632-.17033.47193.47193,0,0,0,0-.37384.87346.87346,0,0,0-.1529-.30643,2.26678,2.26678,0,0,0-.2892-.28922,4.80047,4.80047,0,0,0-2.68794-.93523,22.80094,22.80094,0,0,1-2.87506-.18777,19.6771,19.6771,0,0,1-2.6033-.74853,18.79833,18.79833,0,0,0-2.77278-.66286,17.85387,17.85387,0,0,0-6.652.16949,21.06975,21.06975,0,0,0-5.88624,2.29687"/><path class="cls-7" d="M113.57469,99.84179a12.59381,12.59381,0,0,0-2.63647,2.39893,5.68246,5.68246,0,0,0-1.03839,1.752,12.1821,12.1821,0,0,0-.33981,1.56492,2.26871,2.26871,0,0,0-.08549.59562.79187.79187,0,0,0,.05146.289.63548.63548,0,0,0,.1529.255.84089.84089,0,0,0,.44274.22179,4.32824,4.32824,0,0,0,.49336.05083,4.811,4.811,0,0,1,2.05847.8672c.61223.42531,1.19022.91866,1.81989,1.32738a9.63121,9.63121,0,0,0,4.72919,1.344,20.85471,20.85471,0,0,0,4.93418-.49335,21.592,21.592,0,0,0,3.81031-1.07156,28.62906,28.62906,0,0,0,7.28166-4.8487c.22095-.22094.44189-.44274.68027-.64624a2.5079,2.5079,0,0,1,.79916-.45934,2.829,2.829,0,0,1,1.41222-.01743,4.34321,4.34321,0,0,0,1.05476.11951,1.79059,1.79059,0,0,0,.52759-.08551.98526.98526,0,0,0,.4253-.30577.9971.9971,0,0,0,.221-.6471,1.3019,1.3019,0,0,0-.18692-.66285,2.32529,2.32529,0,0,0-1.07156-.86805,9.85952,9.85952,0,0,0-1.83753-.544,25.94893,25.94893,0,0,1-5.563-2.02446c-.88465-.44273-1.71867-.91867-2.6033-1.378a15.31613,15.31613,0,0,0-2.75534-1.22531,10.84171,10.84171,0,0,0-6.652.30644,14.21546,14.21546,0,0,0-6.1412,4.20158"/><g class="cls-8"><path class="cls-9" d="M124.65007,97.13705c.11887.39127.7311.32324,1.08815.49272.35725.17013.56161.49336.90207.52739.35725.034.85062-.11867.90144-.44191.068-.44273-.5782-.7143-.98692-.868a2.05225,2.05225,0,0,0-1.70123-.034c-.11887.05147-.23753.20436-.20351.32387Zm-5.85285-.20435c-.45868-.15354-1.20786.64626-.98606,1.07156.068.11887.27156.25516.40787.18692.13609-.068.39128-.52738.61222-.68027.17033-.13631.1361-.5274-.034-.57821Zm0,0"/><path class="cls-7" d="M191.71205,191.99681a8.62416,8.62416,0,0,1-1.446,2.43317,15.68693,15.68693,0,0,1-5.06964,3.606,104.35857,104.35857,0,0,0-9.44158,4.98479,39.15709,39.15709,0,0,0-5.563,4.49144,45.10349,45.10349,0,0,1-4.52547,4.117,12.94281,12.94281,0,0,1-5.63126,2.38149,13.57987,13.57987,0,0,1-7.33227-1.10558,8.70044,8.70044,0,0,1-4.08273-3.19808,9.65753,9.65753,0,0,1-1.15725-5.08708,53.32818,53.32818,0,0,1,1.12323-9.27124c.4419-2.55184.88463-5.10367,1.157-7.67294a79.74652,79.74652,0,0,0,.16949-14.10314,11.01877,11.01877,0,0,1,0-2.36491,3.01328,3.01328,0,0,1,3.06263-2.807,10.39766,10.39766,0,0,1,2.17735.18778,46.13362,46.13362,0,0,1,5.06943.88463c1.03839.27177,2.07591.64625,3.11345.93546a14.33914,14.33914,0,0,0,5.37608.49336,40.80247,40.80247,0,0,1,5.74991-.90208,9.04361,9.04361,0,0,1,2.34749.40872,5.0759,5.0759,0,0,1,2.10994,1.17363,4.89135,4.89135,0,0,1,.98692,1.56513,9.7462,9.7462,0,0,1,.59477,2.68793q.05107,1.22488.20437,2.44976a8.12235,8.12235,0,0,0,1.8033,3.55534,23.30742,23.30742,0,0,0,2.92653,2.72195,31.37585,31.37585,0,0,0,3.16407,2.44976c.52737.35726,1.055.68114,1.5483,1.07242a4.70229,4.70229,0,0,1,1.2585,1.39479,3.4145,3.4145,0,0,1,.34066,2.44955"/><path class="cls-7" d="M191.71205,191.99681a8.62416,8.62416,0,0,1-1.446,2.43317,15.68693,15.68693,0,0,1-5.06964,3.606,104.35857,104.35857,0,0,0-9.44158,4.98479,39.15709,39.15709,0,0,0-5.563,4.49144,45.10349,45.10349,0,0,1-4.52547,4.117,12.94281,12.94281,0,0,1-5.63126,2.38149,13.57987,13.57987,0,0,1-7.33227-1.10558,8.70044,8.70044,0,0,1-4.08273-3.19808,9.65753,9.65753,0,0,1-1.15725-5.08708,53.32818,53.32818,0,0,1,1.12323-9.27124c.4419-2.55184.88463-5.10367,1.157-7.67294a79.74652,79.74652,0,0,0,.16949-14.10314,11.01877,11.01877,0,0,1,0-2.36491,3.01328,3.01328,0,0,1,3.06263-2.807,10.39766,10.39766,0,0,1,2.17735.18778,46.13362,46.13362,0,0,1,5.06943.88463c1.03839.27177,2.07591.64625,3.11345.93546a14.33914,14.33914,0,0,0,5.37608.49336,40.80247,40.80247,0,0,1,5.74991-.90208,9.04361,9.04361,0,0,1,2.34749.40872,5.0759,5.0759,0,0,1,2.10994,1.17363,4.89135,4.89135,0,0,1,.98692,1.56513,9.7462,9.7462,0,0,1,.59477,2.68793q.05107,1.22488.20437,2.44976a8.12235,8.12235,0,0,0,1.8033,3.55534,23.30742,23.30742,0,0,0,2.92653,2.72195,31.37585,31.37585,0,0,0,3.16407,2.44976c.52737.35726,1.055.68114,1.5483,1.07242a4.70229,4.70229,0,0,1,1.2585,1.39479,3.4145,3.4145,0,0,1,.34066,2.44955M84.82424,165.883a4.74379,4.74379,0,0,1,2.61988-.23775,6.38111,6.38111,0,0,1,2.44976,1.03754,15.65139,15.65139,0,0,1,3.60681,3.87857c2.39808,3.30016,4.69494,6.66858,6.78745,10.1731,1.70122,2.841,3.24955,5.76757,5.20574,8.43807,1.27592,1.73524,2.72217,3.35182,4.01467,5.08707a17.45268,17.45268,0,0,1,2.99458,5.69931,11.46641,11.46641,0,0,1-.834,8.18288,10.81349,10.81349,0,0,1-3.98065,4.26965,10.44434,10.44434,0,0,1-5.64764,1.48027,27.47791,27.47791,0,0,1-8.94885-2.82424c-5.93685-2.36491-12.38469-3.11345-18.50909-4.95077-1.88815-.56077-3.72568-1.24189-5.63126-1.75183a16.43619,16.43619,0,0,1-2.50038-.8,4.30435,4.30435,0,0,1-1.957-1.64976,3.77458,3.77458,0,0,1-.49336-1.95619,5.835,5.835,0,0,1,.39128-1.957c.45933-1.27592,1.20851-2.41574,1.70122-3.67422a15.33993,15.33993,0,0,0,.85061-6.4991c-.10144-2.19392-.49272-4.38851-.61222-6.58309a10.64581,10.64581,0,0,1,.10207-2.94311,4.40321,4.40321,0,0,1,3.72568-3.77714,12.094,12.094,0,0,1,2.70473-.17034,23.91325,23.91325,0,0,0,2.72195,0,6.34852,6.34852,0,0,0,2.60351-.73089,6.19973,6.19973,0,0,0,1.87135-1.76927,22.52077,22.52077,0,0,0,1.34333-2.21222,13.99148,13.99148,0,0,1,1.412-2.16056,5.16164,5.16164,0,0,1,2.00787-1.59893"/><path class="cls-7" d="M84.82424,165.90048a4.74206,4.74206,0,0,1,2.61988-.23839,6.40369,6.40369,0,0,1,2.44976,1.03732,15.67011,15.67011,0,0,1,3.60681,3.87943c2.39808,3.30016,4.69494,6.66858,6.78745,10.17309,1.70122,2.84105,3.24955,5.76673,5.20574,8.43807,1.27592,1.73525,2.72217,3.351,4.01467,5.08623a17.45258,17.45258,0,0,1,2.99458,5.69931,11.46593,11.46593,0,0,1-.834,8.18287,10.81009,10.81009,0,0,1-3.98065,4.27051,10.4436,10.4436,0,0,1-5.64764,1.47942A27.49662,27.49662,0,0,1,93.092,211.085c-5.93685-2.36491-12.38469-3.11345-18.50909-4.95077-1.88815-.56162-3.72568-1.24189-5.63126-1.75269a16.3373,16.3373,0,0,1-2.50038-.79915,4.31007,4.31007,0,0,1-1.957-1.65061,3.77254,3.77254,0,0,1-.49336-1.95619,5.83122,5.83122,0,0,1,.39128-1.9562c.45933-1.27591,1.20851-2.41573,1.70122-3.67506A15.33427,15.33427,0,0,0,66.944,187.846c-.10144-2.19458-.49272-4.37194-.61222-6.58395a10.6459,10.6459,0,0,1,.10207-2.94312,4.4023,4.4023,0,0,1,3.72568-3.77628,12.00661,12.00661,0,0,1,2.70473-.17034,24.31249,24.31249,0,0,0,2.72195,0,6.3627,6.3627,0,0,0,2.60351-.73174,6.18935,6.18935,0,0,0,1.87135-1.76927A22.60853,22.60853,0,0,0,81.40436,169.66a13.91,13.91,0,0,1,1.412-2.16056,5.00171,5.00171,0,0,1,2.00787-1.59893"/></g><path class="cls-7" d="M86.13418,167.32908a4.00613,4.00613,0,0,1,2.36491-.15269,5.38514,5.38514,0,0,1,2.14312,1.05412,13.50834,13.50834,0,0,1,2.99457,3.72632c2.041,3.30037,4.03127,6.63455,5.88623,10.037a67.29521,67.29521,0,0,0,4.52462,7.5194c1.15726,1.56491,2.48379,2.99373,3.67485,4.52547a15.10787,15.10787,0,0,1,2.75619,5.08623,10.07352,10.07352,0,0,1-.76576,7.29824,9.67552,9.67552,0,0,1-3.69165,3.84519,9.36864,9.36864,0,0,1-5.17172,1.27592,29.59952,29.59952,0,0,1-8.19946-2.53525c-5.17193-1.88814-10.803-2.12653-16.111-3.6068-1.90558-.50994-3.7597-1.20766-5.68187-1.68379a18.556,18.556,0,0,1-2.51781-.73174,4.17221,4.17221,0,0,1-2.00765-1.61573,3.60971,3.60971,0,0,1-.42531-1.87135,6.15167,6.15167,0,0,1,.40872-1.90558c.45933-1.20787,1.19021-2.31345,1.64976-3.52132a13.50609,13.50609,0,0,0,.66369-5.81881c-.13631-1.9562-.49356-3.89516-.59564-5.8688a10.39688,10.39688,0,0,1,.11951-2.61988,4.488,4.488,0,0,1,1.17384-2.31345,4.67,4.67,0,0,1,2.55184-1.19128,11.37868,11.37868,0,0,1,2.84083,0,20.196,20.196,0,0,0,2.85763.13631,4.83734,4.83734,0,0,0,4.37256-2.79022,17.90122,17.90122,0,0,0,1.00351-2.36492,11.68631,11.68631,0,0,1,1.13961-2.31345,4.40265,4.40265,0,0,1,1.9564-1.64976"/></svg>