<svg id="binary" data-name="binary" xmlns="http://www.w3.org/2000/svg" viewBox="0 0 256 256"><defs><style>.cls-1{fill:#fff;stroke:#797774;stroke-linejoin:round;stroke-width:4px;}</style></defs><title>binary</title><polygon class="cls-1" points="222.5 254 33.5 254 33.5 2 167.5 2 222.5 57 222.5 254"/><polygon class="cls-1" points="222.5 57 167.5 57 167.5 2 222.5 57"/><path d="M74.66649,127.33351H85.333A10.6671,10.6671,0,0,0,96.00052,116.667V84.6665A10.6671,10.6671,0,0,0,85.333,74H74.66649A10.66634,10.66634,0,0,0,64,84.6665V116.667a10.66634,10.66634,0,0,0,10.66649,10.6665Zm0-10.6665V84.6665H85.333V116.667Zm96.00052,10.6665H181.3335A10.66622,10.66622,0,0,0,192,116.667V84.6665A10.66622,10.66622,0,0,0,181.3335,74H170.667a10.66634,10.66634,0,0,0-10.6665,10.6665V116.667a10.66634,10.66634,0,0,0,10.6665,10.6665Zm0-10.6665V84.6665H181.3335V116.667ZM133.33377,202H122.66726a10.667,10.667,0,0,1-10.66753-10.66649V159.334a10.66786,10.66786,0,0,1,10.66753-10.66754h10.66651A10.6671,10.6671,0,0,1,144.00026,159.334v31.99948A10.66621,10.66621,0,0,1,133.33377,202Zm-10.66651-42.666v31.99948h10.66651V159.334Zm10.66651-82.66714V116.667h7.99961a2.66657,2.66657,0,0,1,2.66688,2.66689v5.33272a2.66656,2.66656,0,0,1-2.66688,2.66689H114.66662a2.6667,2.6667,0,0,1-2.66689-2.66689V119.3339a2.66671,2.66671,0,0,1,2.66689-2.66689h8.00064V90.00025h-8.00064a2.66683,2.66683,0,0,1-2.66689-2.66687V81.99961a2.66648,2.66648,0,0,1,2.66689-2.66583h8.00064V76.66689A2.66636,2.66636,0,0,1,125.33312,74h5.33376a2.66671,2.66671,0,0,1,2.66689,2.66689ZM85.333,191.33351V151.33338a2.66648,2.66648,0,0,0-2.66584-2.66689H77.33337a2.66683,2.66683,0,0,0-2.66688,2.66689v2.66688H66.66688A2.66656,2.66656,0,0,0,64,156.66714v5.33273a2.66763,2.66763,0,0,0,2.66688,2.66688h7.99961v26.66676H66.66688A2.66669,2.66669,0,0,0,64,194.00039v5.33377A2.66741,2.66741,0,0,0,66.66688,202H93.33363a2.66647,2.66647,0,0,0,2.66689-2.66584v-5.33377a2.66683,2.66683,0,0,0-2.66689-2.66688Zm96.00052-40.00013v40.00013h8.00064A2.66647,2.66647,0,0,1,192,194.00039v5.33377A2.66612,2.66612,0,0,1,189.33414,202H162.6674a2.66634,2.66634,0,0,1-2.66689-2.66584v-5.33377a2.6667,2.6667,0,0,1,2.66689-2.66688H170.667V164.66675H162.6674a2.66656,2.66656,0,0,1-2.66689-2.66688v-5.33273a2.66657,2.66657,0,0,1,2.66689-2.66688H170.667v-2.66688a2.6667,2.6667,0,0,1,2.66689-2.66689h5.33272a2.6667,2.6667,0,0,1,2.66688,2.66689Zm0,0"/></svg>