<svg id="code" data-name="code" xmlns="http://www.w3.org/2000/svg" viewBox="0 0 256 256"><defs><style>.cls-1{fill:#fff;stroke:#797774;stroke-linejoin:round;stroke-width:4px;}.cls-2{fill:#666;}</style></defs><title>code</title><polygon class="cls-1" points="222.5 254 33.5 254 33.5 2 167.5 2 222.5 57 222.5 254"/><polygon class="cls-1" points="222.5 57 167.5 57 167.5 2 222.5 57"/><path class="cls-2" d="M100.11275,106.80233a4.53391,4.53391,0,0,0-6.56594,0l-28.14,28.14a4.53393,4.53393,0,0,0,0,6.56594l28.14,28.13941a5.35366,5.35366,0,0,0,6.87867,0,4.53424,4.53424,0,0,0,0-6.56595l-25.32617-24.7L99.8,113.681a5.24413,5.24413,0,0,0,.31272-6.87867Zm90.67272,28.14-28.14013-28.14a4.64282,4.64282,0,0,0-6.566,6.56594l24.7007,24.70071-24.7007,24.7a4.53424,4.53424,0,0,0,0,6.566,5.35369,5.35369,0,0,0,6.87867,0l28.14015-28.13941c1.25015-1.2509,1.25015-4.37742-.31274-6.25322ZM144.19858,74.59822a4.66048,4.66048,0,0,0-5.62851,3.43925L106.6787,195.59924a4.66016,4.66016,0,0,0,3.43924,5.62778c.31273,0,.93763.31272,1.25036.31272a4.1261,4.1261,0,0,0,4.37741-3.43943L147.3251,80.22581a4.47416,4.47416,0,0,0-3.12652-5.62759Zm0,0"/></svg>