<svg id="compress" data-name="compress" xmlns="http://www.w3.org/2000/svg" xmlns:xlink="http://www.w3.org/1999/xlink" viewBox="0 0 256 256"><defs><style>.cls-1,.cls-2,.cls-3,.cls-4,.cls-5,.cls-6,.cls-7{fill-rule:evenodd;}.cls-2{fill-opacity:0.1;}.cls-3{fill:url(#未命名的渐变_4);}.cls-4{fill:url(#未命名的渐变_2);}.cls-5{fill:url(#未命名的渐变_3);}.cls-6{fill:#fff8f8;fill-opacity:0.3;}.cls-7,.cls-8{fill:#fff;fill-opacity:0.6;}</style><linearGradient id="未命名的渐变_4" x1="31.60809" y1="252.23077" x2="22.06224" y2="252.23077" gradientTransform="matrix(7, 0, 0, -26, 14, 6686)" gradientUnits="userSpaceOnUse"><stop offset="0" stop-color="#780094"/><stop offset="1" stop-color="#670074"/></linearGradient><linearGradient id="未命名的渐变_2" x1="20.24442" y1="251.50641" x2="10.84557" y2="251.50641" gradientTransform="matrix(8, 0, 0, -24, 5, 6174)" gradientUnits="userSpaceOnUse"><stop offset="0" stop-color="#1c44a8"/><stop offset="1" stop-color="#023ba8"/></linearGradient><linearGradient id="未命名的渐变_3" x1="12.8022" y1="251.88308" x2="3.5991" y2="251.88308" gradientTransform="matrix(7, 0, 0, -25, -1, 6430)" gradientUnits="userSpaceOnUse"><stop offset="0" stop-color="#286d00"/><stop offset="1" stop-color="#457000"/></linearGradient></defs><title>rar</title><path id="application-x-rar-b" class="cls-1" d="M88.61538,27.07692A7.38462,7.38462,0,0,1,96,19.69231h64a7.38462,7.38462,0,0,1,7.38462,7.38461V7.38462A7.38461,7.38461,0,0,1,174.76923,0h54.15385a7.38462,7.38462,0,0,1,7.38461,7.38462V248.61538A7.38462,7.38462,0,0,1,228.92308,256H174.76923a7.38462,7.38462,0,0,1-7.38461-7.38462A7.38462,7.38462,0,0,1,160,256H96a7.38462,7.38462,0,0,1-7.38462-7.38462A7.38462,7.38462,0,0,1,81.23077,256H27.07692a7.38462,7.38462,0,0,1-7.38461-7.38462V17.23077a7.38462,7.38462,0,0,1,7.38461-7.38462H81.23077a7.38462,7.38462,0,0,1,7.38461,7.38462Z"/><path class="cls-2" d="M88.61538,27.07692A7.38462,7.38462,0,0,1,96,19.69231h64a7.38462,7.38462,0,0,1,7.38462,7.38461V7.38462A7.38461,7.38461,0,0,1,174.76923,0h54.15385a7.38462,7.38462,0,0,1,7.38461,7.38462V248.61538A7.38462,7.38462,0,0,1,228.92308,256H174.76923a7.38462,7.38462,0,0,1-7.38461-7.38462A7.38462,7.38462,0,0,1,160,256H96a7.38462,7.38462,0,0,1-7.38462-7.38462A7.38462,7.38462,0,0,1,81.23077,256H27.07692a7.38462,7.38462,0,0,1-7.38461-7.38462V17.23077a7.38462,7.38462,0,0,1,7.38461-7.38462H81.23077a7.38462,7.38462,0,0,1,7.38461,7.38462Z"/><path class="cls-3" d="M236.30769,7.38462V248.61538A7.38462,7.38462,0,0,1,228.92308,256H174.76923a7.38462,7.38462,0,0,1-7.38461-7.38462V7.38462A7.38461,7.38461,0,0,1,174.76923,0h54.15385A7.38462,7.38462,0,0,1,236.30769,7.38462Z"/><path class="cls-4" d="M167.38462,27.07692V248.61538A7.38462,7.38462,0,0,1,160,256H96a7.38462,7.38462,0,0,1-7.38462-7.38462V27.07692A7.38462,7.38462,0,0,1,96,19.69231h64A7.38462,7.38462,0,0,1,167.38462,27.07692Z"/><path class="cls-5" d="M88.61538,17.23077V248.61538A7.38462,7.38462,0,0,1,81.23077,256H27.07692a7.38462,7.38462,0,0,1-7.38461-7.38462V17.23077a7.38462,7.38462,0,0,1,7.38461-7.38462H81.23077A7.38462,7.38462,0,0,1,88.61538,17.23077Z"/><path class="cls-6" d="M88.61538,118.15385v29.53846H19.69231V118.15385Zm78.76924,0h68.92307v29.53846H167.38462Z"/><path class="cls-7" d="M152.61538,108.30769H103.38462a4.92294,4.92294,0,0,0-4.92308,4.92308v39.38461a4.92333,4.92333,0,0,0,4.92308,4.92308h49.23076a4.92333,4.92333,0,0,0,4.92308-4.92308V113.23077A4.92294,4.92294,0,0,0,152.61538,108.30769Zm-4.92307,39.38462H108.30769V118.15385h39.38462Z"/><rect class="cls-8" x="118.15385" y="128" width="19.69231" height="9.84615"/></svg>