<svg id="cube" data-name="cube" xmlns="http://www.w3.org/2000/svg" viewBox="0 0 256 256"><defs><style>.cls-1{fill:#fff;stroke:#797774;stroke-linejoin:round;stroke-width:4px;}.cls-2{fill:#00a99d;}</style></defs><title>3d</title><polygon class="cls-1" points="222.5 254 33.5 254 33.5 2 167.5 2 222.5 57 222.5 254"/><polygon class="cls-1" points="222.5 57 167.5 57 167.5 2 222.5 57"/><path class="cls-2" d="M135.21752,125.08291l1.13792,81.16269,12.35355-.17681L147.66284,131.175l46.12143-34.84841-7.44694-9.8603Zm0,0"/><path class="cls-2" d="M113.29524,63,59.76308,103.44267v83.91625L143.78142,213l52.4555-40.53546V86.744ZM72.12077,178.21338V109.59321l43.698-33.01355L183.87949,96.057v70.342l-42.60036,32.9205Zm0,0"/><path class="cls-2" d="M139.73924,134.07413,64.24137,112.45586l3.40085-11.881L143.137,122.18408ZM108.09393,75.97062h12.35769V69.794H108.0978Zm0,0"/><path class="cls-2" d="M108.09393,95.4927h12.35769V83.7792H108.0978V95.49761Zm0,19.52181h12.35769V103.29713H108.0978v11.71738Zm0,19.527h12.35769V122.82826H108.0978v11.71325Zm0,13.98548h12.35769v-6.1769H108.0978Zm-45.349,29.33379,7.20084,10.03634,5.01545-3.596-7.19049-10.041ZM97.06416,168.464l-7.1998-10.03713,9.4728-6.79395,7.19955,10.04126ZM81.27924,179.7755,74.0797,169.73812l9.47152-6.79369,7.1998,10.04539Zm0,0"/><path class="cls-2" d="M112.84985,157.15139l-7.19954-10.04513,5.02863-3.5999,7.19567,10.04514Zm75.56947,18.23448-5.95666-1.64174,3.28271-11.91152,5.95589,1.641Zm-51.04408-14.07414-11.272-3.11,3.2817-11.91152,11.27224,3.1103Zm18.78483,5.18012-11.272-3.10616,3.28273-11.91617,11.272,3.11Zm18.79388,5.17909-11.28-3.10616,3.28169-11.91617,11.27715,3.11-3.28272,11.91229Zm0,0"/><path class="cls-2" d="M118.58937,156.1285l-5.95563-1.642,3.28194-11.91126,5.95667,1.641Zm0,0"/></svg>