<svg id="yaml" data-name="yaml" xmlns="http://www.w3.org/2000/svg" xmlns:xlink="http://www.w3.org/1999/xlink" viewBox="0 0 256 256"><defs><style>.cls-1{fill:none;}.cls-2{clip-path:url(#clip-path);}.cls-3{fill:#e9e9e0;}.cls-4{fill:#d9d7ca;}.cls-5{fill:#47b3b3;}.cls-6{fill:#fff;}</style><clipPath id="clip-path"><rect class="cls-1" x="29.76353" width="196.47294" height="256"/></clipPath></defs><title>yaml</title><g class="cls-2"><path class="cls-3" d="M168.82831.16221H36.40184c-3.68691,0-6.67574,2.98882-6.67574,8.7887V251.12467c0,1.57427,2.98883,4.56309,6.67574,4.56309H219.25849c3.68566,0,6.67448-2.98882,6.67448-4.56309V59.37983c0-3.17535-.42389-4.19753-1.17188-4.95051L171.66616,1.3344A4.0327,4.0327,0,0,0,168.82831.16221Zm0,0"/><path class="cls-4" d="M171.17739.85064V54.9178h54.06718Zm0,0"/><path class="cls-5" d="M219.25849,255.68776H36.40184A6.67573,6.67573,0,0,1,29.7261,249.012V178.11825H225.933V249.012a6.67546,6.67546,0,0,1-6.67448,6.67574Zm0,0"/></g><path class="cls-5" d="M125.9818,141.82142a10.47523,10.47523,0,0,1,2.80111,7.6888,11.2194,11.2194,0,0,1-3.49659,7.68881,10.5002,10.5002,0,0,1-7.6888,2.801c-2.80111,0-5.5927-.70447-6.99319-2.801-2.10549-2.09611-2.8011-4.19221-2.8011-7.68881s1.40049-5.59269,3.49659-7.6888a10.50121,10.50121,0,0,1,7.6888-2.80057,10.01625,10.01625,0,0,1,6.99318,2.80057ZM126.4763,60h17.14413a4.57646,4.57646,0,0,1,4.39333,5.85817l-18.28812,62.17841a4.57707,4.57707,0,0,1-4.39387,3.28608h-7.37759a4.5766,4.5766,0,0,1-4.53989-5.19876l8.531-62.1607a4.5768,4.5768,0,0,1,4.531-3.95435Zm0,0"/><path class="cls-6" d="M55.22656,242.64716v-19.582L39.88721,196.11884h9.91211l9.85449,18.4082,9.65527-18.4082h9.74024L63.65283,223.12763v19.51953Z"/><path class="cls-6" d="M121.49072,242.64716h-9.19824l-3.65625-10.56836H91.898l-3.45654,10.56836H79.47217l16.31054-46.52832h8.94043ZM105.92285,224.239l-5.77-17.26563L94.49707,224.239Z"/><path class="cls-6" d="M131.71045,242.64716V196.11884h12.6543l7.59863,31.73828,7.51172-31.73828h12.68261v46.52832h-7.85449v-36.626l-8.3125,36.626H147.8501l-8.28418-36.626v36.626Z"/><path class="cls-6" d="M186.63428,242.64716V196.4997h8.45508v38.30762h21.02343v7.83984Z"/></svg>