<?xml version="1.0" standalone="no"?><!DOCTYPE svg PUBLIC "-//W3C//DTD SVG 1.1//EN" "http://www.w3.org/Graphics/SVG/1.1/DTD/svg11.dtd"><svg t="1776404660558" class="icon" viewBox="0 0 1024 1024" version="1.1" xmlns="http://www.w3.org/2000/svg" p-id="1691" xmlns:xlink="http://www.w3.org/1999/xlink" width="256" height="256"><path d="M676.297143 0H145.609143C130.834286 0 118.857143 11.977143 118.857143 35.218286V1005.714286c0 6.308571 11.977143 18.285714 26.752 18.285714h732.781714c14.774857 0 26.752-11.977143 26.752-18.285714V237.312c0-12.726857-1.700571-16.822857-4.699428-19.84L687.670857 4.699429A16.164571 16.164571 0 0 0 676.297143 0z" fill="#E9E9E0" p-id="1692"></path><path d="M685.714286 2.761143V219.428571h216.667428z" fill="#D9D7CA" p-id="1693"></path><path d="M878.390857 1024H145.609143A26.752 26.752 0 0 1 118.857143 997.248V713.142857h786.285714v284.105143c0 14.774857-11.977143 26.752-26.752 26.752z" fill="#9777A8" p-id="1694"></path><path d="M311.241143 781.147429v143.506285c0 8.667429-1.590857 15.963429-4.754286 21.869715s-7.405714 10.660571-12.745143 14.244571-11.465143 6.089143-18.377143 7.497143a106.88 106.88 0 0 1-21.376 2.121143c-3.657143 0-7.972571-0.384-12.873142-1.133715s-10.002286-1.901714-15.250286-3.492571-10.294857-3.382857-15.122286-5.376-8.905143-4.242286-12.251428-6.747429l12.745142-20.242285c1.664 1.152 4.041143 2.377143 7.131429 3.620571s6.473143 2.413714 10.130286 3.492572 7.497143 2.029714 11.501714 2.870857 7.753143 1.243429 11.245714 1.243428c8.832 0 15.872-1.718857 21.12-5.12s8.027429-9.216 8.374857-17.371428v-141.001143h30.500572zM460.507429 918.637714c0 6.656-1.371429 13.129143-4.132572 19.382857s-6.619429 11.757714-11.629714 16.493715-11.154286 8.539429-18.505143 11.373714-15.652571 4.242286-24.996571 4.242286c-4.004571 0-8.118857-0.219429-12.379429-0.621715s-8.539429-1.133714-12.873143-2.121142c-4.333714-1.005714-8.466286-2.377143-12.379428-4.132572s-7.277714-3.876571-10.130286-6.381714l5.248-21.504c2.340571 1.334857 5.284571 2.633143 8.868571 3.876571s7.277714 2.413714 11.117715 3.492572 7.661714 1.956571 11.501714 2.633143 7.405714 1.005714 10.752 1.005714c10.166857 0 17.956571-2.377143 23.369143-7.131429s8.118857-11.794286 8.118857-21.12c0-5.668571-1.901714-10.496-5.741714-14.500571s-8.630857-7.625143-14.372572-10.88-11.958857-6.491429-18.633143-9.746286-12.909714-7.094857-18.742857-11.501714-10.660571-9.618286-14.500571-15.616-5.741714-13.494857-5.741715-22.491429c0-8.155429 1.499429-15.414857 4.498286-21.741714s7.04-11.721143 12.123429-16.128 11.008-7.789714 17.755428-10.130286 13.878857-3.492571 21.376-3.492571c7.661714 0 15.414857 0.713143 23.241143 2.121143s14.153143 3.712 18.998857 6.875428c-1.005714 2.157714-2.157714 4.534857-3.492571 7.131429l-3.748572 7.241143c-1.152 2.249143-2.157714 4.132571-2.998857 5.632s-1.334857 2.340571-1.499428 2.505143c-1.005714-0.493714-2.121143-1.152-3.382857-1.993143s-3.035429-1.664-5.376-2.505143-5.412571-1.408-9.252572-1.755429-8.758857-0.256-14.756571 0.256c-3.346286 0.347429-6.491429 1.28-9.508572 2.870857s-5.668571 3.529143-8.009143 5.869715-4.169143 4.955429-5.504 7.881143-1.993143 5.723429-1.993142 8.374857c0 6.656 1.901714 12.032 5.741714 16.128s8.594286 7.661714 14.244571 10.752 11.830857 6.089143 18.505143 8.996571 12.873143 6.473143 18.633143 10.624 10.532571 9.380571 14.372571 15.616 5.814857 14.281143 5.814858 24.118857zM641.499429 876.141714c0 15.506286-1.956571 29.165714-5.869715 40.996572s-9.344 21.668571-16.256 29.494857-14.994286 13.750857-24.246857 17.755428-19.382857 5.997714-30.372571 5.997715-21.12-1.993143-30.372572-5.997715-17.334857-9.910857-24.246857-17.755428-12.342857-17.664-16.256-29.494857-5.869714-25.508571-5.869714-40.996572 1.956571-29.129143 5.869714-40.868571 9.344-21.540571 16.256-29.366857 14.994286-13.787429 24.246857-17.883429 19.382857-6.125714 30.372572-6.125714 21.12 2.029714 30.372571 6.125714 17.334857 10.038857 24.246857 17.883429 12.342857 17.627429 16.256 29.366857 5.869714 25.362286 5.869715 40.868571z m-77.494858 69.76c6.162286 0 12.032-1.206857 17.627429-3.620571s10.587429-6.381714 14.994286-11.867429 7.881143-12.708571 10.368-21.632 3.84-19.785143 4.004571-32.621714c-0.164571-12.507429-1.462857-23.131429-3.876571-31.872s-5.741714-15.963429-10.002286-21.632-9.088-9.746286-14.500571-12.251429-11.117714-3.748571-17.133715-3.748571c-6.162286 0-12.032 1.152-17.627428 3.492571s-10.587429 6.290286-14.994286 11.867429-7.881143 12.781714-10.368 21.632c-2.505143 8.832-3.84 19.657143-4.004571 32.493714 0.164571 12.507429 1.462857 23.168 3.876571 32s5.741714 16.036571 10.002286 21.632 9.088 9.654857 14.500571 12.251429 11.136 3.876571 17.133714 3.876571zM817.005714 784.896V969.142857h-30.500571l-72.246857-126.994286V969.142857h-30.500572V784.896h30.500572l72.246857 126.994286v-126.994286h30.500571z" fill="#FFFFFF" p-id="1695"></path><path d="M356.571429 347.428571v-73.142857c0-10.075429 8.192-18.285714 18.285714-18.285714a18.285714 18.285714 0 1 0 0-36.571429c-30.244571 0-54.857143 24.612571-54.857143 54.857143v73.142857c0 20.169143-16.402286 36.571429-36.571429 36.571429a18.285714 18.285714 0 1 0 0 36.571429c20.169143 0 36.571429 16.402286 36.571429 36.571428v73.142857c0 30.244571 24.612571 54.857143 54.857143 54.857143a18.285714 18.285714 0 1 0 0-36.571428c-10.093714 0-18.285714-8.210286-18.285714-18.285715v-73.142857c0-21.942857-9.910857-41.435429-25.270858-54.857143a72.685714 72.685714 0 0 0 25.270858-54.857143z" fill="#9777A8" p-id="1696"></path><path d="M502.857143 338.285714m-27.428572 0a27.428571 27.428571 0 1 0 54.857143 0 27.428571 27.428571 0 1 0-54.857143 0Z" fill="#9777A8" p-id="1697"></path><path d="M722.285714 384c-20.169143 0-36.571429-16.402286-36.571428-36.571429v-73.142857c0-30.244571-24.612571-54.857143-54.857143-54.857143a18.285714 18.285714 0 1 0 0 36.571429c10.093714 0 18.285714 8.210286 18.285714 18.285714v73.142857c0 21.942857 9.910857 41.435429 25.270857 54.857143a72.685714 72.685714 0 0 0-25.270857 54.857143v73.142857c0 10.075429-8.192 18.285714-18.285714 18.285715a18.285714 18.285714 0 1 0 0 36.571428c30.244571 0 54.857143-24.612571 54.857143-54.857143v-73.142857c0-20.169143 16.402286-36.571429 36.571428-36.571428a18.285714 18.285714 0 1 0 0-36.571429zM502.857143 438.857143a18.285714 18.285714 0 0 0-18.285714 18.285714v54.857143a18.285714 18.285714 0 1 0 36.571428 0v-54.857143a18.285714 18.285714 0 0 0-18.285714-18.285714z" fill="#9777A8" p-id="1698"></path></svg>