<svg id="executable" data-name="executable" xmlns="http://www.w3.org/2000/svg" xmlns:xlink="http://www.w3.org/1999/xlink" viewBox="0 0 256 256"><defs><style>.cls-1{fill:#fff;stroke:#797774;stroke-linejoin:round;stroke-width:4px;}.cls-2{fill:url(#未命名的渐变_3);}.cls-3{fill:url(#未命名的渐变_2);}.cls-4{fill:#fafafa;}</style><linearGradient id="未命名的渐变_3" x1="-1106.08558" y1="-849.96205" x2="-1105.39372" y2="-848.8089" gradientTransform="translate(89781.2125 72431.18614) scale(81.1 85.1537)" gradientUnits="userSpaceOnUse"><stop offset="0" stop-color="#b0bac3"/><stop offset="1" stop-color="#94a0a6"/></linearGradient><linearGradient id="未命名的渐变_2" x1="-1101.19225" y1="-844.53801" x2="-1100.50039" y2="-843.38486" gradientTransform="translate(66437.0459 54298.76429) scale(60.2041 64.1361)" gradientUnits="userSpaceOnUse"><stop offset="0" stop-color="#727b83"/><stop offset="1" stop-color="#474b4d"/></linearGradient></defs><title>exe</title><polygon class="cls-1" points="222.5 254 33.5 254 33.5 2 167.5 2 222.5 57 222.5 254"/><polygon class="cls-1" points="222.5 57 167.5 57 167.5 2 222.5 57"/><path class="cls-2" d="M152.56228,118.77436c-.11533-6.8036-11.9928-11.07026-12.22342-15.22161C139.76228,97.787,151.8704,93.28968,152.447,88.33113c.46126-2.88289-7.03423-17.75856-11.99279-18.68108-4.036-.69189-10.955,3.45946-15.7982,4.036-5.76576,0-4.72792-17.182-8.07207-18.68108-3.11351-1.72973-18.91171-2.07568-21.90991.92252-4.61261,2.53694.46126,15.45225-7.95676,17.2973-5.3045.69189-10.14775-4.036-15.56757-3.57477C66.30643,70.8032,59.04157,83.6032,59.2722,88.1005c1.03784,5.41982,10.03243,8.764,11.53153,13.72252,1.61442,5.76577-10.72432,9.68649-11.76216,15.7982,0,2.76757,6.573,17.2973,11.64684,18.45045,5.88108,1.26847,10.955-5.18919,16.72072-3.45946,5.88108.92253,3.45946,15.33693,7.4955,17.98919,3.22883,1.96035,19.373,1.4991,21.67927-.23063,4.4973-4.61261,1.15316-13.60721,6.227-17.06667,4.72793-3.69009,11.87748,4.382,18.1045,2.65226,5.88108-2.76758,10.03242-12.6847,11.64685-17.182"/><path class="cls-3" d="M161.44155,133.18878c-16.14414,0-6.91892,9.22522-11.53153,13.83784-4.61261,5.76576-12.68468-10.37838-19.6036,4.61261-9.22523,13.83784,5.76576,12.68468,5.76576,19.6036,0,3.45946-14.991,4.61261-5.76576,18.45045,6.91892,13.83784,11.53153,0,18.45045,3.45946,5.76576,2.30631-4.61261,14.991,13.83784,13.83784,14.991,1.15315,6.91891-9.22523,11.53153-13.83784,5.76576-4.61261,11.53153,10.37838,19.6036-4.61261,8.07207-13.83784-5.76576-10.37838-5.76576-18.45045,0-5.76577,14.991-4.61261,5.76576-17.2973-8.07207-16.14414-12.68468-2.3063-18.45045-4.61261s2.30631-16.14414-13.83784-14.991"/><circle class="cls-4" cx="105.74425" cy="102.86085" r="12.33874"/><circle class="cls-4" cx="161.7875" cy="170.43563" r="12.33874"/></svg>