<svg id="javascript" data-name="javascript" xmlns="http://www.w3.org/2000/svg" viewBox="0 0 256 256"><defs><style>.cls-1{fill:#fffd8a;stroke:#797774;stroke-linejoin:round;stroke-width:4px;}.cls-2{fill:#f7df1e;}</style></defs><title>javascript</title><polygon class="cls-1" points="222.5 254 33.5 254 33.5 2 167.5 2 222.5 57 222.5 254"/><polygon class="cls-1" points="222.5 57 167.5 57 167.5 2 222.5 57"/><rect class="cls-2" x="64" y="74" width="128" height="128"/><path d="M149.98349,174.00051c2.57829,4.20977,5.93271,7.30413,11.8654,7.30413,4.98387,0,8.16762-2.49092,8.16762-5.9327,0-4.12444-3.27112-5.58527-8.75683-7.98476l-3.007-1.29016c-8.67962-3.69778-14.44572-8.33016-14.44572-18.12317,0-9.02095,6.8734-15.88826,17.61524-15.88826,7.6475,0,13.1454,2.66159,17.10731,9.63048l-9.36635,6.014c-2.06222-3.69778-4.287-5.15453-7.74095-5.15453-3.52305,0-5.75594,2.23492-5.75594,5.15453,0,3.60839,2.23493,5.06921,7.39556,7.30413l3.007,1.28813c10.21969,4.38248,15.98984,8.85029,15.98984,18.89524,0,10.82921-8.50692,16.76191-19.93143,16.76191-11.17054,0-18.3873-5.32318-21.91848-12.30019Zm-42.4899,1.04229c1.88952,3.35238,3.60838,6.18666,7.74095,6.18666,3.95175,0,6.4447-1.54615,6.4447-7.55809v-40.899h12.02794v41.06159c0,12.45461-7.3021,18.12317-17.96063,18.12317-9.63048,0-15.20762-4.98388-18.04394-10.98667Z"/></svg>