<svg id="python" data-name="python" xmlns="http://www.w3.org/2000/svg" xmlns:xlink="http://www.w3.org/1999/xlink" viewBox="0 0 256 256"><defs><style>.cls-1{fill:#f6f6f6;}.cls-2{fill:#656565;}.cls-3{fill:#9ca2a7;}.cls-4{fill:#d9ebf7;}.cls-5{fill:#ababac;}.cls-6{fill:#fff;}.cls-7{fill:url(#未命名的渐变_3);}.cls-8{fill:url(#未命名的渐变_2);}</style><linearGradient id="未命名的渐变_3" x1="614.84186" y1="676.6287" x2="774.38978" y2="813.89589" gradientTransform="translate(-281.8345 -296.66601) scale(0.5625 0.568)" gradientUnits="userSpaceOnUse"><stop offset="0" stop-color="#5a9fd4"/><stop offset="1" stop-color="#306998"/></linearGradient><linearGradient id="未命名的渐变_2" x1="836.04487" y1="896.98982" x2="779.07611" y2="816.38383" gradientTransform="translate(-281.8345 -296.66601) scale(0.5625 0.568)" gradientUnits="userSpaceOnUse"><stop offset="0" stop-color="#ffd43b"/><stop offset="1" stop-color="#ffe873"/></linearGradient></defs><title>python</title><g id="iconBg"><path class="cls-1" d="M145.245,8.53333H25.32607V230.4H187.45941V51.2768Z"/><path class="cls-2" d="M148.812,0H16.79274V238.93333h179.2V47.77813Zm-4.01921,8.53333h.45226L187.39114,51.2h-42.5984ZM187.45941,230.4H25.32607V8.53333H136.25941v51.2h51.2Z"/></g><g id="iconFg"><path class="cls-3" d="M83.21621,134.016a20.05334,20.05334,0,1,1,20.05334-20.05334A20.0738,20.0738,0,0,1,83.21621,134.016Zm0-38.4a18.35094,18.35094,0,1,0,18.34666,18.34667A18.36211,18.36211,0,0,0,83.21621,95.616Z"/><path class="cls-4" d="M119.6194,120.50773c.13654-.5888.26453-1.18613.36693-1.78346l11.74186-5.2736-.87894-8.66134-12.544-2.816c-.21333-.58026-.47787-1.14346-.73387-1.69813l-.22186-.47787,7.61173-10.5472-5.07733-7.05706-12.37334,3.8656c-.5888-.52054-1.2032-1.00694-1.81759-1.49334l1.28853-12.89386-7.92747-3.56694-8.8064,9.56587-.47786-.11093q-.91868-.22515-1.85173-.384l-5.2736-11.72479-8.66134.88746L71.17567,78.89921c-.41814.16213-.8192.34133-1.22027.5376l-.47786.21333L59.0242,71.91041,51.89887,76.911l3.712,12.43306c-.512.57174-1.0496,1.1776-1.55307,1.80907L41.20661,89.68534l-3.6608,7.89334,9.45493,8.91732-.04267.2048q-.2495,1.04274-.43519,2.0992l-11.83574,5.1712.78507,8.66134,12.48427,2.95253c.2048.57173.46933,1.1264.71679,1.65547l.256.57173-7.33866,9.984-.3584.50347,5.0176,7.09974,12.42454-3.75467c.59733.5376,1.17759,1.04106,1.78346,1.51893L59.03275,156.032l7.90186,3.64373,8.9088-9.48906.4096.08534c.63147.14506,1.27147.29013,1.92853.39252l5.1968,11.81867,8.66134-.81066,2.9184-12.50986c.64-.2304,1.2544-.52054,1.8432-.7936l.57173-.26454,10.53868,7.61174,7.05706-5.07733-3.85706-12.37334c.52906-.60586,1.024-1.21174,1.50187-1.83467l12.90239,1.28853,3.56693-7.92748-9.5744-8.81494ZM83.2162,134.016a20.05334,20.05334,0,1,1,20.05335-20.05334A20.07379,20.07379,0,0,1,83.2162,134.016Z"/><path class="cls-5" d="M83.37834,162.47467l-5.1968-11.81014q-1.01455-.16533-2.01387-.4096l-.32426-.06826-8.90027,9.48053-7.89334-3.64373,1.42507-12.85973q-.91767-.73295-1.78346-1.52748l-12.42454,3.74613-5.0176-7.09974,7.69707-10.47894-.2816-.6144c-.23894-.52054-.49493-1.05814-.69973-1.62134L35.48074,122.6325l-.77653-8.66133,11.83573-5.16267c.1024-.6656.256-1.31414.40107-1.9712l.0768-.3328-9.46347-8.91733,3.65227-7.89334L54.06634,91.1445c.49493-.6144,1.00693-1.19467,1.5616-1.80054l-3.712-12.4416,7.1168-4.992,10.45334,7.73973.44373-.2048c.4096-.18774.82773-.37547,1.2544-.5376l2.80747-12.5696,8.6528-.88747L87.93513,77.184a20.38791,20.38791,0,0,1,2.31253.49493l8.8064-9.5744,7.936,3.56694-1.30559,12.89386c.62293.46934,1.22026.96427,1.82613,1.4848l12.37334-3.8656,5.07733,7.05706-7.61173,10.54721q.1106.22233.2048.45227c.256.54613.52907,1.11786.7424,1.7152l12.55254,2.83306.87894,8.6528-11.74187,5.2736c-.10239.60587-.2304,1.19467-.36692,1.77493l-.11947.49494,9.5744,8.81494-3.57547,7.92747L112.605,136.43089q-.71757.94414-1.50187,1.83467l3.85706,12.37334-7.05706,5.07733-10.5472-7.61174-.59733.27307q-.88875.428-1.80907.78505L92.03968,161.664Zm-8.1152-14.16533,1.28854.28161a20.65945,20.65945,0,0,0,2.32106.45226l.47787.05974,5.0944,11.55413,6.21226-.57173L93.49888,147.84l.4608-.15359a15.35192,15.35192,0,0,0,2.08213-.86187c.3584-.17067.7168-.3328,1.08373-.48639l.44374-.18773,10.33386,7.45814,5.06027-3.64374L109.19168,137.839l.32427-.36693a30.15888,30.15888,0,0,0,2.01387-2.4576l.2816-.39253,12.62933,1.28,2.56-5.69173-9.37813-8.63573.1024-.46933.21333-.99841a18.32435,18.32435,0,0,0,.40107-2.08214l.05973-.47786,11.50293-5.16267-.62293-6.21226L116.98262,103.407l-.1536-.46933a16.21613,16.21613,0,0,0-.81921-1.98827q-.22629-.459-.42666-.93013l-.18772-.44374,7.45813-10.3424-3.64373-5.06027L107.0925,87.95311l-.3584-.32427q-1.18026-1.06074-2.4576-2.00533l-.384-.29018L105.164,72.704l-5.69173-2.56-8.63574,9.38667-.47786-.09386c-.34134-.06827-.68267-.1536-1.01547-.23041a19.40468,19.40468,0,0,0-2.09921-.4096l-.47786-.04267L81.58634,67.26827l-6.20373.63147L72.62634,80.19627l-.4608.1536a13.48937,13.48937,0,0,0-1.536.63147c-.31573.14507-.62293.29014-.9472.41813l-.44373.18774-10.24-7.59467-5.11147,3.584,3.6352,12.19413-.32427.3584q-1.09629,1.16318-2.08214,2.42347l-.29013.384L42.2306,91.51147l-2.61974,5.65761,9.2672,8.73813-.29014,1.28853a22.71277,22.71277,0,0,0-.44373,2.29547l-.05973.47787-11.58827,5.06027.5632,6.21227,12.2112,2.87573.14507.46934a15.77859,15.77859,0,0,0,.77653,1.87732c.1792.36693.34987.73387.50346,1.11787l.18774.44374-7.552,10.26559,3.60106,5.10293L59.101,139.70775l.3584.32426c.70827.64,1.52747,1.39094,2.4064,2.048l.384.29867-1.39093,12.5952,5.66612,2.61119ZM144.093,178.96107a11.52,11.52,0,0,1-.6188-23.03169q.31362-.00843.62733.00023a11.52,11.52,0,0,1-.00853,23.03146Zm0-21.33334a9.81333,9.81333,0,1,0,9.81333,9.81333A9.83117,9.83117,0,0,0,144.093,157.62773Z"/><path class="cls-4" d="M178.08127,170.9056v-6.92907l-10.8288-3.6096a23.44152,23.44152,0,0,0-1.792-4.30933l5.11146-10.20586-4.89813-4.89813L155.468,146.06507a23.97781,23.97781,0,0,0-4.30932-1.78346L147.549,133.46134h-6.92054l-3.6096,10.82027a23.9779,23.9779,0,0,0-4.30933,1.78346l-10.2144-5.11146-4.8896,4.89813L122.717,156.0576a23.44152,23.44152,0,0,0-1.792,4.30933l-10.82026,3.6096v6.92907l10.82026,3.60107a24.50443,24.50443,0,0,0,1.792,4.31787l-5.11145,10.20586,4.8896,4.89813,10.2144-5.12a23.44169,23.44169,0,0,0,4.30933,1.792l3.6096,10.82881H147.549l3.6096-10.82881a23.69024,23.69024,0,0,0,4.30933-1.792l10.20586,5.12,4.89813-4.89813-5.11148-10.20586a24.50047,24.50047,0,0,0,1.792-4.31787ZM144.093,178.95254a11.52,11.52,0,1,1,11.52-11.52A11.53736,11.53736,0,0,1,144.093,178.95254Z"/><path class="cls-5" d="M147.549,201.4208h-6.92054L137.01886,190.592a24.01238,24.01238,0,0,1-4.30932-1.78346L122.49513,193.92l-4.8896-4.89813L122.717,178.816a23.44152,23.44152,0,0,1-1.792-4.30933l-10.82881-3.6096V163.968l10.82881-3.60107a24.50443,24.50443,0,0,1,1.792-4.31787l-5.11146-10.20586,4.8896-4.8896,10.21441,5.11147a23.4416,23.4416,0,0,1,4.30932-1.792l3.60961-10.82881H147.549l3.6096,10.82881a23.442,23.442,0,0,1,4.30933,1.792l10.20585-5.11146,4.89813,4.8896-5.11147,10.20586a24.50078,24.50078,0,0,1,1.792,4.31787l10.82881,3.60108v6.92907l-10.82881,3.6096a23.44152,23.44152,0,0,1-1.792,4.30933l5.11146,10.20586L165.67378,193.92l-10.20586-5.11147a24.01247,24.01247,0,0,1-4.30933,1.78346Zm-5.68321-1.69813h4.44587l3.50719-10.51307.43521-.128a22.13359,22.13359,0,0,0,4.77866-1.97121l.39253-.22186,9.91574,4.95786,3.14879-3.14879-4.94933-9.91574.22186-.39253a22.41856,22.41856,0,0,0,1.97974-4.77866l.11946-.43521,10.51307-3.50719v-4.46294l-10.51307-3.49867-.11946-.4352a23.978,23.978,0,0,0-1.97974-4.78721l-.22186-.39253,4.94933-9.91574-3.14879-3.14026-9.91574,4.94933-.39253-.22186a22.41675,22.41675,0,0,0-4.77866-1.97974l-.42666-.11946-3.5072-10.51307h-4.44586l-3.5072,10.51307-.4352.11946a23.53535,23.53535,0,0,0-4.77866,1.97974l-.39253.22186-9.92427-4.94933-3.14027,3.14026,4.94934,9.91574-.22186.39253a22.82632,22.82632,0,0,0-1.97974,4.78721l-.11947.4352-10.51307,3.49867v4.45439l10.51307,3.5072.11947.4352a23.53367,23.53367,0,0,0,1.97974,4.77866l.22186.39253-4.94934,9.91574,3.14027,3.1488,9.92427-4.95786.39253.22186a21.14519,21.14519,0,0,0,4.77866,1.9712l.4352.128Z"/></g><g id="colorImportance"><path class="cls-6" d="M235.75807,188.27093c-2.96959,8.9856-8.5248,25.0624-27.70773,25.0624h-12.0576V224.5376c0,7.72267-2.85866,21.64907-25.30133,28.14293A75.59669,75.59669,0,0,1,149.09354,256a74.45263,74.45263,0,0,1-21.55519-3.34507c-16.3584-4.80426-25.41228-15.0528-25.41228-28.11733V213.33333H91.613c-14.49813,0-25.12213-9.73654-29.14987-26.53867-4.00213-16.60586-4.00213-25.7792,0-42.38506,3.84854-16.0512,16.72534-24.94293,32.81067-24.94293h6.85227V104.9856c0-17.10934,7.38986-24.27734,26.3424-27.63094C134.6722,76.26239,141.31968,76.8,148.32554,76.8h.0256c7.85919,0,14.53226-.59733,21.36746.54613,15.51361,2.57707,26.27414,13.52534,26.27414,27.63947v14.48107h12.0576c9.74507,0,22.49386,3.03787,27.904,24.84907C240.349,161.99681,240.29782,174.67734,235.75807,188.27093Z"/><path id="path1948" class="cls-7" d="M148.36821,82.98667a112.1626,112.1626,0,0,0-18.74774,1.60426c-16.60586,2.93547-19.61813,9.07094-19.61813,20.39467v14.95893h39.23627V124.928H95.27381c-11.40054,0-21.39307,6.85227-24.51627,19.8912-3.60106,14.94186-3.7632,24.2688,0,39.87627,2.7904,11.61387,9.45493,19.89119,20.85547,19.89119h13.4912V186.65812c0-12.9536,11.20427-24.37973,24.51626-24.37973h39.19361a19.77313,19.77313,0,0,0,19.61813-19.9424V104.96852c0-10.63253-8.96854-18.61973-19.61813-20.39467A124.38657,124.38657,0,0,0,148.36821,82.98667Zm-21.22239,12.032a7.48036,7.48036,0,1,1-7.36433,7.50963l.00005-.00883A7.43938,7.43938,0,0,1,127.14582,95.01867Z"/><path id="path1950" class="cls-8" d="M193.32181,124.928v17.42507c0,13.50827-11.45173,24.87467-24.51626,24.87467H129.612c-10.73493,0-19.61814,9.1904-19.61814,19.9424V224.5376c0,10.63253,9.25013,16.88747,19.61814,19.9424,12.42452,3.65226,24.32853,4.30932,39.1936,0,9.88159-2.85866,19.61813-8.61867,19.61813-19.9424V209.57866h-39.1936V204.5952h58.81173c11.40054,0,15.65013-7.95306,19.61813-19.8912,4.096-12.288,3.92533-24.1152,0-39.87627-2.816-11.34933-8.20053-19.89119-19.61813-19.89119h-14.72Zm-22.0416,94.62614a7.48038,7.48038,0,0,1,.00063,14.95894h-.00063a7.48037,7.48037,0,0,1,0-14.95894Z"/></g></svg>