<svg id="java" data-name="java" xmlns="http://www.w3.org/2000/svg" viewBox="0 0 256 256"><defs><style>.cls-1{fill:#fff;stroke:#797774;stroke-linejoin:round;stroke-width:4px;}.cls-2{fill:#0074bd;}.cls-3{fill:#ea2d2e;}</style></defs><title>java</title><polygon class="cls-1" points="222.5 254 33.5 254 33.5 2 167.5 2 222.5 57 222.5 254"/><polygon class="cls-1" points="222.5 57 167.5 57 167.5 2 222.5 57"/><path class="cls-2" d="M100.3754,181.202s-6.87388,4.00023,4.89788,5.34941c14.26441,1.62993,21.55446,1.39582,37.26944-1.5745a65.2993,65.2993,0,0,0,9.91112,4.83187c-35.2414,15.09785-79.75513-.8749-52.07844-8.60678Zm-4.30913-19.7053s-7.71161,5.70856,4.07075,6.92841c15.23754,1.57359,27.26909,1.70225,48.09735-2.30677a21.25625,21.25625,0,0,0,7.40022,4.51507c-42.60014,12.45921-90.04815.98035-59.56832-9.13671Zm0,0"/><path class="cls-3" d="M132.36641,128.06481c8.68788,10.001-2.2786,18.99151-2.2786,18.99151s22.04653-11.37927,11.92407-25.63466c-9.458-13.28836-16.7084-19.88849,22.54561-42.6549,0,.0018-61.61824,15.38648-32.19108,49.298Zm0,0"/><path class="cls-2" d="M178.97308,195.7787s5.08895,4.19648-5.60649,7.43987c-20.3346,6.16009-84.6548,8.01713-102.51794.24628-6.41874-2.79435,5.62227-6.66953,9.41047-7.4872a24.60052,24.60052,0,0,1,6.20493-.69892c-7.14223-5.02811-46.163,9.87777-19.817,14.15356,71.84164,11.64491,130.95844-5.24464,112.32608-13.65359Zm-75.28827-54.702S70.971,148.84734,92.10119,151.67256c8.92289,1.19348,26.70333.91972,43.27631-.47092,13.54-1.13692,27.12828-3.56717,27.12828-3.56717a57.786,57.786,0,0,0-8.22578,4.40242c-33.22663,8.73994-97.399,4.66918-78.92236-4.265,15.61968-7.555,28.32717-6.69522,28.32717-6.69522Zm58.68555,32.80079c33.77324-17.54454,18.15627-34.40615,7.25579-32.13544a25.3551,25.3551,0,0,0-3.8603,1.03848,6.13952,6.13952,0,0,1,2.88424-2.225c21.56234-7.57776,38.14232,22.35544-6.955,34.21171a3.06557,3.06557,0,0,0,.67526-.88977Zm0,0"/><path class="cls-3" d="M142.01188,42s18.70017,18.71165-17.74079,47.47526C95.04717,112.556,117.60764,125.713,124.2605,140.752c-17.06056-15.391-29.57428-28.9416-21.18043-41.552,12.32626-18.50664,46.47464-27.48313,38.93181-57.2Zm0,0"/><path class="cls-2" d="M107.00369,221.43545c32.411,2.072,82.19482-1.15383,83.37321-16.491,0,0-2.2653,5.81424-26.78849,10.42686-27.6661,5.20859-61.796,4.60137-82.031,1.26041,0,.0018,4.14534,3.43334,25.44631,4.8037Zm0,0"/></svg>