<svg id="c" data-name="c" xmlns="http://www.w3.org/2000/svg" viewBox="0 0 256 256"><defs><style>.cls-1,.cls-4{fill:#fff;}.cls-1{stroke:#797774;stroke-linejoin:round;stroke-width:4px;}.cls-2{fill:#004482;}.cls-2,.cls-3,.cls-4,.cls-5{fill-rule:evenodd;}.cls-3{fill:#659ad2;}.cls-5{fill:#00599c;}</style></defs><title>c</title><polygon class="cls-1" points="222.5 254 33.5 254 33.5 2 167.5 2 222.5 57 222.5 254"/><polygon class="cls-1" points="222.5 57 167.5 57 167.5 2 222.5 57"/><path id="path2" class="cls-2" d="M123.95139,61.55652a8.29124,8.29124,0,0,1,8.09321,0c12.38153,6.94916,49.64056,27.86677,62.02578,34.81593a7.82162,7.82162,0,0,1,4.04845,6.81261v69.62817a7.83183,7.83183,0,0,1-4.04845,6.8163c-12.38154,6.94916-49.64056,27.86676-62.02578,34.81592a8.29124,8.29124,0,0,1-8.09321,0c-12.38154-6.94916-49.64056-27.86676-62.02579-34.81592a7.83,7.83,0,0,1-4.04476-6.81262V103.18874a7.83185,7.83185,0,0,1,4.04845-6.8163c12.37785-6.94916,49.64425-27.86677,62.0221-34.81593Z"/><path id="path4" class="cls-3" d="M59.00274,176.39667a6.3456,6.3456,0,0,1-1.1219-4.24035v-69.2296A7.77685,7.77685,0,0,1,61.91822,96.151c12.33725-6.90856,49.47079-27.70438,61.808-34.61664a8.89467,8.89467,0,0,1,8.38107.02953c12.33725,6.90856,49.34533,27.52724,61.68257,34.43581a7.72245,7.72245,0,0,1,2.43572,2.12571Z"/><path id="path6" class="cls-4" d="M127.99984,86.33436A51.66663,51.66663,0,1,1,76.33321,138.001,51.6902,51.6902,0,0,1,127.99984,86.33436Zm0,25.83332A25.83331,25.83331,0,1,1,102.16652,138.001,25.8451,25.8451,0,0,1,127.99984,112.16768Z"/><path id="path8" class="cls-5" d="M196.21824,98.16233c1.90428,1.7825,1.86738,4.46916,1.86738,6.5838,0,14.00535-.1181,53.84032.03321,67.84567a8.01634,8.01634,0,0,1-1.192,4.15917l-70.429-38.75Z"/></svg>