<?xml version="1.0" standalone="no"?><!DOCTYPE svg PUBLIC "-//W3C//DTD SVG 1.1//EN" "http://www.w3.org/Graphics/SVG/1.1/DTD/svg11.dtd"><svg t="1776415331792" class="icon" viewBox="0 0 1024 1024" version="1.1" xmlns="http://www.w3.org/2000/svg" p-id="90267" xmlns:xlink="http://www.w3.org/1999/xlink" width="256" height="256"><path d="M676.297143 0H145.609143C130.834286 0 118.857143 11.977143 118.857143 35.218286V1005.714286c0 6.308571 11.977143 18.285714 26.752 18.285714h732.781714c14.774857 0 26.752-11.977143 26.752-18.285714V237.312c0-12.726857-1.700571-16.822857-4.699428-19.84L687.670857 4.699429A16.164571 16.164571 0 0 0 676.297143 0z" fill="#E9E9E0" p-id="90268"></path><path d="M685.714286 2.761143V219.428571h216.667428z" fill="#D9D7CA" p-id="90269"></path><path d="M878.390857 1024H145.609143A26.752 26.752 0 0 1 118.857143 997.248V713.142857h786.285714v284.105143c0 14.774857-11.977143 26.752-26.752 26.752z" fill="#E57E25" p-id="90270"></path><path d="M392.393143 918.637714c0 6.656-1.371429 13.129143-4.132572 19.382857s-6.619429 11.757714-11.629714 16.493715-11.154286 8.539429-18.505143 11.373714-15.652571 4.242286-24.996571 4.242286c-4.004571 0-8.118857-0.219429-12.379429-0.621715s-8.539429-1.133714-12.873143-2.121142-8.466286-2.377143-12.379428-4.132572-7.277714-3.876571-10.130286-6.381714l5.248-21.504c2.340571 1.334857 5.284571 2.633143 8.868572 3.876571s7.277714 2.413714 11.117714 3.492572 7.661714 1.956571 11.501714 2.633143 7.405714 1.005714 10.752 1.005714c10.166857 0 17.956571-2.377143 23.369143-7.131429 5.412571-4.754286 8.118857-11.794286 8.118857-21.12 0-5.668571-1.901714-10.496-5.741714-14.500571s-8.630857-7.625143-14.372572-10.88-11.958857-6.491429-18.633142-9.746286-12.909714-7.094857-18.742858-11.501714-10.660571-9.618286-14.500571-15.616-5.741714-13.494857-5.741714-22.491429c0-8.155429 1.499429-15.414857 4.498285-21.741714s7.04-11.721143 12.123429-16.128 11.008-7.789714 17.755429-10.130286 13.878857-3.492571 21.376-3.492571c7.661714 0 15.414857 0.713143 23.241142 2.121143s14.153143 3.712 18.998858 6.875428c-1.005714 2.157714-2.157714 4.534857-3.492572 7.131429l-3.748571 7.241143c-1.152 2.249143-2.157714 4.132571-2.998857 5.632s-1.334857 2.340571-1.499429 2.505143c-1.005714-0.493714-2.121143-1.152-3.382857-1.993143s-3.035429-1.664-5.376-2.505143-5.412571-1.408-9.252572-1.755429-8.758857-0.256-14.756571 0.256c-3.346286 0.347429-6.491429 1.28-9.508571 2.870857s-5.668571 3.529143-8.009143 5.869715-4.169143 4.955429-5.504 7.881143-1.993143 5.723429-1.993143 8.374857c0 6.656 1.901714 12.032 5.741714 16.128s8.594286 7.661714 14.244572 10.752 11.830857 6.089143 18.505142 8.996571 12.873143 6.473143 18.633143 10.624 10.532571 9.380571 14.372572 15.616 5.814857 14.281143 5.814857 24.118857zM472.886857 970.148571L415.634286 784.896h34.249143l42.752 158.994286 45.257142-158.994286h33.993143l-59.995428 185.252571h-39.003429zM743.643429 874.148571v71.241143c-3.84 4.845714-8.118857 8.777143-12.873143 11.867429s-9.746286 5.632-14.994286 7.625143-10.660571 3.419429-16.256 4.260571-11.117714 1.243429-16.621714 1.243429c-11.008 0-21.12-1.993143-30.372572-5.997715s-17.334857-9.910857-24.246857-17.755428-12.342857-17.664-16.256-29.494857-5.869714-25.508571-5.869714-40.996572 1.956571-29.129143 5.869714-40.868571 9.344-21.540571 16.256-29.366857 15.030857-13.787429 24.374857-17.883429 19.419429-6.125714 30.244572-6.125714c10.002286 0 19.346286 1.664 27.995428 4.992s16.402286 8.338286 23.241143 14.994286l-20.754286 18.505142c-4.004571-4.845714-8.594286-8.338286-13.750857-10.496s-10.496-3.254857-16-3.254857c-6.162286 0-12.032 1.152-17.627428 3.492572s-10.587429 6.290286-14.994286 11.867428-7.881143 12.781714-10.368 21.632-3.84 19.657143-4.004571 32.493715c0.164571 12.507429 1.462857 23.332571 3.876571 32.493714s5.741714 16.658286 10.002286 22.491428 9.088 10.166857 14.500571 13.001143 11.117714 4.242286 17.133714 4.242286c1.846857 0 4.278857-0.128 7.369143-0.384s6.162286-0.658286 9.252572-1.243429 6.034286-1.371429 8.868571-2.377142 4.918857-2.413714 6.253714-4.242286v-45.494857h-31.250285v-20.498286h61.001143z" fill="#FFFFFF" p-id="90271"></path><path d="M832 402.285714v-109.714285h-109.714286v36.571428h-109.714285v-73.142857h-182.857143v73.142857h-109.714286v-36.571428h-109.714286v109.714285h109.714286v-36.571428h64.877714c-83.492571 48.201143-138.020571 138.752-138.020571 237.714285a18.285714 18.285714 0 1 0 36.571428 0c0-95.926857 59.044571-182.838857 146.285715-219.337142V438.857143h182.857143v-54.765714c87.241143 36.516571 146.285714 123.428571 146.285714 219.337142a18.285714 18.285714 0 1 0 36.571428 0c0-98.962286-54.528-189.513143-138.020571-237.714285H722.285714v36.571428h109.714286z m-548.571429-36.571428h-36.571428v-36.571429h36.571428v36.571429z m292.571429 36.571428h-109.714286v-109.714285h109.714286v109.714285z m182.857143-73.142857h36.571428v36.571429h-36.571428v-36.571429z" fill="#C8BDB8" p-id="90272"></path></svg>