<svg id="markdown" data-name="markdown" xmlns="http://www.w3.org/2000/svg" xmlns:xlink="http://www.w3.org/1999/xlink" viewBox="0 0 256 256"><defs><style>.cls-1{fill:none;}.cls-2{clip-path:url(#clip-path);}.cls-3{fill:#e9e9e0;}.cls-4{fill:#d9d7ca;}.cls-5{fill:#72007f;}.cls-6{fill:#fff;}.cls-7{fill:#888;}</style><clipPath id="clip-path"><rect class="cls-1" x="29.76353" width="196.47294" height="256"/></clipPath></defs><title>md</title><g class="cls-2"><path class="cls-3" d="M168.82831.16221H36.40184c-3.68691,0-6.67574,2.98882-6.67574,8.7887V251.12467c0,1.57427,2.98883,4.56309,6.67574,4.56309H219.25849c3.68566,0,6.67448-2.98882,6.67448-4.56309V59.37983c0-3.17535-.42389-4.19753-1.17188-4.95051L171.66616,1.3344A4.0327,4.0327,0,0,0,168.82831.16221Zm0,0"/><path class="cls-4" d="M171.17739.85064V54.9178h54.06718Zm0,0"/><path class="cls-5" d="M219.25849,255.68776H36.40184A6.67573,6.67573,0,0,1,29.7261,249.012V178.11825H225.933V249.012a6.67546,6.67546,0,0,1-6.67448,6.67574Zm0,0"/></g><path class="cls-6" d="M83.11377,242.64746V196.11914h12.6543l7.59765,31.73828,7.5127-31.73828H123.561v46.52832h-7.85547v-36.626l-8.31153,36.626h-8.1416l-8.2832-36.626v36.626Z"/><path class="cls-6" d="M137.78076,196.11914h15.45313a27.3169,27.3169,0,0,1,7.96972.88867,13.85317,13.85317,0,0,1,6.3125,4.28516,20.90936,20.90936,0,0,1,3.999,7.53711,37.89225,37.89225,0,0,1,1.37109,10.99707,33.74119,33.74119,0,0,1-1.28516,9.90234,21.02441,21.02441,0,0,1-4.48437,8.22071,14.569,14.569,0,0,1-5.94141,3.71289,23.17073,23.17073,0,0,1-7.48437.98437H137.78076Zm8.45508,7.87109v30.81739h6.3125a20.834,20.834,0,0,0,5.11328-.44336,7.55561,7.55561,0,0,0,3.41309-1.93653,10.1806,10.1806,0,0,0,2.21386-4.49121,33.55323,33.55323,0,0,0,.85743-8.52148,30.71347,30.71347,0,0,0-.85743-8.2832,10.92351,10.92351,0,0,0-2.39941-4.50684,7.78157,7.78157,0,0,0-3.91309-2.19043,34.60687,34.60687,0,0,0-6.9414-.44434Z"/><path class="cls-7" d="M178.9715,146.77112H76.65188A8.5129,8.5129,0,0,1,68,138.11938V81.88076a8.513,8.513,0,0,1,8.65188-8.65188H179.34812A8.513,8.513,0,0,1,188,81.88076v56.6145c0,4.514-4.13807,8.27586-9.0285,8.27586Zm-82.00587-17.116V107.08435l11.66128,14.29494,11.66143-14.29494v22.57079h11.2854V90.53324H119.91231L108.251,104.82744,96.58916,90.53324H84.92773v39.31014Zm77.116-19.56124H162.4198V90.53324H150.75837V110.0939h-11.473l17.30377,20.31375Zm0,0"/></svg>