<svg id="math" data-name="math" xmlns="http://www.w3.org/2000/svg" viewBox="0 0 256 256"><defs><style>.cls-1{fill:#fff;stroke:#797774;stroke-linejoin:round;stroke-width:4px;}.cls-2{fill:#333;}</style></defs><title>math</title><polygon class="cls-1" points="222.5 254 33.5 254 33.5 2 167.5 2 222.5 57 222.5 254"/><polygon class="cls-1" points="222.5 57 167.5 57 167.5 2 222.5 57"/><path class="cls-2" d="M124.92974,109.93826h-15.0216c1.95566-9.50155,3.7063-16.23016,5.25316-20.3279,2.95982-7.35056,6.39953-10.54165,10.09738-10.54165a2.46869,2.46869,0,0,1,2.15959,1.0401,16.13812,16.13812,0,0,0-1.28,4.92423,5.95643,5.95643,0,0,0,6.22186,6.03511,5.89307,5.89307,0,0,0,4.91563-2.35569,8,8,0,0,0,1.67985-4.79047,8.82709,8.82709,0,0,0-3.84006-7.00443,14.1614,14.1614,0,0,0-9.11041-2.91528c-7.884,0-14.40811,4.23073-19.59892,12.346-3.43127,5.20878-6.46188,13.04814-9.15495,23.44774H84.46068l-1.35075,6.72861h12.4437L83.65186,174.79686a68.98072,68.98072,0,0,1-3.76865,13.18128c-2.6662,6.10652-5.5907,8.675-8.81742,8.675a1.77618,1.77618,0,0,1-1.68829-.76413l.54193-.96885a6.08684,6.08684,0,0,0,.80883-2.98669,6.312,6.312,0,0,0-1.88425-4.64889,6.64285,6.64285,0,0,0-4.58669-1.77751,5.39377,5.39377,0,0,0-4.71061,2.22256A7.47994,7.47994,0,0,0,58,192.21792a8.88926,8.88926,0,0,0,3.43111,6.791,12.11643,12.11643,0,0,0,8.48832,2.98669c7.40368,0,13.39489-3.95554,17.97236-11.65284,4.57747-7.56417,8.15079-17.41246,10.844-29.5541l9.69688-44.19318h15.01254ZM173.469,119.0932s.26676.07079.67571.21315c.40894.1422.88868.27581,1.34231.48035l1.77752.62195c.54208.21313,1.07556.41754,1.54671.55973a12.52246,12.52246,0,0,0,1.68844.14235,5.91093,5.91093,0,0,0,3.9732-1.39543,5.42678,5.42678,0,0,0-1.57312-8.666,10.414,10.414,0,0,0-4.11541-.6935,11.03865,11.03865,0,0,0-5.65288,1.66218,26.18017,26.18017,0,0,0-5.91979,4.71969,103.8574,103.8574,0,0,0-8.15032,9.84844l-.94244-4.64888c-1.01321-4.71983-2.22193-7.99953-3.83942-9.84845a6.59862,6.59862,0,0,0-4.978-1.77753,23.926,23.926,0,0,0-4.51512.55116c-1.61766.34675-3.43111.83571-5.38631,1.45779l-8.34611,2.56853,1.14636,3.46659,4.71108-1.03963a19.23854,19.23854,0,0,1,3.43064-.55116c1.68891,0,2.55994.41755,2.95983.9687a21.16636,21.16636,0,0,1,2.1602,5.2441q1.30653,4.15962,2.82621,10.20426c.88884,3.395,1.35092,5.33255,1.48452,5.96371-5.72446,7.422-9.43076,12.07085-11.04841,14.00822a53.66144,53.66144,0,0,1-4.57748,5.13722,2.98147,2.98147,0,0,1-1.88439.48895l-1.37764-.2844-2.35554-1.11105a7.4193,7.4193,0,0,0-1.95519-.75569,5.52319,5.52319,0,0,0-1.91113-.28441,7.11251,7.11251,0,0,0-3.84864,1.20918,4.36385,4.36385,0,0,0-2.01754,3.99945,6.12266,6.12266,0,0,0,1.01338,3.46659c1.27934,1.94659,3.635,2.84449,6.72846,2.84449a10.49124,10.49124,0,0,0,5.99058-1.59985,45,45,0,0,0,6.47109-5.75071l12.58544-14.63954,3.63551,12.96829a20.63865,20.63865,0,0,0,2.35553,5.75977,7.11006,7.11006,0,0,0,6.222,3.33283c3.9732,0,7.99935-2.36414,11.91881-6.52407a49.37038,49.37038,0,0,0,6.12434-8.11485l.47114-.76413-3.5019-1.87581-.53349.69335a69.19394,69.19394,0,0,1-5.61757,6.38187,4.44461,4.44461,0,0,1-2.96,1.529c-.60427,0-1.54607-.55114-2.55931-2.66681a42.09752,42.09752,0,0,1-2.22255-7.0038l-2.764-10.40882a54.62285,54.62285,0,0,1-1.20857-5.68836c0-.34675,1.48388-2.66635,5.18175-7.49276,3.43971-5.06642,5.9998-6.87082,7.34148-6.87082Zm0,0"/></svg>