<svg id="music" data-name="music" xmlns="http://www.w3.org/2000/svg" xmlns:xlink="http://www.w3.org/1999/xlink" viewBox="0 0 256 256"><defs><style>.cls-1{fill:#fff;stroke:#797774;stroke-linejoin:round;stroke-width:4px;}.cls-2{fill:url(#未命名的渐变_9);}.cls-3{fill:url(#未命名的渐变_2);}.cls-4{fill:url(#未命名的渐变_3);}</style><radialGradient id="未命名的渐变_9" cx="158.4445" cy="201.76378" r="6.19276" gradientTransform="matrix(12.89817, -9.0315, -9.59623, -13.70483, -7.24019, 4295.16893)" gradientUnits="userSpaceOnUse"><stop offset="0" stop-color="#494b48"/><stop offset="1" stop-color="#222526"/></radialGradient><radialGradient id="未命名的渐变_2" cx="359.83629" cy="-293.43028" r="8.8133" gradientTransform="matrix(4.55707, -3.19089, -3.29119, -4.70456, -2490.54902, -114.53293)" gradientUnits="userSpaceOnUse"><stop offset="0" stop-color="#fff"/><stop offset="0.19131" stop-color="#fcfcfc"/><stop offset="1" stop-color="#cecece"/></radialGradient><radialGradient id="未命名的渐变_3" cx="378.13472" cy="-266.29527" r="23.40377" gradientTransform="matrix(-5.13685, 3.59686, 2.97344, 4.24651, 2828.33576, -138.9922)" gradientUnits="userSpaceOnUse"><stop offset="0" stop-color="#fc904d"/><stop offset="0.23305" stop-color="#f78f52"/><stop offset="1" stop-color="#8862c2"/></radialGradient></defs><title>music</title><polygon class="cls-1" points="222.5 254 33.5 254 33.5 2 167.5 2 222.5 57 222.5 254"/><polygon class="cls-1" points="222.5 57 167.5 57 167.5 2 222.5 57"/><g id="layer1"><g id="g9218"><path id="path9162" class="cls-2" d="M191.97893,137.99844A63.97851,63.97851,0,0,1,128.00041,201.977h0a63.97852,63.97852,0,1,1,63.97852-63.97852Z"/><path id="circle9164" class="cls-3" d="M114.9842,117.72707a24.09088,24.09088,0,0,0,13.01606,44.36271h.00018A24.09087,24.09087,0,0,0,152.091,137.99854v-.00042a24.09035,24.09035,0,0,0-37.10677-20.27105Zm8.72962,13.59563a7.93379,7.93379,0,0,1,12.22081,6.67556v.00044a7.93387,7.93387,0,0,1-7.93433,7.93339h-.0002a7.93342,7.93342,0,0,1-4.28629-14.60939Z"/><path id="circle9169" class="cls-4" d="M90.98016,85.82517a64.013,64.013,0,1,0,86.13551,11.19539l-21.60508,15.128,6.1902,8.84052,12.78135-8.94961a53.11724,53.11724,0,1,1-18.67108-19.44l9.43788-6.60847a63.85515,63.85515,0,0,0-74.26878-.16584Z"/></g></g></svg>