<svg id="doc" data-name="doc" xmlns="http://www.w3.org/2000/svg" viewBox="0 0 256 256"><defs><style>.cls-1{fill:#fff;}.cls-2{fill:#999898;}.cls-3{fill:#676566;}.cls-4{fill:#295595;}</style></defs><title>doc</title><path class="cls-1" d="M65.19016,237.0974v-16.002H1.18114V86.22153h64.009V2.78129H199.511l55.4166,55.45113v194.8609H65.19016Z"/><path class="cls-2" d="M63.97882,238.29986c0-13.46194.05617-16.43838.05617-16.43838l3.46007.14818-.08728,28.863H252.57037V61.13524H242.28368c-8.2602,0-25.98806-.06262-25.98806-.06262l-6.6506-3.6693,41.81253-.26828L199.99377,5.71871V16.28193c0,8.62741-.04534,15.63181-.04534,15.63181s-3.38355-3.73535-3.38355.07475,3.32172,1.06371,3.32172,1.06371.10711,5.60385.10711,10.93776.01728,11.6177.01728,11.6177-3.44538-3.42626-3.44538.38364v5.14335H87.98315V50.848H196.5656V37.132H87.98315V26.84534H196.5656V5.12842H67.40713l.17455,81.898-3.63463-.2311s.03026-7.05582.03026-43.37683V1.69919H200.5834L256,57.15033V254.30081H63.97731ZM87.98144,225.727v-3.429h24.57418c21.08188,0,10.05948-.8887,10.05948-2.35957,0-1.49646,20.54707-1.06931,61.94838-1.06931h47.43325v10.2867H87.98183Zm49.14829-25.71719v-5.14342h94.86653v10.28672H137.12975Zm0-24.00269v-5.14341h94.86653v10.28668H137.12975Zm0-24.00268v-5.14336h94.86653v10.28676H137.12975Zm0-24.00261V122.8585h94.86653v10.28669H137.12975Zm0-24.00262V98.85588h94.86653v10.2867H137.12975ZM87.98144,79.99662V74.85327H231.99632V85.14H87.98144Z"/><path class="cls-3" d="M196.55867,55.997c0-3.81.00093-5.14335.00093-5.14335l3.428-.03454v6.45794h31.76473l.11536,3.81616s-2.60685.04535-17.59267.04535H196.55887Zm.00085-18.85927V26.85108l3.36629.07428.01727,10.21241Z"/><path class="cls-4" d="M0,153.758V85.17846H137.15907V222.33754H0Zm126.87324,16.57352V128.61224H124.225c-2.30955,0-4.93083,4.348-20.4991,34.00428l-17.851,34.00421-20.662.65667-.63333-33.03787-19,32.95323H27.43217V128.61323H18.28809V114.89731h41.1477v13.71592H49.14909l.18919,24.57419,18.486-38.29H86.868l.0259,39.43318,7.36556-12.57285,7.36556-12.57284-7.90167-.70934V114.89784H126.87V95.46707H10.28267V212.0544h116.5874Z"/></svg>