<svg id="pptx" data-name="pptx" xmlns="http://www.w3.org/2000/svg" viewBox="0 0 256 256"><defs><style>.cls-1{fill:#fff;}.cls-2{fill:#f3b79a;}.cls-3{fill:#9a9999;}.cls-4{fill:#ce4525;}</style></defs><title>pptx</title><path class="cls-1" d="M45.86066,236.52466,45.5415,218.2803l-14.19006-1.64692-14.19-1.647V92.99513l14.19-1.647,14.19006-1.647.30339-44.30767.3034-44.30774H182.24706l28.08165,28.09922,28.08163,28.09921V254.769H46.17955Z"/><path class="cls-2" d="M69.50226,228.90385c0-4.50482.00789-5.31262.00789-5.31262l10.31846-.01315L79.92755,233.99H69.50225Zm20.85067.45362c0-2.54839-.26869-5.34262.2091-5.32237.47783.02191,7.00174,1.51124,13.69133,2.42654,15.53968,2.12611-4.863,1.41907-4.863-1.30483,0-2.27949,20.69412-1.59108,67.99427-1.59108H215.457V233.9911H90.35291Zm28.95929-24.905v-5.21262H215.457v10.42537H119.3122Zm0-24.32578v-5.21261H215.457v10.42537H119.3122Zm0-24.32576v-5.21261H215.457v10.42537H119.3122Zm30.11764-100.3604V33.27014l6.33485.243c7.08692,1.08805,15.65041,3.06679,19.57538,6.75406,4.22244,3.78835,6.78366,5.31,4.20741,12.64074l4.04842,5.85534,5.85473-.73612a39.4102,39.4102,0,0,1,2.89875,5.76175,44.878,44.878,0,0,1,1.37951,9.91458l.04158,3.90746h-44.3408Z"/><path class="cls-3" d="M45.17646,237.46605c0-7.8512-.17162-18.65982.06624-21.33054s.67224-3.37855,1.45839-3.37855c2.31566-2.695,1.95049,3.5946,1.95049,22.97149v16.79638H236.3077V60.23529H179.5475V3.4751H48.65158V46.33482c0,55.37159-.38409,80.33641-1.89726,80.33641-1.5144,0-1.57786-25.26437-1.57786-82.074V0H182.46082l28.661,28.67821,28.661,28.67821V256H45.17646ZM235.14931,56.4609c0-.1646-11.72852-12.019-26.06336-26.34332L183.0226,4.07353V56.76012H209.086c14.33482,0,26.06335-.13488,26.06335-.299ZM132.22363,127.4978a62.81,62.81,0,0,1-8.39817-3.02718l-4.51329-2.0352V79.66061l-6.66063.77393c-3.66333.42555-8.4122,1.07582-10.553,1.44471L98.20621,82.55l.78184-5.07594c2.76374-17.94273,19.33246-34.08048,37.4101-36.43687l6.08144-.79277V84.56105h44.31655l-.79272,6.08141c-1.79454,13.76686-11.51054,27.03883-24.46191,33.41478-5.77581,2.84346-9.08855,3.65433-16.33883,3.99945-5.00178.23816-10.84236-.01316-12.97906-.559Z"/><path class="cls-4" d="M71.819,222.43658c-23.2543-3.02122-45.27782-5.86509-48.94118-6.31976l-6.66063-.82657V153.97993c0-33.72067.31486-61.3103.69974-61.3103,1.62368,0,76.16822-9.56005,86.90592-11.12868,6.45282-.94268,15.60792-2.2022,15.60792-2.2022s-.11854,7.12642-.11854,74.72457v74.13575l-2.60633-.13442c-1.43349-.074-21.63258-2.60658-44.88687-5.62781Zm-8.1086-52.15609c0-7.90436-.43788-8.00624,2.4214-8.00624,9.18664,0,16.101-7.094,16.10822-17.13381.00875-12.12414-3.92344-15.40289-18.47208-15.40289h-9.3245v48.65159h9.267Zm0-24.32222v-7.10051l3.7438.36294c2.90736.282,3.99871,1.09232,4.88481,3.62734,1.55326,4.44369-1.89034,9.34306-6.19606,9.84424C63.01916,153.05563,63.7104,153.00179,63.7104,145.95827Z"/></svg>