<svg id="docx" data-name="docx" xmlns="http://www.w3.org/2000/svg" viewBox="0 0 256 256"><defs><style>.cls-1{fill:#fff;}.cls-2{fill:#999898;}.cls-3{fill:#676566;}.cls-4{fill:#285497;}</style></defs><title>docx</title><path class="cls-1" d="M46.09589,236.69341l-.319-18.24439-28.38008-3.29391V93.16405l28.38008-3.294L46.38361,1.2532H182.48086L238.643,57.45033V254.93272H46.41428Z"/><path class="cls-2" d="M45.17647,237.46394l.083-24.42532,3.10253,5.98306c.75627-2.93692,1.95306-10.433,1.15668-10.11163-1.061.42815-.86712,15.6797-.86712,27.49217v16.12055h187.658v-192.29L215.44529,60.044s.01357-.1449.01357-1.50376c0-1.32567-.01138-1.90139-.01138-1.90139l20.29989-.14576L209.10278,30.12515,183.02424,4.07162l-.166,21.31252a5.13964,5.13964,0,0,1-1.57159.09807c-1.2871,0-1.73758,1.35145-1.73758,5.21254s.45045,5.21254,1.73758,5.21254c1.35141,0,1.57623-2.74339,1.57623-2.74339l-.04242,16.6841-.699,9.57052-2.57233.81481H69.50586V49.8082H179.54911V35.90776H69.50586V25.48267H179.54911V3.47359H48.653V45.65731c0,32.66317-.25406,60.57089.86711,61.02181.79638.32133.5953-17.63012-1.15668-17.57975l-2.93655,7.39369-.249-51.89786V0h138.444L239.784,56.19716V256H45.178ZM69.502,226.54016c0-2.82048.07552-9.01578-1.36335-9.373-1.11493-.27711-1.12719,4.608.78411,4.8737,12.27047-5.64377,36.78645-.074,37.98779-.07008.8835.00346-1.2724-1.28685,1.199-1.39414l11.20221-.4862h96.1428v10.42508H69.50228v-3.97373Zm47.73429-25.73088-.82978-5.12984,50.97843.08277h48.07139v10.42508H167.385l-49.7307-.16594Zm2.07447-24.15959v-5.21254h96.1428v10.42509h-96.1428Zm0-24.32552v-5.21254h96.1428v10.42508h-96.1428Zm0-24.32551v-5.21254h96.1428V133.2112h-96.1428Zm0-24.32553V98.46058h96.1428v10.42508h-96.1428ZM69.47061,84.51852s.03065-.86225.03065-5.25149V74.135H215.45359V84.56014H167.38221c-47.30087,0-62.36148.53757-62.36148-1.73977,0-1.27424-.82912.92376-1.62551.9245-1.33418.00119-16.77289.51312-16.77289.51312l-10.52362.20489Z"/><path class="cls-3" d="M179.54437,55.029V49.81648l3.2717.03942-.0481,6.846,32.67456-.05558s.01138.39448.01138,1.85629c0,1.46976-.01356,1.54892-.01356,1.54892l-35.89594.18872Zm0-19.113V25.491l3.30911-.09807-.058,10.5468Z"/><path class="cls-4" d="M94.986,225.29286c-41.07171-5.36317-78.71364-9.93347-78.71364-9.93347s-.05635-16.19717-.05635-61.267c0-48.461.19325-61.01739.19325-61.01739s91.94422-11.59623,98.5595-12.63864l4.34388-.68481v74.23923c0,69.98374-.03547,74.178-.03547,74.178s-13.14083-1.41786-24.29007-2.87373Zm-9.2452-52.37945c.7395-3.66335,3.041-14.87065,5.11448-24.90479l3.76988-18.24438H89.593c-2.76773,0-5.32288-.13355-5.32288-.13355s-.85456,8.7058-2.25415,17.3784l-2.54472,15.76856-2.0677-11.00435c-1.13726-6.05228-2.64118-13.7691-3.3421-17.14807l-1.12911-5.27165-5.1-.08451-4.66441-.0845L56.2523,162.77719l-1.4413-8.68791c-.79274-4.77824-2.02872-12.20609-2.74665-16.50667L50.759,129.76375H46.2303c-5.67312,0-4.87675.05385-4.87675.05385l9.1305,48.01887,10.58621.69263,2.65588-13.6675c1.46074-7.51716,2.98906-14.60837,3.39625-15.75808.43686-1.2334,1.8526,3.75294,3.45327,12.16279,1.49209,7.83942,3.75644,17.58811,3.75644,17.58811a21.65413,21.65413,0,0,0,5.554.71948h4.51075l1.3445-6.6608Z"/></svg>