<svg id="xlsx" data-name="xlsx" xmlns="http://www.w3.org/2000/svg" viewBox="0 0 256 256"><defs><style>.cls-1{fill:#fff;}.cls-2{fill:#83bc9d;}.cls-3{fill:#969696;}.cls-4{fill:#1f7145;}.cls-5{fill:#5f5f5f;}</style></defs><title>xlsx</title><g id="layer1"><g id="g30"><g id="layer1-7"><path id="path21" class="cls-1" d="M46.14188,236.58923l-.31916-18.24437-14.19006-1.647-14.19007-1.647V93.05961l14.19007-1.647,14.19006-1.647.3034-44.30769.30339-44.30769H182.52833L210.61,29.24943l28.08165,28.09919v197.485H46.46071Z"/><g id="g48"><path id="path54" class="cls-2" d="M121.6537,223.56583V213.14046h41.70135V233.9912H121.6537Zm52.12666,0V213.14046h41.70135V233.9912H173.78036Zm-52.12665-31.276v-10.4254h41.70135v20.85073H121.6537Zm52.12665,0v-10.4254h41.70135v20.85073H173.78036Zm-52.12665-31.276V150.58836h41.70135v20.85076H121.6537Zm52.12665,0V150.58836h41.70135v20.85076H173.78036Zm-52.12665-31.276V119.31233h41.70135v20.85074H121.6537Zm52.12665,0V119.31233h41.70135v20.85074H173.78036Zm-52.12665-31.276V88.03632h41.70135V108.887H121.6537Zm52.12665,0V88.03632h41.70135V108.887H173.78036Zm-52.12665-31.276V56.76028h41.70135V77.611H121.6537Zm52.12665,0c0-10.34811-.07529-10.42533-.07529-10.42533L196.987,56.847l18.53249.00435L215.48,60.23521V77.61078H173.77868Z"/><path id="path52" class="cls-3" d="M45.05784,217.9751c-.05908-15.70232.83863-21.83029,2.31084-21.83029,1.46462,0,1.30759,25.426,1.30759,39.58383V252.525h187.6561V59.74019H225.65943l-10.14178.16551V56.85176l20.182-.09239L209.12586,30.12794,183.04728,4.07424V14.77952c0,8.74353.18037,10.91525.18037,10.91525s-3.65533,1.72064-3.65533,10.21537,3.63589,7.70172,3.63589,7.70172l.08672,13.54857-3.59724-.31743-.13442-10.53723-5.61076.03066s-.17252-.077-.17252-10.42533c0-10.34811.08972-10.3428.08972-10.3428l5.69335-.03941L179.5718,3.4751H48.67641V46.33484c0,37.32529.49245,56.7615-1.021,56.7615-1.51439,0-2.67292,9.60743-2.5975-29.26232L45.20111,0H182.48544l28.661,28.67819,28.661,28.67818V256H45.201Zm24.57339,9.34033-.10989-10.83186,11.99,4.05235c5.09684.73117,15.89979-1.03761,20.28035,2.61426l9.43693,4.15129v6.6896H69.74169ZM69.527,67.18561V56.76028h41.70138V77.611H69.52705Zm0-31.276V25.48423h41.70138V46.33491H69.52705Zm52.12668,0V25.48423H163.355V46.33491H121.6537Z"/><path id="path50" class="cls-4" d="M112.38672,227.38383c-2.22987-.2447-12.134-1.48306-22.00906-2.75213s-29.9439-3.84934-44.59733-5.73389-29.58776-3.62066-29.58776-3.62066.049-12.8747.049-61.21367c0-43.33171.07048-61.20655.07048-61.20655s94.6172-11.59582,99.25994-12.39009l3.76469-.64409V154.011c0,58.67723-.30162,74.1462-.30162,74.1462s-4.41891-.529-6.64878-.7734ZM85.74417,179.08876c.239.08009-2.6017-6.0305-5.78153-12.84029l-5.78159-12.3814,4.16425-8.87919c2.29039-4.88346,4.899-10.57327,5.79716-12.64387l1.63284-3.76469H80.5107l-5.128-.01751L68.109,145.37675l-2.92624-7.819-3.57814-8.79687-5.29118-.10857-5.61709.10857,3.28568,7.63847c1.584,3.68253,4.056,9.19431,5.39583,12.29109l2.43609,5.63042-5.41046,12.61148L50.993,178.96712l4.967-.00347,4.68035.14316,3.80846-8.96255,3.23519-8.246,1.49438,3.32292c.82193,1.82758,5.63942,13.69786,5.63942,13.69786l4.95589.056s5.40535-.07441,5.64451.00441ZM179.7373,59.90092l-.03942-3.05811,35.81983.00875V59.9055Zm-.16507-23.99132c0-8.49472.32179-10.42534,1.73759-10.42534s1.73751,1.93062,1.73751,10.42534-.3218,10.42534-1.73751,10.42534S179.57223,44.40432,179.57223,35.9096Z"/></g></g><g id="layer2"><rect id="rect4568" class="cls-5" x="179.56362" y="25.52939" width="3.66402" height="20.77622"/></g></g></g></svg>