<svg id="accdb" data-name="accdb" xmlns="http://www.w3.org/2000/svg" viewBox="0 0 256 256"><defs><style>.cls-1{fill:#fff;}.cls-2{fill:#f5a5a8;}.cls-3{fill:#a3a1a1;}.cls-4{fill:#a03537;}</style></defs><title>accdb</title><g id="layer1"><g id="layer1-20"><path id="path40" class="cls-1" d="M45.57114,236.265,45.252,218.02063,31.06188,216.3737l-14.19-1.647V92.7354l14.19-1.647,14.19007-1.647.30342-44.30772L45.85881.826H181.95764l28.08165,28.09922,28.08165,28.09922V254.50932H45.89014Z"/><g id="layer1-2"><g id="g21"><path id="path27" class="cls-2" d="M150.58806,202.13583v-5.21269h50.96838v10.42531H150.5881Zm0-20.85067v-5.2127h50.96838v10.42531H150.5881Zm0-20.85068v-5.21269h50.96838v10.42529H150.5881Zm-31.276-30.69685V119.31228h97.30322V140.163H119.312Zm-.69366-42.78272c.05518-4.79014.24387-7.02582-.75426-7.02248-.7964.00261-11.61268,1.30362-24.03624,2.8911s-23.5958,4.1217-24.07361,4.1243-.25218-4.09531-.25218-7.5994v-6.371H181.864V93.82819H150.588l-32.0468-.15412Z"/><path id="path25" class="cls-3" d="M45.1763,237.46617c0-16.8784.35813-47.44966,2.204-47.45126,1.85355-.00115,1.82036,30.35232,1.50116,45.71194l-.3489,16.79814H236.30774V60.2353H179.54759V3.4751H48.59624l.31743,42.86017c.29728,40.168.27843,74.87072-1.62145,74.87025-1.89551-.00047-2.1156-34.90706-2.1156-76.60827V0H182.461l28.661,28.67818,28.661,28.67818V256H45.17665ZM235.14922,56.461c0-.1646-11.72854-12.019-26.06336-26.3433L183.02251,4.0737V56.76023h26.06335c14.33482,0,26.06336-.13484,26.06336-.299ZM118.70892,223.56088s6.58808.00441,47.5172.00441h46.914l-.30823-83.39882,3.78341-.00346v86.8774l-97.9733-.21056Zm.60311-21.425v-5.21269H140.1627V207.3485H119.312Zm0-20.85066v-5.21269H140.1627v10.4253H119.312Zm0-20.85068v-5.21269H140.1627v10.42529H119.312Zm59.30813-66.65869,3.2439.05251v25.53647l-3.20194-.05251Z"/><path id="path23" class="cls-4" d="M67.18536,221.75931c-26.43988-3.412-50.84764-6.53736-50.84764-6.53736s-.12072-12.84214-.12072-61.15853c0-33.76658.20516-61.11084.20516-61.11084s23.28322-3.3397,50.67872-6.84012,52.10078-6.74864,52.10078-6.74864.11033,33.925.11033,74.69966c0,69.87826-.035,74.302-.035,74.302s-25.6506-3.19418-52.09041-6.60615ZM84.97009,176.362c-.43606-1.75208-3.44417-12.829-6.68418-24.61543l-6.04484-21.81481-10.74715-.31736-1.74975,6.14286c-6.07643,21.33293-11.24372,42.33832-11.24372,42.33832l9.3221.35553s-.14009-.21805,1.13337-5.27515l1.31254-5.21261,5.74889.046c6.64283.053,6.09777.01751,6.09777.01751l3.57561,11.06649,9.92907.26749a29.76618,29.76618,0,0,0-.64967-3.00012ZM62.62878,158.45107c0-.34672.80112-4.511,1.87437-8.78312l1.95126-7.76748,1.32773,5.21267c3.2602,12.79935,2.38309,11.5837,2.38309,11.5837s-7.53645.10113-7.53645-.24564Z"/></g></g></g></g></svg>