<svg id="xls" data-name="xls" xmlns="http://www.w3.org/2000/svg" viewBox="0 0 256 256"><defs><style>.cls-1{fill:#fff;}.cls-2{fill:#83bc9d;}.cls-3{fill:#969696;}.cls-4{fill:#1f7145;}.cls-5{fill:#5f5f5f;}</style></defs><title>xls</title><g id="layer3"><g id="g165"><g id="layer3-2"><g id="g65"><g id="layer1-9"><path id="path21" class="cls-1" d="M64.93947,235.12859l-.31486-17.999-13.9992-1.62482L36.62621,213.88V93.52961l13.9992-1.62485,13.9992-1.62484.29931-43.71171.29931-43.7117H199.49138l27.70393,27.72123L254.89925,58.299V253.1276H65.254Z"/><g id="g48"><path id="path54" class="cls-2" d="M139.43558,222.28038V211.99524H180.576v20.57027H139.43558Zm51.42549,0V211.99524H232.0015v20.57027H190.86107ZM139.43558,191.425V181.1399H180.576v20.57028H139.43558Zm51.42549,0V181.1399H232.0015v20.57028H190.86107Zm-51.42549-30.85535V150.28455H180.576v20.57028H139.43558Zm51.42549,0V150.28455H232.0015v20.57028H190.86107Zm-51.42549-30.85535V119.4292H180.576v20.57027H139.43558Zm51.42549,0V119.4292H232.0015v20.57027H190.86107ZM139.43558,98.859V88.57387H180.576v20.57025H139.43558Zm51.42549,0V88.57387H232.0015v20.57025H190.86107ZM139.43558,68.00364V57.71852H180.576V78.28873H139.43558Zm51.42549,0c0-10.20892-.07427-10.28512-.07427-10.28512l22.96872.08552,18.28321.00429-.03888,3.33839V78.28857H190.85944Z"/><path id="path52" class="cls-3" d="M63.87,216.76485c-.0583-15.4911.82735-21.53667,2.27975-21.53667,1.44492,0,1.29,25.084,1.29,39.0514V250.85h185.132V60.65836H242.04231l-10.00537.16328V57.80878l19.91057-.09114L225.73116,31.44442,200.00334,5.74116V16.30245c0,8.62593.17795,10.76842.17795,10.76842s-3.60619,1.69751-3.60619,10.078,3.587,7.59812,3.587,7.59812l.08554,13.36634-3.54883-.31314-.1326-10.3955-5.53531.03025s-.17016-.076-.17016-10.28511c0-10.20891.08851-10.20368.08851-10.20368l5.61676-.03888.00864-21.75714H67.43991V47.43332c0,36.82322.48582,55.998-1.00724,55.998-1.494,0-2.637,9.47819-2.56256-28.86872l.14124-72.84088H199.44907l28.27546,28.29243L256,58.3066V254.27828H64.01125Zm24.24284,9.21469-.10841-10.68617,11.82875,3.99785c5.02829.72134,15.68592-2.81491,20.00758.78782l9.42512.12655-.11534,9.05981v3.29984H88.22164Zm-.10279-157.9759V57.71852h41.14046V78.28873H88.01008Zm0-30.85536V26.86317h41.14046V47.43338H88.01008Zm51.42553,0V26.86317H180.576V47.43338H139.43558Z"/><path id="path50" class="cls-4" d="M196.7379,60.817,196.699,57.8l35.338.00864V60.8215ZM196.575,37.1484c0-8.38046.31748-10.2851,1.71421-10.2851s1.71415,1.90464,1.71415,10.2851-.31747,10.28511-1.71415,10.28511S196.575,45.5288,196.575,37.14834Z"/></g></g><g id="layer2"><rect id="rect4568" class="cls-5" x="196.56654" y="26.90772" width="3.61475" height="20.49676"/></g></g><g id="g92"><g id="layer1-95"><rect id="rect29" class="cls-1" x="0.00001" y="85.05153" width="137.13483" height="137.1349"/></g><g id="layer2-4"><g id="g23"><path id="path25" class="cls-4" d="M0,153.619V85.05156H137.13486V222.18639H0Zm126.84972,0V95.33664H10.28511V211.90119H126.84972ZM81.70947,187.9027l-3.28457-3.42836H17.1419V180.6995c0-3.30564,1.6768-5.431,13.48909-17.09783L44.12,150.27875l-13.48909-13.454C18.90767,125.132,17.14185,122.88227,17.14185,119.6389V115.907H52.06847l6.61672,6.68648L65.30191,129.28l6.37784-6.68655L78.0576,115.907h35.07859l-.04889,3.71406c-.04333,3.29213-1.65777,5.1423-14.21006,16.28481L84.716,148.47655l2.41,2.57132c2.236,2.38567,3.38536,2.57124,15.92424,2.57124h13.5143v3.57c0,2.80705-1.11684,4.553-5.22611,8.17015l-5.2261,4.60024,6.94028,7.0025c5.60793,5.65822,6.94029,7.70967,6.94029,10.68585v3.68335H84.994Zm13.1421-3.25252c0-1.24635-12.83972-14.80905-31.37426-33.141C33.058,121.42244,27.5218,116.97091,27.37285,122.47786c-.06913,2.55675,62.76836,64.22074,65.47884,64.25592a1.92183,1.92183,0,0,0,1.99988-2.08368Z"/></g></g></g></g></g></g></svg>