<svg id="ppt" data-name="ppt" xmlns="http://www.w3.org/2000/svg" viewBox="0 0 256 256"><defs><style>.cls-1{fill:#fff;}.cls-2{fill:#f3b79a;}.cls-3{fill:#9a9999;}.cls-4{fill:#ce4525;}</style></defs><title>ppt</title><path class="cls-1" d="M64.03346,235.43024l-.31594-18.06037-14.047-1.63032L35.6236,214.10916V93.34814l14.04692-1.63039,14.047-1.63038.30033-43.86085L64.31818,2.3656H199.04445l27.79846,27.81585,27.79845,27.81584V253.4906H64.34913Z"/><path class="cls-2" d="M87.43665,227.88627c0-4.45939.0078-5.259.0078-5.259l10.21441-.013.09793,10.307H87.43663Zm20.64039.449c0-2.52269.09591-6.2686.09591-6.2686l7.22057.29124,14.73958.04332s7.37563.20243,54.19878.20243h47.58761V232.9239H108.077Zm28.66725-24.65379v-5.16h95.17524v10.32023H136.74429Zm0-24.08045v-5.16h95.17524v10.32023H136.74429Zm0-24.08046v-5.16h95.17524v10.32024H136.74429Zm29.81392-99.34834V34.22545l6.271.24052c7.01544,1.07707,15.49258,3.03587,19.378,6.68595,4.17986,3.75014,6.71524,5.2564,4.165,12.51326l4.00758,5.79629,5.79569-.72869a39.01383,39.01383,0,0,1,2.86952,5.70364,44.4262,44.4262,0,0,1,1.3656,9.81459l.04115,3.868H166.558Z"/><path class="cls-3" d="M63.35616,236.36214c0-7.772-.16989-18.47164.06557-21.11542s.66546-3.3445,1.44368-3.3445c2.29231-2.66785,1.93082,3.55837,1.93082,22.73985v16.627H252.55991V60.91866H196.37213V4.73088H66.79623v42.4275c0,54.81319-.38021,79.52625-1.87813,79.52625-1.49913,0-1.56194-25.00959-1.56194-81.24631V1.29082h135.8999l28.372,28.389L256,58.06883V254.70918H63.35616Zm188.057-179.1798c0-.16294-11.61024-11.89784-25.8005-26.07766L199.81218,5.32328V57.47854h25.80051c14.19027,0,25.8005-.13351,25.8005-.296Zm-91.99978,70.87595c-20.5251-.387-43.55134-17.57048-43.229-42.82792.0888-21.78915,21.79891-43.2579,43.49362-44.10093V84.99911h43.86965C203.313,111.7777,183.37781,127.87128,159.41341,128.05829Z"/><path class="cls-1" d="M.00013,85.42162H137.207V222.73707H.00013Z"/><path class="cls-4" d="M.00013,154.07957v-68.658H116.32859l21.01025.02165-.13182,36.54891V222.73707H0Zm126.91647,0,.1193-58.35772-58.43245-.00158-58.30557.00158-.00864,58.35772.00864,58.37871,58.30557-.02164,58.43245.02164Zm-102.90527,0V116.31772h89.18455v75.52371H24.01133Zm46.6935,10.26618s-.12053.03457-8.96159.03457H52.59611v-9.1544c0-8.84833.00006-8.89181.00006-8.89181-10.06272.02594-17.45921,8.39311-17.31058,18.27435.02163,9.79182,7.2503,18.17167,17.31052,18.08067,9.571-.05794,18.23817-6.94192,18.10873-18.34126Zm12.66217,3.6093-4.38129-.00866-.00435,4.44007,4.3677-.00133Zm19.576,4.38971-.02591-4.3814-17.15675.013.01728,4.42205ZM83.3585,161.97529l.00435-4.43-4.37193.00437-.00435,4.41914Zm19.51406-4.44679-17.12358.00435-.02591,4.41908,17.16723.02593Zm-19.49223-5.80816-.01729-4.49558-4.33921-.00435-.01728,4.51749Zm19.50317-4.49048-17.09087.02592-.00435,4.46285,17.09075.02592Zm3.452-18.897v-5.14929H30.87166v10.29872h75.46383Z"/></svg>