<svg id="vsd" data-name="vsd" xmlns="http://www.w3.org/2000/svg" viewBox="0 0 256 256"><defs><style>.cls-1{fill:#fff;}.cls-2{fill:#a8b7df;}.cls-3{fill:#a1a0a0;}.cls-4{fill:#38549e;}</style></defs><title>vsd</title><g id="layer1"><g id="layer1-7"><path id="path128" class="cls-1" d="M45.57458,236.334l-.319-18.24435-14.19005-1.64693-14.19-1.647V92.80437l14.19005-1.647,14.19-1.647L45.559,45.20265,45.86231.895H181.96106l28.08163,28.09922,28.08165,28.09921V254.57832H45.8936Z"/><g id="g141"><path id="path147" class="cls-2" d="M123.94584,214.87781v-5.21262h10.42537v10.42529H123.94584Zm27.80091,0v-5.21262h10.42537v10.42529H151.74675Zm52.12666-59.07691v-5.21261h10.42534v10.42529H203.87339Zm0-27.80093v-5.21262h10.42534v10.4253H203.87339Zm0-27.80094V94.98642h10.42534v10.4253H203.87339ZM98.46165,58.4977V53.28509H108.887v10.4253H98.46165ZM70.66076,30.69677V25.48415H81.08612v10.4253H70.66076Zm27.80089,0V25.48415H108.887v10.4253H98.46165Zm27.8009,0V25.48415h10.42537v10.4253H126.26255Zm27.80091,0V25.48415h10.42537v10.4253H154.06346Z"/><path id="path145" class="cls-3" d="M45.1766,237.46605c0-16.8784-.15559-40.92447,1.69045-40.92613,1.85356-.00113,2.334,23.82715,2.01472,39.18675l-.34912,16.79817H236.30783V60.23529H179.54762V3.47517H48.59632l.31729,42.86012c.29734,40.168.19,70.63774-1.70986,70.63727-1.89551-.00048-2.02715-30.67413-2.02715-72.37532V0H182.46092l28.661,28.67821,28.661,28.67821V256H45.1766ZM235.14944,56.4609c0-.1646-11.72848-12.019-26.06332-26.34332l-26.06339-26.044V56.76012h26.06339c14.33485,0,26.06332-.13488,26.06332-.29948Zm-54.2485,170.411a21.21314,21.21314,0,0,1-9.46166-28.21178,22.71127,22.71127,0,0,1,14.18981-11.63826c3.11785-.75877,3.1855-.957,3.1855-9.33746v-8.5622H143.63812V189.9729H131.47525c-10.03921,0-30.34455-.47177-30.34455-1.90585,0-1.41579,20.11228-1.56925,28.607-1.56925H140.163V149.43H129.7377c-8.49472,0-29.44873-.32179-29.44873-1.73752,0-1.43414,21.14707-1.73757,31.18628-1.73757h12.16288v19.6923H161.0137V126.8023l-12.47138-12.43291L136.0709,101.93662h-8.37925c-6.676,0-26.05586.15191-26.05586-1.23253,0-1.38507,19.38407-2.24263,26.09367-2.24263h8.4171l13.28456-13.32235,13.28456-13.32234,14.20787,14.17376,14.20782,14.17377-13.32124,13.356-13.32127,13.35607V165.647h27.8009v10.29978c0,10.27592.00874,10.30151,3.1855,11.075A22.71116,22.71116,0,0,1,209.665,198.66c8.86341,18.3093-10.467,37.26859-28.76408,28.21178Zm16.40315-2.56963a17.63977,17.63977,0,0,0,4.84225-29.53137c-7.06666-6.20467-16.14558-6.18361-23.2496.05385-14.8235,13.01524.20532,37.08281,18.40736,29.47758ZM174.64526,88.34552l-11.85352-11.894L150.89776,88.305l-11.894,11.85351,11.85351,11.894,11.85352,11.894,11.894-11.85351,11.894-11.8535Z"/></g><g id="layer1-6"><g id="g97"><path id="path99" class="cls-4" d="M16.21709,215.2903l.387-122.62068s68.72079-7.603,102.70822-12.9457V228.19905ZM79.525,155.22169c3.48459-12.38694,6.14448-25.36637,6.14448-25.36637l-8.86207-.11779-8.54937,33.226-8.41556-33.39226-9.04051.01751,11.77361,47.74859,10.68865.1397Z"/></g></g></g></g></svg>