<svg id="csv" data-name="csv" xmlns="http://www.w3.org/2000/svg" viewBox="0 0 256 256"><defs><style>.cls-1{fill:#fff;}.cls-2{fill:#999898;}.cls-3{fill:#207245;}.cls-4{fill:#85be9f;}</style></defs><title>csv</title><g id="layer1"><g id="layer1-1"><path id="path40" class="cls-1" d="M46.02843,236.59805,45.747,218.30229l-14.2144-1.68886-14.2144-1.68885V93.04663l14.2144-1.68884L45.747,89.669l.28147-44.33206.28147-44.332H182.40226l28.0066,28.14734,28.00659,28.14733V254.61234H46.30991Z"/><g id="layer1-2"><g id="g21"><path id="path27" class="cls-2" d="M45.10611,237.42274l.14073-24.34742,3.09621,5.911c.70368-2.95547,1.97031-10.4145,1.12589-10.133-1.12589.42219-.84442,15.62178-.84442,27.44366v16.18471H236.08578V59.95381H179.93187V1.54809h3.23693v55.028h52.354c-17.592-17.31059-35.60634-35.60636-53.05768-53.19844,1.54811-.42221.42223-.42221-3.09621,0H48.62452v42.221c0,32.65091-.28146,60.51677.84442,60.939.84442.28146.56295-17.59209-1.12589-17.59209l-2.95547,7.459-.28147-51.79108V0H183.591l56.15392,56.15392V256H45.10611Z"/><path id="path23" class="cls-3" d="M94.92688,225.17868c-41.09511-5.348-78.6718-9.99232-78.6718-9.99232V153.96591c0-48.4134.14073-60.939.14073-60.939s91.90107-11.5404,98.51569-12.6663l4.36283-.70369V228.13416S106.04509,226.72679,94.92688,225.17868Z"/></g></g></g><path id="path72" class="cls-1" d="M76.0373,128.18671c3.5755-.298,5.36325.298,8.93873,0-4.46936,8.93873-5.95915,16.0897-10.42852,25.02844,4.46937,9.23669,9.23669,18.4734,13.70606,27.71-3.87345-.298-8.04486-.596-11.91831-.89384-2.68162-6.853-6.25711-13.4081-8.34281-20.55907-2.38366,6.5551-5.36324,13.11012-8.04486,19.66522-3.57549,0-7.151-.298-10.72648-.298,4.17141-8.34278,8.34282-16.68566,12.81218-24.73046-3.57549-8.34277-7.7469-16.68565-11.62035-25.3264,3.57549-.298,7.151-.298,10.72648-.596,2.38366,6.55511,5.06528,12.81215,7.151,19.36726,2.38365-7.151,7.74688-19.36726,7.74688-19.36726Z"/><path id="path4" class="cls-4" d="M205.053,229.79031H194.92245V219.06383h-1.19183q-7.151,12.51418-21.453,12.51426-10.27953,0-16.08972-5.3632c-3.87344-3.57553-5.95915-8.34277-5.95915-14.59992,0-12.81213,7.74689-20.26109,22.94275-22.34683l20.857-2.97958c0-11.62033-4.76731-17.57948-14.302-17.57948a34.3977,34.3977,0,0,0-22.64479,8.34277V165.72951a44.29867,44.29867,0,0,1,23.53867-6.55512c16.38768,0,24.43254,8.64077,24.43254,25.62439Zm-10.13057-34.86108-16.68564,2.38364c-5.06528.89383-8.93873,2.08574-11.62036,3.87341s-3.87344,5.3632-3.87344,10.13055a11.4615,11.4615,0,0,0,3.57548,8.64075,14.21472,14.21472,0,0,0,9.53466,3.27756,17.62314,17.62314,0,0,0,13.40809-5.95915q5.36325-5.81013,5.36324-15.19587Z"/><path id="path4-1" class="cls-4" d="M222.33455,219.65977l-8.04485,24.43258h-5.95915l5.95915-24.43258Z"/></g></svg>