<svg id="picture" data-name="picture" xmlns="http://www.w3.org/2000/svg" xmlns:xlink="http://www.w3.org/1999/xlink" viewBox="0 0 256 256"><defs><style>.cls-1,.cls-8{fill:#fff;}.cls-1{stroke:#797774;stroke-linejoin:round;stroke-width:4px;}.cls-2{fill:url(#未命名的渐变_57);}.cls-3{fill:url(#未命名的渐变_57-2);}.cls-4{fill:url(#未命名的渐变_89);}.cls-5{fill:url(#未命名的渐变_57-3);}.cls-6{fill:url(#未命名的渐变_89-2);}.cls-7{fill:url(#未命名的渐变_88);}</style><linearGradient id="未命名的渐变_57" x1="100.92395" y1="70.24481" x2="148.66065" y2="185.37039" gradientUnits="userSpaceOnUse"><stop offset="0" stop-color="#1893e8"/><stop offset="0.0265" stop-color="#1a8fe4"/><stop offset="0.3193" stop-color="#336cbe"/><stop offset="0.47346" stop-color="#3c5eb0"/><stop offset="0.87682" stop-color="#7555af"/></linearGradient><linearGradient id="未命名的渐变_57-2" x1="83.27233" y1="77.56403" x2="131.00903" y2="192.68961" xlink:href="#未命名的渐变_57"/><linearGradient id="未命名的渐变_89" x1="90.488" y1="147.02137" x2="133.11312" y2="186.91819" gradientUnits="userSpaceOnUse"><stop offset="0" stop-color="#4fe2fc"/><stop offset="0.1562" stop-color="#4cdafb"/><stop offset="0.39584" stop-color="#45c5f7"/><stop offset="0.68903" stop-color="#39a2f0"/><stop offset="1" stop-color="#2975e8"/></linearGradient><linearGradient id="未命名的渐变_57-3" x1="88.82926" y1="75.25986" x2="136.56596" y2="190.38544" xlink:href="#未命名的渐变_57"/><linearGradient id="未命名的渐变_89-2" x1="91.63562" y1="145.79527" x2="134.26075" y2="185.69209" xlink:href="#未命名的渐变_89"/><linearGradient id="未命名的渐变_88" x1="119.37054" y1="170.89148" x2="146.21099" y2="198.56081" gradientUnits="userSpaceOnUse"><stop offset="0" stop-color="#005a9e"/><stop offset="0.32181" stop-color="#0880d7"/><stop offset="0.46821" stop-color="#1089d8"/><stop offset="0.77774" stop-color="#1d97db"/></linearGradient></defs><title>picture</title><polygon class="cls-1" points="222.5 254 33.5 254 33.5 2 167.5 2 222.5 57 222.5 254"/><polygon class="cls-1" points="222.5 57 167.5 57 167.5 2 222.5 57"/><path class="cls-2" d="M115.11441,124.73265a18.31978,18.31978,0,0,1,25.77118,0L186.29313,169.664A19.12571,19.12571,0,0,1,192,182.51827V92.18747A18.18747,18.18747,0,0,0,173.81253,74H82.18748A18.18748,18.18748,0,0,0,64,92.18747v90.34577a19.12707,19.12707,0,0,1,5.7077-12.87Zm43.8894-37.30041a12.609,12.609,0,1,1-12.60895,12.609A12.609,12.609,0,0,1,159.00381,87.43224Z"/><path class="cls-3" d="M141.33125,150.95146a18.53328,18.53328,0,0,1,25.94586-.10405l19.016,18.81661-45.40754-44.93137a18.31978,18.31978,0,0,0-25.77118,0L69.7077,169.6632A19.12707,19.12707,0,0,0,64,182.53324v1.27928c0,.28589.00746.57.02051.85267a20.00075,20.00075,0,0,0,1.46089,6.34591,18.19338,18.19338,0,0,0,15.92948,10.97128c8.51-.24162,11.59205-3.2094,13.50825-5.10551Z"/><path class="cls-4" d="M141.33125,150.95146a18.53328,18.53328,0,0,1,25.94586-.10405l19.016,18.81661-45.40754-44.93137a18.31978,18.31978,0,0,0-25.77118,0L69.7077,169.6632A19.12707,19.12707,0,0,0,64,182.53324v1.27928c0,.28589.00746.57.02051.85267a20.00075,20.00075,0,0,0,1.46089,6.34591,18.19338,18.19338,0,0,0,15.92948,10.97128c8.51-.24162,11.59205-3.2094,13.50825-5.10551Z"/><path class="cls-5" d="M190.52976,190.98561a20.00057,20.00057,0,0,0,1.44871-6.29345q.02084-.43728.02153-.87964v-1.29425a19.12571,19.12571,0,0,0-5.70687-12.85425l-19.016-18.81661a18.53328,18.53328,0,0,0-25.94586.10405L94.91913,196.87687c-1.9162,1.89611-4.9982,4.86389-13.50825,5.10551.25763.01083.5163.01762.7766.01762h91.62505A18.19143,18.19143,0,0,0,190.52976,190.98561Z"/><path class="cls-6" d="M190.52976,190.98561a20.00057,20.00057,0,0,0,1.44871-6.29345q.02084-.43728.02153-.87964v-1.29425a19.12571,19.12571,0,0,0-5.70687-12.85425l-19.016-18.81661a18.53328,18.53328,0,0,0-25.94586.10405L94.91913,196.87687c-1.9162,1.89611-4.9982,4.86389-13.50825,5.10551.25763.01083.5163.01762.7766.01762h91.62505A18.19143,18.19143,0,0,0,190.52976,190.98561Z"/><path class="cls-7" d="M190.52976,190.98561a20.00057,20.00057,0,0,0,1.44871-6.29345q.02084-.43728.02153-.87964v-1.29425a19.12571,19.12571,0,0,0-5.70687-12.85425l-19.016-18.81661a18.53328,18.53328,0,0,0-25.94586.10405L94.91913,196.87687c-1.9162,1.89611-4.9982,4.86389-13.50825,5.10551.25763.01083.5163.01762.7766.01762h91.62505A18.19143,18.19143,0,0,0,190.52976,190.98561Z"/><circle class="cls-8" cx="159.00381" cy="100.0412" r="12.60896"/></svg>