<svg id="sql" data-name="sql" xmlns="http://www.w3.org/2000/svg" xmlns:xlink="http://www.w3.org/1999/xlink" viewBox="0 0 256 256"><defs><style>.cls-1{fill:none;}.cls-2{fill:#fff;stroke:#797774;stroke-linejoin:round;stroke-width:4px;}.cls-3{clip-path:url(#clip-path);}.cls-4{fill:#f49214;}.cls-5{fill:#017590;}</style><clipPath id="clip-path"><rect class="cls-1" x="52.15742" y="65.5" width="159.68515" height="145"/></clipPath></defs><title>sql</title><polygon class="cls-2" points="222.5 254 33.5 254 33.5 2 167.5 2 222.5 57 222.5 254"/><polygon class="cls-2" points="222.5 57 167.5 57 167.5 2 222.5 57"/><g class="cls-3"><path class="cls-4" d="M120.01018,112.50505a8.99918,8.99918,0,0,1,5.98891-5.98891c5.98907,0,11.978.99785,15.97046,4.99034h.99785l.99874.99857h3.9923c.998,0,2.99445.998,3.99248.998,11.978-3.99249,19.96276-9.98155,22.95722-16.96832V92.54157c.99874-14.97172-26.9497-26.9497-60.887-26.9497-33.93662,0-60.887,11.978-60.887,26.9497v3.99319c5.98907,13.97369,29.945,22.95722,60.887,22.95722h5.98908c-.998-1.9966-.998-3.99249,0-6.98693Zm0,0"/><path class="cls-4" d="M172.91225,128.4755c.998-.99874.998-1.9966,1.99589-3.99319V104.51955c-2.99446,5.9889-7.98479,10.97994-14.97172,12.97583,2.99444,1.9966,4.99033,2.99444,6.98693,4.991Zm-41.92213,13.97369c-.99855-2.99445-2.99445-5.9889-2.99445-8.98335,0-.998,0-.998-.99855-1.99589v-.99856a2.14638,2.14638,0,0,1-1.9959-1.99589.97815.97815,0,0,0-.99873-.99874H114.0211c-30.942,0-56.89383-9.98138-61.88488-22.95721v20.96132c5.98891,12.976,30.94289,21.95936,60.887,21.95936a133.71508,133.71508,0,0,0,19.96277-.99856c-.99786-.99785-.99786-2.99445-1.9959-3.99248Zm0,0"/></g><path class="cls-4" d="M131.98816,154.42716a108.502,108.502,0,0,1-17.96706.998c-29.94414,0-55.896-9.98138-60.887-21.95936v20.96132c5.98907,12.976,30.94288,21.95936,60.887,21.95936,7.98567,0,14.97244-.99856,22.95739-1.99659,0-.99786-.998-.99786-.998-1.99642-3.99231-4.99034-4.99035-11.97727-3.99231-17.96635Zm0,0"/><path class="cls-5" d="M150.95289,178.38241a119.1175,119.1175,0,0,1-36.93179,5.98907c-29.94414,0-55.896-9.98155-60.887-21.95935v19.96276c0,14.97242,26.9504,27.94826,61.88577,27.94826,27.94755,0,50.90547-7.98479,58.89043-19.96277l-2.99444-.99785c-7.985-2.99462-13.97387-5.98907-19.963-10.98012Zm51.90369,8.98352c-3.99249-2.99445-5.98909-2.99445-6.98693-4.991.99784.99857,4.99033-1.99589,5.98889-1.99589.998-.998,2.99444-.998,4.99033-.998h1.9966c.998-.99856-.99785-1.99642-.99785-1.99642L205.851,175.388c-4.991-3.99248-9.98137-7.98479-15.97046-9.98139-1.99641-.998-3.9923-1.99588-3.9923-3.99248l-2.99463-5.98889c-1.99643-3.99249-2.99445-7.985-5.98891-11.978-2.99444-5.98908-7.98548-10.97942-12.97581-14.97172-1.99661-2.99463-4.99105-4.991-7.98568-6.98764a29.90633,29.90633,0,0,0-9.98139-3.99248h-3.99229c-.998,0-1.99661-.99786-2.99446-1.99589-2.99462-1.99641-11.978-6.98746-13.97387,0-1.99658,3.99249,1.9959,7.985,3.99232,9.98138.998,0,1.99658,1.99589,2.99462,3.99248a3.66737,3.66737,0,0,0,.99786,2.99445c.99856,2.99463,1.99659,4.99034,2.99445,7.985.998.99855.998,2.99445,1.99659,3.993a.97746.97746,0,0,1,.998.998c0,1.99641-.998,2.99444-.998,4.99033a27.42858,27.42858,0,0,0,1.99588,19.96347c.99857.99786,2.99446,4.99034,5.9889,2.99445,2.99463-.99856,1.9966-3.99319,2.99463-6.98764v-1.99588c.99856,1.99588,1.99642,2.99462,1.99642,4.99033,3.99249,7.98567,11.978,11.978,19.963,13.97458,4.991,1.99588,10.97993,2.99445,15.97028,4.99033,2.99444.99874,8.98353,2.99445,13.97386,4.991,5.98889,1.9966,9.98209,2.99446,9.98209,3.99248a.97729.97729,0,0,1,.99786.99786c0-1.99588-2.99446-5.98819-8.98335-10.97924ZM145.96184,128.4755h-1.9957c-.99874,0-.99874-.99874-.99874-1.9966,0-.998,0-1.99659.99874-1.99659h1.9957c.99875,0,.99875.99856.99875,1.99659,0,.99786,0,.99786-.99875,1.9966Zm0,0"/></svg>