<svg id="txt" data-name="txt" xmlns="http://www.w3.org/2000/svg" xmlns:xlink="http://www.w3.org/1999/xlink" viewBox="0 0 256 256"><defs><style>.cls-1{fill:#8d4410;}.cls-2{fill-opacity:0.79649;}.cls-3{fill:#fff;}.cls-4{fill-opacity:0.65263;}.cls-5{fill:url(#未命名的渐变_2);}.cls-6{fill:#057093;}</style><linearGradient id="未命名的渐变_2" x1="3065.66423" y1="-2086.10126" x2="3042.23707" y2="-2062.6741" gradientTransform="matrix(5.77309, 0, 0, -5.77309, -17507.24542, -11865.08958)" gradientUnits="userSpaceOnUse"><stop offset="0" stop-color="#43afcf"/><stop offset="1" stop-color="#7ad6f2"/></linearGradient></defs><title>txt</title><g id="layer1"><rect id="rect58297-2-9" class="cls-1" x="31.99996" y="58.01641" width="192.00027" height="197.98359" rx="10.06569"/><rect id="rect58297-2-8" class="cls-2" x="31.99977" y="36.87446" width="192.00024" height="197.98361" rx="10.06568"/><rect id="rect58297-2" class="cls-3" x="31.99996" y="36.87455" width="192.00027" height="197.98359" rx="10.06569"/><rect id="rect58297-4" class="cls-4" x="31.99977" y="71.56034" width="192.00024" height="142.48612" rx="10.06568"/><rect id="rect58297" class="cls-5" x="31.99996" y="16.06289" width="192.00027" height="197.98359" rx="10.06569"/><g id="g58295"><rect id="rect58246" class="cls-6" x="63.99399" y="68.91782" width="128.00749" height="16.18657" rx="5.52341"/><rect id="rect58246-9" class="cls-6" x="63.99399" y="112.13129" width="128.00749" height="16.18657" rx="5.52341"/><rect id="rect58246-9-7" class="cls-6" x="63.99399" y="154.87791" width="128.00749" height="16.18657" rx="5.52341"/></g><g id="g58244"><path id="rect56737" class="cls-6" d="M63.9095,0h-.00043A11.06679,11.06679,0,0,1,74.97572,11.06665v9.9924A11.06679,11.06679,0,0,1,63.90907,32.1257h.00043A11.06679,11.06679,0,0,1,52.84285,21.05905v-9.9924A11.06679,11.06679,0,0,1,63.9095,0Z"/><path id="rect56737-6" class="cls-6" d="M107.123,0h-.00043a11.06679,11.06679,0,0,1,11.06665,11.06665v9.9924A11.06679,11.06679,0,0,1,107.12254,32.1257h.00043A11.06679,11.06679,0,0,1,96.05632,21.05905v-9.9924A11.06679,11.06679,0,0,1,107.123,0Z"/><path id="rect56737-4" class="cls-6" d="M192.03165,0h-.00043a11.06679,11.06679,0,0,1,11.06665,11.06665v9.9924A11.06679,11.06679,0,0,1,192.03122,32.1257h.00043A11.06679,11.06679,0,0,1,180.965,21.05905v-9.9924A11.06679,11.06679,0,0,1,192.03165,0Z"/><path id="rect56737-6-7" class="cls-6" d="M149.05183,0h-.00043A11.06678,11.06678,0,0,1,160.118,11.06665v9.9924A11.06678,11.06678,0,0,1,149.0514,32.1257h.00043a11.06679,11.06679,0,0,1-11.06665-11.06665v-9.9924A11.06679,11.06679,0,0,1,149.05183,0Z"/></g></g></svg>