<svg id="vector" data-name="vector" xmlns="http://www.w3.org/2000/svg" viewBox="0 0 256 256"><defs><style>.cls-1{fill:#fff;stroke:#797774;stroke-width:4px;}.cls-1,.cls-2{stroke-linejoin:round;}.cls-2{fill:#333;stroke:#231815;stroke-width:3px;}</style></defs><title>vector</title><polygon class="cls-1" points="222.5 254 33.5 254 33.5 2 167.5 2 222.5 57 222.5 254"/><polygon class="cls-1" points="222.5 57 167.5 57 167.5 2 222.5 57"/><path class="cls-2" d="M115.34748,109.19965l18.53346-18.53347a9.39522,9.39522,0,1,0-1.341-1.34155l-20.4377,20.4377-5.49548-5.49529L94.26036,116.59936l5.4953,5.49548L79.332,142.53254a9.39145,9.39145,0,1,0,1.34155,1.341l19.64406-19.64406a48.2259,48.2259,0,0,0,6.44759,59.58213l-5.85588,5.85606L113.241,202l12.33233-12.33232L113.241,177.3359l-4.58608,4.587a45.49669,45.49669,0,0,1-5.76935-56.69836l3.72123,3.7214,12.33178-12.3325L115.001,112.676a45.51866,45.51866,0,0,1,58.02512,4.88969l-5.69758,5.66784,12.33232,12.33232,12.33179-12.33232L179.66082,110.902l-4.74527,4.74529a48.206,48.206,0,0,0-59.56807-6.44759ZM134.6021,78.16059a7.38416,7.38416,0,1,1,0,10.44286,7.38227,7.38227,0,0,1,0-10.44286Zm-55.99125,76.862a7.384,7.384,0,1,1,0-10.44214,7.38248,7.38248,0,0,1,0,10.44214Zm34.6301,26.10645,8.53916,8.53862-8.53916,8.53916-8.53844-8.53916Zm1.90442-64.5297-8.53862,8.53862-8.53844-8.53862,8.53844-8.53845Zm73.06886,6.6342-8.53915,8.53916-8.53864-8.53916,8.53864-8.53845Zm0,0"/></svg>