<?xml version="1.0" standalone="no"?><!DOCTYPE svg PUBLIC "-//W3C//DTD SVG 1.1//EN" "http://www.w3.org/Graphics/SVG/1.1/DTD/svg11.dtd"><svg t="1733139979669" class="icon" viewBox="0 0 1024 1024" version="1.1" xmlns="http://www.w3.org/2000/svg" p-id="2327" xmlns:xlink="http://www.w3.org/1999/xlink" width="256" height="256"><path d="M0 204.8V512s204.8-102.41 204.8 102.4C204.8 819.2 0 716.8 0 716.8V1024h307.19S204.8 819.2 409.59 819.2C614.4 819.2 512 1024 512 1024h307.2V716.8S1024 819.2 1024 614.39C1024 409.6 819.2 512 819.2 512V204.8H512S614.4 0 409.59 0c-204.79 0-102.4 204.8-102.4 204.8H0z" fill="#603813" p-id="2328"></path><path d="M429.19 121.85l-0.28 3.07-77.04 235.99-96.33-90.71-18.29 248.35 0.28 0.02c-0.12 1.63-0.21 3.27-0.28 4.9 0 94.62 86.26 171.33 192.66 171.33 106.4 0 192.66-76.71 192.66-171.33-0.07-8.16-0.79-16.31-2.16-24.37l-16.85-228.9-96.33 90.71-77.04-235.99-0.28-3.07-0.37 1.11-0.35-1.11z" fill="#FF2A2A" opacity=".5" p-id="2329"></path><path d="M430.7 225.53l-0.28 3.07-77.04 235.99-96.33-90.71-18.29 248.35 0.28 0.02c-0.12 1.63-0.21 3.27-0.28 4.9 0 94.62 86.26 171.33 192.66 171.33 106.4 0 192.66-76.71 192.66-171.33-0.07-8.16-0.79-16.31-2.16-24.37l-16.85-228.9-96.33 90.71L431.7 228.6l-0.28-3.07-0.37 1.11-0.35-1.11z" fill="#FF2A2A" p-id="2330"></path><path d="M430.87 358.08l-0.21 2.36-59.22 181.39-74.04-69.72L283.34 663l0.21 0.01a119 119 0 0 0-0.21 3.77c0 72.73 66.3 131.69 148.08 131.69 81.78 0 148.08-58.96 148.08-131.69-0.05-6.27-0.6-12.53-1.66-18.74L564.9 472.11l-74.04 69.72-59.22-181.39-0.21-2.36-0.28 0.85-0.28-0.85z" fill="#FF5555" p-id="2331"></path><path d="M431 459.82l-0.17 1.82-45.53 139.48-56.94-53.62-10.81 146.8 0.17 0.01c-0.07 0.97-0.13 1.93-0.17 2.9 0 55.93 50.98 101.27 113.87 101.27 62.89 0 113.87-45.34 113.87-101.27a90.58 90.58 0 0 0-1.28-14.41l-9.96-135.29-56.94 53.61-45.54-139.48-0.17-1.82-0.22 0.66-0.18-0.66z" fill="#FF8080" p-id="2332"></path><path d="M623.87 536.32l-0.14 1.82-38.06 139.48L538.09 624l-9.04 146.79 0.14 0.01c-0.06 0.97-0.11 1.93-0.14 2.9 0 55.93 42.61 101.27 95.17 101.27s95.17-45.34 95.17-101.27c-0.03-4.82-0.39-9.64-1.07-14.41L710.01 624l-47.59 53.62-38.06-139.48-0.14-1.82-0.18 0.66-0.17-0.66z" fill="#C4145A" p-id="2333"></path><path d="M263.11 239.1l-0.08 0.88-22.08 67.65-27.61-26-5.24 71.2h0.08c-0.03 0.47-0.06 0.94-0.08 1.41 0 27.13 24.73 49.11 55.23 49.11 30.5 0 55.23-21.99 55.23-49.11-0.02-2.34-0.23-4.67-0.62-6.99l-4.83-65.62-27.61 26-22.08-67.65-0.08-0.88-0.1 0.32-0.13-0.32z" fill="#FF5555" p-id="2334"></path><path d="M238.13 691.01l-0.08 0.93-23.37 71.59-29.22-27.52-5.55 75.34 0.08 0.01c-0.04 0.5-0.06 0.99-0.08 1.49 0 28.7 26.17 51.97 58.45 51.97s58.45-23.27 58.45-51.97c-0.02-2.48-0.24-4.95-0.65-7.39l-5.11-69.44-29.22 27.52-23.37-71.59-0.08-0.93-0.11 0.34-0.14-0.35z" fill="#FF2A2A" p-id="2335"></path><path d="M157.21 751.03l-0.12 1.31-32.76 100.36-40.96-38.58-7.78 105.61 0.12 0.01c-0.05 0.69-0.09 1.39-0.12 2.09 0 40.24 36.68 72.86 81.93 72.86 45.25 0 81.93-32.62 81.93-72.86-0.03-3.47-0.33-6.93-0.92-10.37l-7.17-97.34-40.96 38.58-32.76-100.36-0.12-1.31-0.16 0.47-0.15-0.47zM668.36 699.34l-0.1 1.07-26.85 82.26-33.58-31.62-6.38 86.57 0.1 0.01c-0.04 0.57-0.07 1.14-0.1 1.71 0 32.98 30.07 59.72 67.16 59.72 37.09 0 67.16-26.74 67.16-59.72-0.02-2.84-0.27-5.68-0.75-8.5l-5.87-79.79-33.58 31.62-26.85-82.26-0.1-1.07-0.13 0.39-0.13-0.39z" fill="#BC2A2A" p-id="2336"></path></svg>