<?xml version="1.0" standalone="no"?><!DOCTYPE svg PUBLIC "-//W3C//DTD SVG 1.1//EN" "http://www.w3.org/Graphics/SVG/1.1/DTD/svg11.dtd"><svg t="1774159396370" class="icon" viewBox="0 0 1024 1024" version="1.1" xmlns="http://www.w3.org/2000/svg" p-id="36735" xmlns:xlink="http://www.w3.org/1999/xlink" width="256" height="256"><path d="M853.333333 0a170.666667 170.666667 0 0 1 170.666667 170.666667v682.666666a170.666667 170.666667 0 0 1-170.666667 170.666667H170.666667a170.666667 170.666667 0 0 1-170.666667-170.666667V170.666667a170.666667 170.666667 0 0 1 170.666667-170.666667h682.666666z m-110.208 298.752h-182.741333l4.992 19.882667c3.242667 12.928 6.272 25.386667 9.002667 37.845333a12.586667 12.586667 0 0 0 11.605333 10.538667l139.605333 30.549333 4.437334 0.853333c15.786667 4.352 26.581333 19.498667 24.917333 36.138667v154.88l0.128 4.48a34.005333 34.005333 0 0 1-29.866667 32.469333l-140.586666 30.933334-2.133334 0.341333c-2.901333 0.853333-5.930667 3.242667-6.741333 5.418667-5.802667 20.053333-10.581333 40.405333-16.042667 62.122666h174.08l8.704 0.085334a114.645333 114.645333 0 0 0 77.226667-33.152 113.408 113.408 0 0 0 33.536-85.418667V408.32a113.493333 113.493333 0 0 0-33.408-76.373333 114.645333 114.645333 0 0 0-85.376-33.194667z m-279.68 0.682667H279.509333l-7.338666 0.512a112.981333 112.981333 0 0 0-101.546667 107.818666v206.421334l0.298667 6.997333a113.066667 113.066667 0 0 0 112.341333 104.021333h180.522667l-5.205334-20.821333c-3.370667-13.738667-6.613333-27.178667-10.496-40.277333a13.653333 13.653333 0 0 0-9.216-6.826667l-140.586666-31.232-4.778667-0.981333a34.005333 34.005333 0 0 1-24.618667-30.592v-160.256l-0.085333-4.48A34.048 34.048 0 0 1 298.666667 397.568l139.562666-30.890667 2.261334-0.426666c3.157333-0.938667 6.784-3.541333 7.296-5.717334 5.802667-20.053333 10.581333-40.405333 15.701333-61.098666z m110.250667 203.050666h-123.221333l-2.517334 0.213334c-3.584 0.853333-4.181333 3.498667-4.266666 7.253333v4.437333c0.085333 4.565333 1.024 7.381333 8.533333 7.082667h122.496l2.432-0.256c3.669333-0.853333 5.034667-3.84 4.736-8.874667 0-5.802667 0-9.856-8.192-9.856z" fill="#ffffff" p-id="36736"></path></svg>