<?xml version="1.0" standalone="no"?><!DOCTYPE svg PUBLIC "-//W3C//DTD SVG 1.1//EN" "http://www.w3.org/Graphics/SVG/1.1/DTD/svg11.dtd"><svg t="1774160874255" class="icon" viewBox="0 0 1365 1024" version="1.1" xmlns="http://www.w3.org/2000/svg" p-id="51862" xmlns:xlink="http://www.w3.org/1999/xlink" width="341.25" height="256"><path d="M1348.832427 85.930667c-14.421333-7.168-20.650667 6.570667-29.013334 13.568-2.901333 2.218667-5.376 5.12-7.850666 7.850666-21.077333 23.04-45.738667 38.144-77.909334 36.352-47.104-2.730667-87.381333 12.373333-122.88 49.152-7.509333-45.312-32.682667-72.362667-70.826666-89.770666-20.053333-9.045333-40.192-18.005333-54.272-37.632-9.728-13.994667-12.373333-29.610667-17.322667-44.970667-3.072-9.216-6.144-18.688-16.64-20.224-11.349333-1.877333-15.786667 7.850667-20.224 15.957333-17.749333 33.194667-24.661333 69.717333-23.893333 106.666667 1.450667 83.285333 35.925333 149.589333 104.362666 196.778667 7.68 5.376 9.728 10.837333 7.338667 18.773333-4.693333 16.213333-10.24 32-15.189333 48.213333-3.072 10.325333-7.68 12.629333-18.602667 8.106667a314.026667 314.026667 0 0 1-98.645333-68.266667c-48.64-48.128-92.672-101.12-147.456-142.677333a648.533333 648.533333 0 0 0-39.168-27.306667c-55.978667-55.466667 7.338667-101.034667 22.016-106.410666 15.36-5.632 5.376-25.088-44.202667-24.832-49.493333 0.256-94.890667 17.066667-152.576 39.68-8.533333 3.413333-17.408 5.888-26.453333 7.936A534.357333 534.357333 0 0 0 335.66976 66.986667C228.576427 79.189333 143.072427 130.816 80.267093 219.050667 4.66176 325.034667-13.087573 445.44 8.672427 571.136 31.627093 703.573333 97.760427 813.226667 199.47776 898.901333c105.557333 88.917333 226.986667 132.437333 365.653333 124.074667 84.224-4.949333 177.92-16.469333 283.648-107.776 26.709333 13.482667 54.698667 18.944 101.12 23.04 35.84 3.328 70.229333-1.877333 96.853334-7.509333 41.813333-9.045333 38.826667-48.469333 23.808-55.722667-122.453333-58.197333-95.573333-34.474667-119.978667-53.76 62.208-75.093333 155.904-153.088 192.597333-405.930667 2.901333-20.138667 0.426667-32.768 0-48.981333-0.256-9.898667 1.962667-13.738667 13.141334-14.933333 30.634667-3.584 60.416-12.117333 87.722666-27.477334 79.274667-44.202667 111.274667-116.906667 118.869334-203.946666 1.109333-13.312-0.256-27.050667-14.08-34.048m-691.029334 783.701333c-118.613333-95.232-176.213333-126.549333-199.936-125.269333-22.186667 1.365333-18.261333 27.306667-13.312 44.288 5.12 16.64 11.776 28.16 21.077334 42.837333 6.4 9.728 10.922667 24.149333-6.485334 34.986667-38.144 24.064-104.533333-8.192-107.690666-9.728-77.312-46.506667-141.994667-107.861333-187.477334-191.744a594.602667 594.602667 0 0 1-73.728-259.84c-1.194667-22.357333 5.290667-30.293333 27.050667-34.304 28.586667-5.632 58.026667-6.314667 86.869333-2.304 121.088 18.090667 224.170667 73.386667 310.613334 160.853333 49.237333 49.834667 86.613333 109.397333 125.013333 167.594667 40.874667 61.866667 84.906667 120.746667 140.8 168.96 19.797333 16.981333 35.584 29.866667 50.688 39.253333-45.568 5.205333-121.514667 6.314667-173.482667-35.584m56.832-373.333333a17.578667 17.578667 0 0 1 23.552-16.725334c6.826667 2.645333 11.434667 9.301333 11.349334 16.725334a17.578667 17.578667 0 0 1-17.578667 17.749333 17.408 17.408 0 0 1-17.322667-17.749333m176.64 92.416a100.864 100.864 0 0 1-33.536 9.301333 69.717333 69.717333 0 0 1-45.312-14.677333c-15.616-13.312-26.709333-20.736-31.317333-43.946667a102.314667 102.314667 0 0 1 0.853333-34.133333c4.010667-18.944-0.426667-31.061333-13.568-42.154667-10.666667-9.045333-24.234667-11.52-39.082666-11.52a31.232 31.232 0 0 1-14.506667-4.522667 14.762667 14.762667 0 0 1-6.314667-20.736 64.853333 64.853333 0 0 1 10.837334-12.202666c20.224-11.690667 43.52-7.850667 65.109333 0.853333 19.968 8.448 34.986667 23.808 56.832 45.397333 22.186667 26.197333 26.282667 33.450667 38.912 53.077334 9.984 15.36 19.114667 31.061333 25.258667 49.152 3.84 11.264-1.109333 20.48-14.165334 26.112" fill="#ffffff" p-id="51863"></path></svg>