<?xml version="1.0" standalone="no"?><!DOCTYPE svg PUBLIC "-//W3C//DTD SVG 1.1//EN" "http://www.w3.org/Graphics/SVG/1.1/DTD/svg11.dtd"><svg t="1774172116906" class="icon" viewBox="0 0 1024 1024" version="1.1" xmlns="http://www.w3.org/2000/svg" p-id="5656" xmlns:xlink="http://www.w3.org/1999/xlink" width="256" height="256"><path d="M511.999865 511.999865m-511.999865 0a511.999865 511.999865 0 1 0 1023.999731 0 511.999865 511.999865 0 1 0-1023.999731 0Z" fill="#D4E3FF" p-id="5657"></path><path d="M608.013314 815.993048l47.966303 48.020198v63.973036l-175.96627 16.006733-127.999966-63.999983 63.973036-63.999984v-63.999983L363.789378 700.631395l-26.947361-67.368404-67.368404-25.276625-13.47368-31.986518L242.526252 511.999865l13.473681-47.99325h47.99325V383.999899l255.999933-160.013432 112.020181 96.013449 47.966303 144.006699 64.026931 15.979785V525.473546l-16.006733 50.526302-47.993251 57.263143-16.006732-25.276625-32.013466 80.033663-63.999983 63.973036z" fill="#FFFFFF" p-id="5658"></path><path d="M623.993099 144.033646c17.731364 29.561255 19.779363 53.652196 15.090522 72.677034 76.557454 26.677888 116.331759 64.13472 120.481653 119.376811 2.748631 36.567569-9.943576 84.075767-29.10315 117.9486a26.731782 26.731782 0 0 1 7.033261-0.889263c48.882513 0 61.547773 12.66526 61.547773 61.547773 0 53.436618-31.285887 117.03239-74.23998 131.34144L720.572442 646.736672c-3.718736 0-7.194945-0.40421-10.428629-1.185684-11.048418 38.157464-44.570936 80.518716-89.061029 109.163761v33.711149c0 10.72505 2.506105 21.126731 7.167998 30.450518l2.479157 4.527157 2.56-1.347368a26.543151 26.543151 0 0 1 22.878309 0.269473l57.936827 28.752835a213.34226 213.34226 0 0 1 88.737661 82.351136l-7.114103 4.769683a337.165385 337.165385 0 0 1-16.03368 10.320839 398.362843 398.362843 0 0 1-14.066523 8.353682A509.655445 509.655445 0 0 1 511.999865 1023.999731c-92.914502 0-180.062268-24.737678-255.191512-68.01514l-0.80842-0.485053-1.347368-0.808421-5.01221-2.96421 1.994105 1.212632-0.997052-0.592842a511.892076 511.892076 0 0 1-36.998727-24.225678 195.907317 195.907317 0 0 1 81.327136-70.090087l61.844194-28.671992a25.815572 25.815572 0 0 1 23.525047 0.970105l3.557052 2.021052c10.239997-12.126313 16.087575-27.621045 16.087574-43.924199V754.526117c0-0.889263 0.053895-1.778526 0.215579-2.613894-40.528831-27.971361-69.658929-68.122929-78.955769-106.657656a40.906094 40.906094 0 0 1-11.317891 1.482105l-4.284631-0.700631c-42.954094-14.282102-74.23998-77.904822-74.23998-131.34144 0-41.903147 9.323787-57.182301 42.79241-60.685457-10.509471-27.890519-18.189469-74.051349-18.189469-117.975548 0-80.033663 71.464402-176.77469 208.006682-191.99995 95.986501-10.72505 95.986501 32.013465 159.986484 0zM431.966202 770.155587v18.324206c0 21.477047-6.898525 42.037884-19.213469 58.906931 25.061046 11.64126 49.340619 17.946943 86.393241 17.946943 44.543988 0 73.404612-9.162103 104.016815-25.680835l-0.538948-0.808421a99.974711 99.974711 0 0 1-13.58147-50.391566v-16.43789c-23.686731 10.374734-49.313671 16.572627-75.533454 16.572627a193.643739 193.643739 0 0 1-81.542715-18.431995z m155.917433-483.220084c-24.791572 25.599993-90.38145 75.722085-237.945201 103.181447-7.949472 14.551575-13.904838 48.639987-14.147364 89.492187a12.934733 12.934733 0 0 1-2.802526 8.138103l2.425262 4.769683a13.473681 13.473681 0 0 1-24.090941 12.072418c-9.781892-19.563784-15.036628-24.468204-18.3781-24.468204-33.980623 0-34.600412 0.619789-34.600412 34.600412 0 41.3642 23.929257 91.621029 52.277881 104.394078l2.048 0.80842 0.538947 0.10779c0.323368 0.080842 0.512 0.188632 0.619789 0.323368l0.269474 0.10779 0.107789-1.104842a13.473681 13.473681 0 0 1 9.539366-10.509471 13.446733 13.446733 0 0 1 21.288415 10.967576c0 60.2543 76.530506 141.823963 168.474903 141.823963 90.219766 0 173.648796-87.794503 173.648797-141.823963a13.473681 13.473681 0 0 1 23.201678-9.29684 13.473681 13.473681 0 0 1 5.874525 8.838735l0.107789 1.104842a2.613894 2.613894 0 0 1 1.374316-0.538948l2.155789-0.80842c27.135993-12.234102 50.229882-58.906932 52.089249-99.16629l0.134737-5.227788c0-33.980623-0.619789-34.600412-34.600412-34.600412-3.341473 0-8.596208 4.90442-18.378101 24.468204a13.473681 13.473681 0 0 1-25.195782-9.027366l0.673684-2.155789-0.970105 0.323368c-2.802526 0.40421-5.335578-2.101894-5.200841-5.281683 5.012209-118.05639-63.137668-186.58353-100.540605-201.512368z m-24.279573 350.935487a13.473681 13.473681 0 0 1 2.694736 18.863153c-9.70105 12.934733-30.773887 23.39031-55.781038 23.39031-25.249678 0-45.864409-10.698102-54.73009-23.983152a13.473681 13.473681 0 1 1 22.420204-14.955786c3.772631 5.685893 15.925891 11.991576 32.282939 11.991576 16.572627 0 29.642097-6.494314 34.223149-12.611365a13.473681 13.473681 0 0 1 18.863153-2.694736z m-57.559564-138.805858a13.473681 13.473681 0 0 1 9.323787 16.599574l-15.575574 55.619354a5.739788 5.739788 0 0 0 5.524209 7.275788h22.150731a13.473681 13.473681 0 1 1 0 26.947361h-22.150731a32.687149 32.687149 0 0 1-31.474518-41.498936l15.575574-55.619354a13.473681 13.473681 0 0 1 16.626522-9.323787z m-209.380997 18.647574l30.450518 25.573046a13.473681 13.473681 0 0 1-17.327153 20.641679l-30.450518-25.599994a13.473681 13.473681 0 0 1 17.327153-20.614731z m449.670618 1.643789a13.473681 13.473681 0 0 1-1.670736 18.99789l-30.450518 25.573046a13.473681 13.473681 0 0 1-17.327154-20.641679l30.450519-25.599993a13.473681 13.473681 0 0 1 18.997889 1.670736z m-154.81259-49.690934c10.778945 0 19.50989 13.419786 19.509889 29.992413s-8.730945 30.019361-19.509889 30.01936c-10.778945 0-19.50989-13.446733-19.50989-30.01936 0-16.572627 8.730945-29.992413 19.50989-29.992413z m-168.043746 0c10.778945 0 19.50989 13.419786 19.50989 29.992413s-8.730945 30.019361-19.50989 30.01936c-10.778945 0-19.50989-13.446733-19.509889-30.01936 0-16.572627 8.730945-29.992413 19.509889-29.992413z m9.108208-59.957879a13.473681 13.473681 0 0 1-13.47368 23.336415c-8.67705-5.012209-25.950309 0.91621-29.857677 7.679998a13.473681 13.473681 0 1 1-23.336415-13.473681c10.967576-18.99789 44.328409-30.450518 66.667772-17.542732z m215.659733 14.147364a13.473681 13.473681 0 0 1-23.363362 13.473681c-4.90442-8.542314-19.671574-11.183155-26.677888-7.167998a13.473681 13.473681 0 0 1-13.473681-23.336415c19.078732-10.994523 50.580197-5.362525 63.514931 17.030732z" fill="#070F3A" p-id="5659"></path></svg>