<?xml version="1.0" encoding="utf-8"?>
<!-- Generator: Adobe Illustrator 23.0.1, SVG Export Plug-In . SVG Version: 6.00 Build 0)  -->
<svg version="1.1" id="图层_1" xmlns="http://www.w3.org/2000/svg" xmlns:xlink="http://www.w3.org/1999/xlink" x="0px" y="0px"
	 viewBox="0 0 256 256" style="enable-background:new 0 0 256 256;" xml:space="preserve">
<style type="text/css">
	.st0{fill:#FFFFFF;}
</style>
<path d="M30.1,45.2h15.1V30.1H30.1V45.2z M0,75.3h75.3V0H0V75.3z M15.1,15.1h45.2v45.2H15.1V15.1z M225.9,30.1h-15.1v15.1h15.1V30.1
	z M256,0h-75.3v75.3H256L256,0L256,0z M240.9,60.2h-45.2V15.1h45.2L240.9,60.2L240.9,60.2z M30.1,225.9h15.1v-15.1H30.1V225.9z
	 M0,256h75.3v-75.3H0V256z M15.1,195.8h45.2V241H15.1V195.8z M120.5,60.2h15.1V30.1h-15.1V15.1h30.1V0h-45.2v15.1H90.3v15.1h15.1
	v15.1h15.1L120.5,60.2L120.5,60.2z M135.5,75.3h15.1V60.2h-15.1V75.3z M150.6,45.2v15.1h15.1V45.2H150.6L150.6,45.2z M165.6,15.1
	h-15.1v15.1h15.1V15.1z M195.7,120.5h15.1v-15.1h-15.1L195.7,120.5L195.7,120.5z M120.5,90.4V60.2h-15.1v30.1H90.3v15.1h45.2V90.4
	C135.5,90.4,120.5,90.4,120.5,90.4z M150.6,105.4h15.1V75.3h-15.1V105.4z M180.7,105.4h15.1V90.4h-15.1V105.4z M210.8,90.4v15.1
	h30.1V90.4H210.8z M180.7,120.5v-15.1h-15.1v15.1H180.7L180.7,120.5z M195.7,120.5h-15.1v15.1h15.1
	C195.7,135.5,195.7,120.5,195.7,120.5z M256,105.4h-15.1v15.1H256V105.4z M240.9,135.5v15.1H256v-15.1H240.9z M225.9,150.6v15.1
	h15.1v-15.1L225.9,150.6L225.9,150.6z M225.9,180.7v15.1h15.1v15.1H256v-30.1H225.9L225.9,180.7z M225.9,195.8h-30.1v15.1h30.1
	V195.8z M75.3,135.5v-15.1H60.2v15.1H75.3z M165.6,225.9h15.1v-15.1h-15.1V225.9z M180.7,240.9h-30.1V256h45.2v-15.1h15.1V256h15.1
	v-15.1h15.1V256H256v-30.1h-75.3V240.9z M135.5,256v-15.1h-15.1V256H135.5z M105.4,240.9H90.3V256h15.1V240.9z M105.4,165.6H90.3
	v15.1h30.1v-45.2h-15.1v-15.1H90.3v15.1H75.3v15.1h30.1V165.6z M150.6,225.9h-15.1V241h15.1V225.9L150.6,225.9z M180.7,165.6h-15.1
	v30.1h30.1v-15.1h-15.1L180.7,165.6L180.7,165.6z M195.7,180.7h30.1v-15.1h-15.1v-15.1h15.1v-30.1h-15.1v15.1h-15.1V180.7
	L195.7,180.7z M150.6,210.8v-45.2h-15.1v30.1H90.3v30.1h15.1v-15.1h15.1v15.1h15.1v-15.1H150.6L150.6,210.8z M180.7,135.5h-45.2
	v15.1h15.1v15h15v-15.1h15.1L180.7,135.5L180.7,135.5z M150.6,105.4h-15.1v15.1h15.1V105.4z M120.5,120.5v15.1h15.1v-15.1
	C135.5,120.5,120.5,120.5,120.5,120.5z M90.3,120.5v-15.1H75.3v15.1H90.3z M60.2,105.4h15.1V90.4H60.2V105.4z M30.1,90.4v30.1h15.1
	V90.4H30.1L30.1,90.4z M60.2,150.6v-15.1H30.1v-15.1H15.1v-15.1H0v30.1h15.1v15.1h15.1v15.1h15.1v-15.1L60.2,150.6L60.2,150.6z
	 M75.3,150.6H60.2v15.1h15.1V150.6L75.3,150.6z M15.1,165.6v-15.1H0v15.1H15.1z"/>
<circle class="st0" cx="128" cy="128" r="65"/>
<path d="M128,73c-30.4,0-55,24.6-55,55s24.6,55,55,55s55-24.6,55-55S158.4,73,128,73z"/>
<path class="st0" d="M128,158.3c-3.1,0-5.7-2.5-5.7-5.7c0-3.1,2.5-5.7,5.7-5.7c3.1,0,5.7,2.5,5.7,5.7c0,0,0,0,0,0
	C133.7,155.8,131.1,158.3,128,158.3L128,158.3z"/>
<path class="st0" d="M137.6,103.8l-4.8,30c-0.7,3.9-2.8,7.1-4.8,7.1s-4.1-3.2-4.8-7.1l-4.8-30c-0.7-3.9,2.1-8.2,6-8.2h7.2
	C135.6,95.6,138.3,99.8,137.6,103.8L137.6,103.8z"/>
</svg>
